<svg id="Layer_1" data-name="Layer 1" xmlns="http://www.w3.org/2000/svg" viewBox="0 0 400 300" width="406" height="306" class="illustration styles_illustrationTablet__1DWOa"><title>#46 graphic chart</title><ellipse cx="194.05" cy="264.51" rx="103" ry="20.88" fill="#e6e6e6" opacity="0.45"></ellipse><rect x="72.3" y="42.68" width="246.5" height="175.7" fill="#e6e6e6"></rect><path d="M109.75,174.55s11-30.66,25.78-27.51,25.33,24.8,40.87,11.88,11.38-31.43,33.35-36.58,31.24,5.85,39.58-15.1,25.81-17.81,25.81-17.81V193.14H109.75Z" fill="#a5a5a5" opacity="0.46"></path><path d="M193.31,136.68s8.12-5.41,15,.75,9.13,11.66,19.47,9,55.65,21.83,37,72l-26.34-.21-44.42-64.37Z" opacity="0.08"></path><path d="M281.14,197H108.07a2,2,0,0,1-2-2V93.18h4V193H281.14Z" fill="#a5a5a5"></path><path d="M180.32,266s5.19,6.2,9,4.95-2.94-9.5-2.94-9.5Z" fill="#68e1fd"></path><path d="M204.22,266s-5.19,6.2-9,4.95,2.94-9.5,2.94-9.5Z" fill="#68e1fd"></path><path d="M182.23,155.52s-45.59-3.84-49.92,16.83c-2.84,13.54-4.61,38.79-5.49,54.61a14.45,14.45,0,0,0,13.25,15.21l48.4,4,49-4.06a16.51,16.51,0,0,0,14.71-12.75C258.27,203.06,263.79,142.94,182.23,155.52Z" fill="#68e1fd"></path><path d="M181.28,156.75s-7,9.7-1,13.69,8.33,0,8.33,0,4.35,5.81,8.8,1.78,4.37-12.59.34-16.79S181.28,156.75,181.28,156.75Z" fill="#fff"></path><path d="M161.14,244.4s-29.89,5.78-23.17,18.78c4.89,9.47,30.25,5.42,43.69,2.52a49,49,0,0,1,17.12-.62c9.08,1.26,23.49,2.69,34.36,1.1,19.16-2.79,5.62-22.62-18.38-22.62S161.14,244.4,161.14,244.4Z" fill="#24285b"></path><path d="M182.72,157.17a50.65,50.65,0,0,1,.22,5.64c-.07,2.59.52,6.47,4.55,7.47,6.2,1.54,8.47-8.28,8.47-8.28s4.52-9.07-2.2-10.76C187.71,149.72,182,148.55,182.72,157.17Z" fill="#f4a28c"></path><path d="M195.55,162.37s.54-3,3.16-2.7S200,165.52,195.55,162.37Z" fill="#f4a28c"></path><polygon points="169.89 195.02 168.64 183.52 234.12 184.31 228.94 242.83 212.39 243.94 169.89 195.02" opacity="0.08"></polygon><path d="M183.89,162.94s1.1-2.84-1.29-4S178.49,163.33,183.89,162.94Z" fill="#f4a28c"></path><polygon points="166.08 237.19 161.14 195.02 219.64 195.02 215.14 237.19 215.64 246.19 166.08 246.19 166.08 237.19" fill="#ffd200"></polygon><circle cx="189.84" cy="218.39" r="5.7" fill="#fff"></circle><path d="M182.72,157.17s-10.08-2.08-5.08-9.28,5.67-1.54,8.17-7.21,4.5-6.66,7.5-4-.37,7.67,4.48,6.5,8.18-2.33,8.85,1.67-.33,5.83-3.5,7,1.34,6.77-6.5,8.47-11.33-7-11.33-7Z" fill="#24285b"></path><circle cx="91.4" cy="59.6" r="5.91" fill="#68e1fd"></circle><circle cx="108.07" cy="59.6" r="5.91" fill="#ffd200"></circle><circle cx="125.9" cy="59.6" r="5.91" fill="#24285b"></circle><circle cx="133.8" cy="147.91" r="5.23" fill="#fff"></circle><circle cx="208.35" cy="123.65" r="5.23" fill="#fff"></circle><circle cx="275.14" cy="89.26" r="5.23" fill="#fff"></circle><rect x="273.75" y="21.83" width="67.96" height="42.96" fill="#efefef"></rect><rect x="273.75" y="64.68" width="45.05" height="7.24" fill="#a5a5a5" opacity="0.3"></rect><polygon points="293.06 30.99 283.06 30.99 288.06 40.95 293.06 30.99" fill="#a5a5a5"></polygon><polygon points="283.06 56.92 293.06 56.92 288.06 46.96 283.06 56.92" fill="#fff"></polygon><rect x="298.89" y="31.59" width="32.61" height="7.62" fill="#a5a5a5" opacity="0.46"></rect><rect x="298.89" y="48.13" width="32.61" height="7.62" fill="#a5a5a5" opacity="0.3"></rect><polygon points="162.43 206.04 194.05 246.19 166.08 246.19 166.08 237.19 162.43 206.04" opacity="0.08"></polygon></svg>