<svg xmlns="http://www.w3.org/2000/svg" xmlns:xlink="http://www.w3.org/1999/xlink" version="1.1" width="256" height="256" viewBox="0 0 256 256" xml:space="preserve">

<defs>
</defs>
<g style="stroke: none; stroke-width: 0; stroke-dasharray: none; stroke-linecap: butt; stroke-linejoin: miter; stroke-miterlimit: 10; fill: none; fill-rule: nonzero; opacity: 1;" transform="translate(1.403662682311662 1.4036626823116336) scale(2.81 2.81)" >
	<path d="M 28.513 25.461 L 12.135 38.394 c -1.204 0.951 -2.951 0.745 -3.902 -0.459 l -7.634 -9.669 c -0.951 -1.204 -0.745 -2.951 0.459 -3.902 l 16.379 -12.932 c 1.204 -0.951 2.951 -0.745 3.902 0.459 l 7.634 9.669 C 29.923 22.763 29.718 24.511 28.513 25.461 z" style="stroke: none; stroke-width: 1; stroke-dasharray: none; stroke-linecap: butt; stroke-linejoin: miter; stroke-miterlimit: 10; fill: rgb(42,43,44); fill-rule: nonzero; opacity: 1;" transform=" matrix(1 0 0 1 0 0) " stroke-linecap="round" />
	<path d="M 61.676 25.512 l 16.379 12.932 c 1.204 0.951 2.951 0.745 3.902 -0.459 l 7.634 -9.669 c 0.951 -1.204 0.745 -2.951 -0.459 -3.902 L 72.753 11.482 c -1.204 -0.951 -2.951 -0.745 -3.902 0.459 l -7.634 9.669 C 60.266 22.814 60.471 24.561 61.676 25.512 z" style="stroke: none; stroke-width: 1; stroke-dasharray: none; stroke-linecap: butt; stroke-linejoin: miter; stroke-miterlimit: 10; fill: rgb(42,43,44); fill-rule: nonzero; opacity: 1;" transform=" matrix(1 0 0 1 0 0) " stroke-linecap="round" />
	<path d="M 71.249 10.802 c -4.203 -1.235 -8.407 -2.166 -12.61 -2.805 c 0 0.016 0.004 0.031 0.004 0.047 c 0 4.977 -5.897 9.012 -13.171 9.012 s -13.171 -4.035 -13.171 -9.012 c 0 -0.054 0.01 -0.106 0.012 -0.159 c -4.451 0.64 -8.901 1.609 -13.352 2.918 c -1.531 0.531 -2.844 1.165 -2.473 2.727 c 4.665 12.88 5.755 39.083 6.509 66.535 c 0.125 1.273 1.194 2.243 2.473 2.243 h 19.636 H 64.74 c 1.279 0 2.348 -0.97 2.473 -2.243 c 0.754 -27.452 1.844 -53.655 6.509 -66.535 C 73.865 12.067 72.642 11.232 71.249 10.802 z" style="stroke: none; stroke-width: 1; stroke-dasharray: none; stroke-linecap: butt; stroke-linejoin: miter; stroke-miterlimit: 10; fill: rgb(63,64,66); fill-rule: nonzero; opacity: 1;" transform=" matrix(1 0 0 1 0 0) " stroke-linecap="round" />
	<path d="M 55.01 30.912 c 1.111 0.915 2.21 1.564 3.406 2.02 c 0.362 0.138 0.749 -0.143 0.749 -0.531 c 0 -3.306 0 -16.127 0 -21.119 c 0 -0.558 -0.71 -0.766 -1.026 -0.306 c -1.842 2.688 -4.513 4.966 -8.012 6.834 c 0 0 0 0 0 0 c 0 0 0 11.446 0 14.588 c 0 0.387 0.387 0.671 0.749 0.533 c 1.196 -0.456 2.296 -1.104 3.406 -2.02 C 54.483 30.747 54.811 30.747 55.01 30.912 z" style="stroke: none; stroke-width: 1; stroke-dasharray: none; stroke-linecap: butt; stroke-linejoin: miter; stroke-miterlimit: 10; fill: rgb(255,255,255); fill-rule: nonzero; opacity: 1;" transform=" matrix(1 0 0 1 0 0) " stroke-linecap="round" />
	<path d="M 54.327 48.132 c -1.243 -0.853 -2.325 -1.81 -3.251 -2.866 c -0.331 -0.378 -0.947 -0.153 -0.947 0.349 c 0 7.139 0 36.691 0 36.691 h 9.037 l 0 -36.686 c 0 -0.502 -0.616 -0.732 -0.947 -0.354 c -0.926 1.056 -2.009 2.013 -3.251 2.866 C 54.737 48.132 54.557 48.132 54.327 48.132 z" style="stroke: none; stroke-width: 1; stroke-dasharray: none; stroke-linecap: butt; stroke-linejoin: miter; stroke-miterlimit: 10; fill: rgb(255,255,255); fill-rule: nonzero; opacity: 1;" transform=" matrix(1 0 0 1 0 0) " stroke-linecap="round" />
	<path d="M 40.813 17.81 c -5.012 -1.979 -8.025 -4.983 -9.037 -9.012 v 73.508 h 9.037 V 17.81 z" style="stroke: none; stroke-width: 1; stroke-dasharray: none; stroke-linecap: butt; stroke-linejoin: miter; stroke-miterlimit: 10; fill: rgb(255,255,255); fill-rule: nonzero; opacity: 1;" transform=" matrix(1 0 0 1 0 0) " stroke-linecap="round" />
	<path d="M 45.471 18.93 c -7.682 0 -14.171 -4.719 -14.171 -10.304 c 0 -0.552 0.448 -1 1 -1 c 0.552 0 1 0.448 1 1 c 0 4.501 5.574 8.304 12.171 8.304 c 6.711 0 12.171 -3.594 12.171 -8.012 c 0 -0.552 0.448 -1 1 -1 s 1 0.448 1 1 C 59.642 14.439 53.284 18.93 45.471 18.93 z" style="stroke: none; stroke-width: 1; stroke-dasharray: none; stroke-linecap: butt; stroke-linejoin: miter; stroke-miterlimit: 10; fill: rgb(42,43,44); fill-rule: nonzero; opacity: 1;" transform=" matrix(1 0 0 1 0 0) " stroke-linecap="round" />
	<path d="M 54.133 34.189 c -1.179 0.904 -2.36 1.371 -3.841 1.599 c -0.423 0.065 -0.736 0.454 -0.707 0.88 c 0.25 3.662 1.771 6.508 4.562 8.538 c 0.293 0.213 0.708 0.213 1 0 c 2.792 -2.03 4.312 -4.876 4.562 -8.538 c 0.029 -0.427 -0.284 -0.816 -0.707 -0.88 c -1.481 -0.228 -2.662 -0.695 -3.841 -1.599 C 54.854 33.954 54.44 33.954 54.133 34.189 z" style="stroke: none; stroke-width: 1; stroke-dasharray: none; stroke-linecap: butt; stroke-linejoin: miter; stroke-miterlimit: 10; fill: rgb(255,255,255); fill-rule: nonzero; opacity: 1;" transform=" matrix(1 0 0 1 0 0) " stroke-linecap="round" />
</g>
</svg>