<svg xmlns="http://www.w3.org/2000/svg" viewBox="0 0 500 500"><g id="freepik--background-complete--inject-3"><rect x="416.78" y="398.49" width="33.12" height="0.25" style="fill:#ebebeb"></rect><rect x="322.53" y="401.21" width="8.69" height="0.25" style="fill:#ebebeb"></rect><rect x="396.59" y="389.21" width="19.19" height="0.25" style="fill:#ebebeb"></rect><rect x="52.46" y="390.89" width="43.19" height="0.25" style="fill:#ebebeb"></rect><rect x="104.56" y="390.89" width="6.33" height="0.25" style="fill:#ebebeb"></rect><rect x="131.47" y="395.11" width="93.68" height="0.25" style="fill:#ebebeb"></rect><path d="M237,337.8H43.92a5.71,5.71,0,0,1-5.71-5.71V60.66A5.71,5.71,0,0,1,43.92,55H237a5.71,5.71,0,0,1,5.71,5.71V332.09A5.71,5.71,0,0,1,237,337.8ZM43.92,55.2a5.47,5.47,0,0,0-5.46,5.46V332.09a5.47,5.47,0,0,0,5.46,5.46H237a5.47,5.47,0,0,0,5.46-5.46V60.66A5.47,5.47,0,0,0,237,55.2Z" style="fill:#ebebeb"></path><path d="M453.31,337.8H260.21a5.72,5.72,0,0,1-5.71-5.71V60.66A5.72,5.72,0,0,1,260.21,55h193.1A5.71,5.71,0,0,1,459,60.66V332.09A5.71,5.71,0,0,1,453.31,337.8ZM260.21,55.2a5.47,5.47,0,0,0-5.46,5.46V332.09a5.47,5.47,0,0,0,5.46,5.46h193.1a5.47,5.47,0,0,0,5.46-5.46V60.66a5.47,5.47,0,0,0-5.46-5.46Z" style="fill:#ebebeb"></path><rect y="382.4" width="500" height="0.25" style="fill:#ebebeb"></rect><path d="M109.42,298.94h-.06a41.93,41.93,0,0,1-12.82-2l-.28,0a42.91,42.91,0,0,1-29.88-40.72v-.24a42.84,42.84,0,0,1,30-41,42.33,42.33,0,0,1,6.39-1.49,42.81,42.81,0,0,1,41.58,17.49c.62.87,1.23,1.8,1.82,2.76.11.18.2.36.3.55l.18.33.45.82c.23.41.45.81.66,1.22s.29.61.42.91l.14.32c.27.57.62,1.31.8,1.75a8,8,0,0,1,.29.77c.06.17.12.35.21.57l.07.19.56,1.51c.09.29.17.58.25.89s.1.38.16.59c.18.62.35,1.18.47,1.69.09.36.16.7.22,1l.17.83c.09.45.18.9.26,1.33s.13.92.18,1.39l0,.24c.06.54.11,1.07.18,1.6a12.74,12.74,0,0,1,.08,1.72c0,.17,0,.33,0,.49,0,.38,0,.75,0,1.12a3.33,3.33,0,0,1,0,.45,42.68,42.68,0,0,1-9.18,26.42c-.63.81-1.32,1.64-2.13,2.53-.49.54-1,1-1.51,1.54l-.19.19a3.25,3.25,0,0,0-.26.27l-.33.33a42.43,42.43,0,0,1-9.64,6.8c-1.3.68-2.65,1.3-4,1.85-1,.39-2,.74-3.06,1.09A43,43,0,0,1,109.42,298.94Zm0-2h0a41,41,0,0,0,12-1.81c1-.33,2-.67,2.93-1,1.29-.52,2.59-1.11,3.83-1.76a40.75,40.75,0,0,0,9.19-6.49l.25-.25c.1-.11.21-.23.32-.33l.18-.18c.49-.47,1-.95,1.43-1.46.77-.84,1.43-1.63,2-2.41A40.74,40.74,0,0,0,150.38,256a1.43,1.43,0,0,0,0-.3c0-.4,0-.72,0-1.05,0-.18,0-.36,0-.55V254a12,12,0,0,0-.06-1.49c-.07-.54-.13-1.08-.19-1.63l0-.25c0-.43-.09-.85-.16-1.27s-.16-.84-.25-1.26l-.17-.87c-.06-.31-.12-.61-.2-.93-.12-.49-.28-1-.43-1.54-.09-.31-.14-.52-.19-.73s-.13-.5-.21-.73-.35-1-.54-1.47l-.07-.19-.23-.61a5.84,5.84,0,0,0-.24-.66c-.18-.42-.51-1.12-.77-1.68l-.16-.36c-.12-.27-.24-.55-.38-.82s-.4-.75-.61-1.14-.31-.54-.46-.82l-.2-.36a4.92,4.92,0,0,0-.24-.45c-.56-.92-1.15-1.81-1.74-2.63a40.78,40.78,0,0,0-39.64-16.68,40,40,0,0,0-6.1,1.42,40.85,40.85,0,0,0-28.64,39.1v.23a40.9,40.9,0,0,0,28.34,38.77L97,295a39.93,39.93,0,0,0,12.36,1.95Z" style="fill:#e0e0e0"></path><path d="M137.49,280.41c-.26.3-.51.6-.77.89s-.77.78-1.16,1.18-.51.52-.78.76c-.44.42-.9.8-1.35,1.19-.24.21-.47.42-.71.61-.64.52-1.31,1-2,1.48l-.2.15c-.75.52-1.52,1-2.3,1.46-.25.15-.5.27-.75.4-.55.31-1.1.62-1.66.89l-1,.44c-.52.23-1,.46-1.55.67-.35.15-.72.26-1.07.39s-.78.28-1.18.41l-.52-.39,4.09-12.6h13.26l.38,1.16Z" style="fill:#e0e0e0"></path><path d="M97.41,291.24l-1.16-.41-1.08-.4c-.51-.22-1-.46-1.51-.69-.33-.15-.66-.28-1-.45-.55-.28-1.09-.57-1.63-.87l-.76-.43c-.79-.46-1.55-1-2.3-1.48l-.12-.1a22.85,22.85,0,0,1-2-1.54c-.23-.19-.45-.4-.67-.6a17.94,17.94,0,0,1-1.38-1.22c-.26-.24-.5-.5-.75-.76-.4-.39-.8-.78-1.18-1.21s-.5-.57-.75-.87l-.78-1,.36-1.08H93.92L98,290.75Z" style="fill:#e0e0e0"></path><path d="M72.17,252.89a14.88,14.88,0,0,1,.2-1.75,6.46,6.46,0,0,1,.12-1c.11-.75.26-1.5.42-2.23a1.89,1.89,0,0,1,.09-.45c.2-.87.43-1.74.7-2.61.07-.26.18-.51.27-.77.19-.6.39-1.2.62-1.79.13-.33.28-.64.41-1,.22-.51.44-1,.68-1.53.16-.34.34-.68.52-1s.48-1,.74-1.41.42-.68.63-1,.4-.66.61-1h1.14L83.46,248l-10.77,7.8-.62-.45V254C72.07,253.59,72.14,253.26,72.17,252.89Z" style="fill:#e0e0e0"></path><polygon points="95.2 251.51 109.38 241.2 123.56 251.51 118.15 268.18 100.62 268.18 95.2 251.51" style="fill:#e0e0e0"></polygon><path d="M98.82,220.1l1.11-.31,1.21-.31,1.36-.26,1.4-.25c.44-.06.71-.08,1.06-.12.57-.07,1.14-.15,1.7-.18H107a37.48,37.48,0,0,1,4.74,0H112a13.64,13.64,0,0,1,1.69.18,7.62,7.62,0,0,1,1.07.12l1.41.25c.44.09,1,.17,1.36.26l1.2.31,1.17.31.19.59-10.75,7.8-10.72-7.8Z" style="fill:#e0e0e0"></path><path d="M140.18,234.84c.23.34.45.68.66,1s.44.67.65,1,.53,1,.79,1.42.37.66.54,1c.27.52.51,1.06.74,1.61.13.3.28.59.4.89.33.8.61,1.59.88,2.41,0,.1.07.18.1.28.27.83.51,1.68.71,2.53.08.31.12.63.19,1,.13.59.26,1.17.36,1.77.05.36.09.74.14,1.11.08.54.15,1.09.2,1.64s.05.79.08,1.2,0,.8,0,1.21l-.47.34-10.71-7.78h0l4.08-12.6Z" style="fill:#e0e0e0"></path><path d="M326.79,196.26h-.08a55.19,55.19,0,0,1-16.82-2.62l-.36-.06a56.26,56.26,0,0,1-39.18-53.4v-.31a56.17,56.17,0,0,1,39.39-53.79,54.74,54.74,0,0,1,8.38-1.94,56.09,56.09,0,0,1,54.52,22.93c.82,1.14,1.62,2.36,2.39,3.62l.4.71c.08.15.15.29.24.44.2.38.4.73.59,1.07.3.54.59,1.06.87,1.61s.37.79.54,1.18l.19.43c.35.75.81,1.71,1.05,2.29.15.36.26.66.38,1s.16.46.27.75l.09.25c.26.69.55,1.48.73,2s.23.75.34,1.16q.09.36.21.78c.23.8.45,1.54.61,2.21.12.48.21.92.29,1.38l.22,1.09c.12.58.24,1.18.34,1.74s.17,1.2.24,1.82l0,.32c.08.71.16,1.4.25,2.1a17.4,17.4,0,0,1,.1,2.25c0,.22,0,.43.05.64,0,.49.07,1,.07,1.47a2.86,2.86,0,0,1,0,.59,55.91,55.91,0,0,1-12.05,34.65c-.81,1.07-1.73,2.15-2.78,3.31-.64.71-1.32,1.38-2,2l-.25.24-.35.36-.43.43a55.57,55.57,0,0,1-12.64,8.92,57.24,57.24,0,0,1-5.27,2.43c-1.3.51-2.61,1-4,1.42A56.12,56.12,0,0,1,326.79,196.26Zm-.05-2.62h.05a53.48,53.48,0,0,0,15.79-2.38c1.34-.43,2.6-.88,3.84-1.36,1.7-.68,3.39-1.46,5-2.31a53.28,53.28,0,0,0,12.05-8.51l.33-.33c.14-.15.28-.3.43-.44l.23-.23c.64-.62,1.28-1.24,1.87-1.91,1-1.11,1.88-2.14,2.67-3.16a53.45,53.45,0,0,0,11.49-33.14,2.3,2.3,0,0,0,0-.38c0-.53,0-1-.07-1.38,0-.24,0-.48-.05-.72v-.08a15.42,15.42,0,0,0-.08-1.95c-.09-.72-.17-1.43-.25-2.14l0-.33c-.06-.57-.12-1.11-.21-1.66s-.21-1.1-.33-1.67l-.22-1.13c-.08-.41-.15-.8-.26-1.22-.16-.64-.36-1.35-.56-2-.12-.4-.19-.69-.26-1s-.17-.66-.27-1c-.18-.5-.46-1.26-.72-1.93l-.09-.25c-.11-.31-.21-.57-.29-.81s-.19-.55-.32-.86c-.23-.55-.66-1.47-1-2.2l-.21-.47c-.16-.36-.32-.72-.49-1.08s-.53-1-.81-1.49c-.2-.36-.4-.71-.6-1.08-.08-.14-.16-.31-.26-.47s-.2-.4-.32-.59c-.73-1.21-1.5-2.37-2.28-3.46A53.78,53.78,0,0,0,273,139.87v.3A53.66,53.66,0,0,0,310.13,191l.37.06a52.48,52.48,0,0,0,16.21,2.56Z" style="fill:#ebebeb"></path><path d="M363.6,172c-.34.39-.67.78-1,1.16s-1,1-1.52,1.55-.67.68-1,1c-.58.55-1.18,1.05-1.77,1.55-.32.28-.62.56-.94.81-.84.68-1.71,1.26-2.6,1.94l-.27.2c-1,.68-2,1.26-3,1.91-.33.19-.65.35-1,.53-.72.4-1.44.81-2.18,1.16l-1.26.58c-.68.3-1.34.6-2,.88-.47.19-.95.34-1.41.52s-1,.36-1.54.52l-.69-.5,5.36-16.53h17.4l.49,1.52Z" style="fill:#ebebeb"></path><path d="M311,186.16l-1.53-.54c-.46-.18-.94-.34-1.41-.53-.66-.28-1.33-.59-2-.89-.43-.2-.86-.38-1.26-.59-.72-.37-1.43-.76-2.13-1.15-.34-.19-.68-.37-1-.57-1-.6-2-1.26-3-1.94l-.16-.12a28.18,28.18,0,0,1-2.68-2c-.3-.25-.59-.51-.88-.78-.62-.51-1.26-1-1.82-1.6-.34-.31-.65-.65-1-1-.53-.52-1-1-1.55-1.59s-.65-.75-1-1.14l-1-1.26.47-1.43h17.36l5.36,16.51Z" style="fill:#ebebeb"></path><path d="M277.94,135.87a18,18,0,0,1,.26-2.3,7.9,7.9,0,0,1,.16-1.26c.15-1,.34-2,.55-2.93a2.47,2.47,0,0,1,.11-.58c.27-1.14.57-2.29.92-3.42.1-.34.24-.67.35-1,.26-.79.52-1.57.82-2.35.18-.43.37-.85.54-1.26.29-.67.57-1.35.88-2,.22-.46.46-.9.7-1.34s.63-1.26,1-1.84.54-.89.82-1.33.52-.86.8-1.26h1.5l5.43,16.5-14.13,10.23-.82-.59v-1.8C277.8,136.78,277.9,136.36,277.94,135.87Z" style="fill:#ebebeb"></path><polygon points="308.14 134.06 326.74 120.53 345.34 134.06 338.24 155.92 315.25 155.92 308.14 134.06" style="fill:#ebebeb"></polygon><path d="M312.89,92.86l1.46-.4,1.59-.41c.57-.12,1.18-.22,1.77-.34s1.26-.24,1.84-.32.93-.12,1.4-.17c.74-.09,1.48-.19,2.22-.24h.42a53.78,53.78,0,0,1,6.22,0h.42a18.21,18.21,0,0,1,2.21.24,8.23,8.23,0,0,1,1.41.17c.47.07,1.26.21,1.84.32s1.26.22,1.79.34l1.57.41,1.54.4.25.78-14.1,10.22L312.68,93.64Z" style="fill:#ebebeb"></path><path d="M367.13,112.2c.3.44.59.88.86,1.32s.58.88.86,1.35.69,1.25,1,1.86.49.87.71,1.32c.35.69.67,1.4,1,2.12.17.39.36.78.53,1.17.42,1,.8,2.09,1.15,3.16a1.3,1.3,0,0,0,.13.36c.35,1.1.67,2.2.93,3.33.1.4.17.81.25,1.25.17.77.34,1.54.47,2.32.08.48.13,1,.19,1.46.1.71.2,1.42.26,2.14s.07,1,.1,1.58,0,1.05,0,1.58L375,139l-14-10.19h0l5.36-16.53Z" style="fill:#ebebeb"></path><path d="M410.71,356.38h-.06a34.44,34.44,0,0,1-10.51-1.64l-.22,0a35.16,35.16,0,0,1-24.49-33.38v-.19a35.25,35.25,0,0,1,63.93-20.5c.51.71,1,1.48,1.49,2.27.09.14.17.29.25.44l.15.27.37.67c.19.34.37.67.54,1s.23.49.34.74l.12.27c.22.46.51,1.07.66,1.43s.16.41.24.63.1.29.16.47l.06.15c.16.43.35.93.46,1.24s.14.47.21.73l.13.49c.15.5.28,1,.38,1.38s.13.57.19.86l.13.68c.08.37.15.74.21,1.09s.11.75.15,1.14l0,.2c.05.44.1.88.16,1.31a11.4,11.4,0,0,1,.06,1.41l0,.4c0,.31.05.61.05.92,0,.08,0,.22,0,.37a35,35,0,0,1-7.52,21.65c-.51.66-1.08,1.34-1.74,2.07-.4.44-.83.86-1.24,1.26l-.16.16a2.13,2.13,0,0,0-.21.22l-.27.27a35.18,35.18,0,0,1-7.9,5.58c-1.07.55-2.17,1.06-3.29,1.51-.82.32-1.64.61-2.52.89A35,35,0,0,1,410.71,356.38Zm0-1.64h0a33.68,33.68,0,0,0,9.87-1.48c.84-.27,1.63-.55,2.4-.85a34.21,34.21,0,0,0,3.14-1.45,33.06,33.06,0,0,0,7.53-5.31l.21-.21c.09-.09.17-.18.27-.27l.14-.15c.4-.38.8-.77,1.17-1.19.63-.69,1.18-1.34,1.66-2a33.4,33.4,0,0,0,7.19-20.71v-.24c0-.33,0-.59,0-.86s0-.3,0-.45v0a9.72,9.72,0,0,0-.05-1.22c-.06-.44-.1-.89-.15-1.33l0-.21c0-.36-.07-.69-.13-1s-.13-.69-.21-1l-.14-.71a7.37,7.37,0,0,0-.16-.76c-.1-.4-.22-.84-.35-1.26-.07-.26-.12-.43-.16-.6a5.25,5.25,0,0,0-.17-.6c-.11-.31-.29-.78-.44-1.2l-.06-.16c-.08-.19-.13-.35-.18-.5s-.12-.35-.2-.54c-.15-.35-.42-.92-.64-1.38l-.13-.29-.3-.67c-.16-.31-.33-.62-.51-.94s-.25-.44-.37-.67-.11-.19-.16-.3-.13-.24-.21-.36c-.46-.76-.94-1.49-1.42-2.16a33.44,33.44,0,0,0-32.49-13.67,34.21,34.21,0,0,0-5,1.16,33.48,33.48,0,0,0-23.47,32.05v.19a33.54,33.54,0,0,0,23.23,31.78l.23,0a32.79,32.79,0,0,0,10.12,1.59Z" style="fill:#ebebeb"></path><path d="M433.71,341.2l-.63.72c-.21.24-.63.65-.95,1l-.64.63c-.36.34-.74.65-1.11,1-.19.17-.38.34-.58.5-.53.42-1.07.79-1.63,1.21l-.16.13c-.62.42-1.25.78-1.89,1.19l-.62.33c-.44.25-.89.51-1.36.73l-.78.36c-.43.19-.85.38-1.27.55s-.59.21-.88.32-.64.23-1,.33l-.43-.31,3.35-10.33H434l.31.95Z" style="fill:#ebebeb"></path><path d="M400.86,350.07l-.95-.34c-.29-.11-.59-.21-.88-.33s-.84-.37-1.25-.56c-.26-.12-.53-.23-.78-.37-.45-.22-.89-.47-1.33-.71-.21-.12-.43-.23-.63-.36-.65-.37-1.27-.78-1.88-1.21l-.1-.08a16.72,16.72,0,0,1-1.68-1.26l-.55-.49a13.66,13.66,0,0,1-1.13-1c-.22-.2-.41-.41-.62-.62s-.65-.65-1-1-.41-.47-.62-.72l-.64-.79.3-.88H398l3.35,10.31Z" style="fill:#ebebeb"></path><path d="M380.18,318.64a11.59,11.59,0,0,1,.16-1.43,5.33,5.33,0,0,1,.1-.79c.09-.61.21-1.23.34-1.83a1.53,1.53,0,0,1,.07-.36c.17-.72.36-1.44.58-2.15.06-.21.15-.41.22-.62.16-.5.32-1,.51-1.48l.34-.78c.18-.42.35-.84.55-1.25s.28-.56.43-.84.39-.78.61-1.15.34-.55.51-.83.33-.54.5-.79H386l3.39,10.32-8.83,6.39-.51-.37v-1.13A8.5,8.5,0,0,1,380.18,318.64Z" style="fill:#ebebeb"></path><polygon points="399.05 317.51 410.67 309.06 422.3 317.51 417.86 331.17 403.49 331.17 399.05 317.51" style="fill:#ebebeb"></polygon><path d="M402,291.76l.91-.25,1-.25c.36-.08.74-.14,1.11-.21l1.15-.21.87-.1c.47-.06.93-.12,1.4-.15h.26a31.39,31.39,0,0,1,3.88,0h.26a10.74,10.74,0,0,1,1.39.15,5.16,5.16,0,0,1,.88.1l1.15.21c.36.07.78.13,1.11.21l1,.25,1,.25.15.49-8.81,6.39-8.79-6.39Z" style="fill:#ebebeb"></path><path d="M435.91,303.85l.55.82c.18.28.36.55.53.85s.43.78.65,1.16.3.54.44.83.41.87.6,1.32c.11.24.23.49.33.73.27.65.51,1.31.73,2a.7.7,0,0,0,.08.23c.22.69.41,1.38.58,2.08.06.25.1.51.16.79.1.48.21,1,.29,1.44,0,.3.08.61.11.92s.13.89.17,1.33,0,.66.06,1,0,.66,0,1l-.38.28L432,314.21h0l3.35-10.33Z" style="fill:#ebebeb"></path><path d="M189.69,114.1,180.14,112c-.88-.2-1.38,1.14-.49,1.34l6.95,1.54a.43.43,0,0,0-.16,0c-10.51,1.24-20.73,7.84-28.32,15-.67.63.23,1.73.9,1.1,7.43-7,17.37-13.47,27.66-14.69.78-.09.71-1.14.09-1.36l1.48.33-4.6,6.48a.71.71,0,0,0,1.16.83l5.22-7.36A.71.71,0,0,0,189.69,114.1Z" style="fill:#ebebeb"></path><path d="M250.07,125.22l-4.8-8.53c-.45-.79-1.77-.26-1.32.53q1.74,3.11,3.49,6.2l-.11-.12c-8-7-19.68-10.18-30.08-11-.91-.07-1.13,1.33-.21,1.41,10.16.85,21.63,3.92,29.41,10.76.59.52,1.33-.24,1.08-.84l.74,1.32-7.9.91a.71.71,0,0,0,.16,1.41l9-1C249.91,126.14,250.31,125.63,250.07,125.22Z" style="fill:#ebebeb"></path><path d="M221.67,135.36l-4.94-4.94,4.94-4.94a1,1,0,0,0-1.39-1.4L215.34,129q-2.47-2.46-4.94-4.94a1,1,0,0,0-1.4,1.4l4.94,4.94L209,135.36a1,1,0,0,0,1.4,1.4l4.94-4.95,4.94,4.95A1,1,0,0,0,221.67,135.36Z" style="fill:#ebebeb"></path><path d="M200.92,107c3.06.1,6.22,1.35,6.23,4.91a6.3,6.3,0,0,1-6.23,6.23c-8,0-8-12,0-12.45,1.26-.07,1.27-2,0-2a8.2,8.2,0,1,0,8.18,8.59c.22-4.85-3.84-7.14-8.18-7.28-1.26,0-1.26,1.93,0,2Z" style="fill:#ebebeb"></path><path d="M426.49,222l3.06-7.94c.28-.73-.8-1.33-1.09-.59l-2.22,5.77a.57.57,0,0,0,0-.13c.3-9.2-4.05-18.84-9.21-26.3-.45-.65-1.52,0-1.06.63,5,7.3,9.33,16.69,9,25.69,0,.69.89.76,1.16.26l-.48,1.23-5-4.8c-.58-.55-1.44.34-.86.89l5.64,5.44A.63.63,0,0,0,426.49,222Z" style="fill:#e0e0e0"></path><path d="M392.25,262.85l8.47.76c.79.07,1.07-1.14.27-1.21l-6.16-.55.14,0c8.92-2.25,17-9.09,22.73-16.1.5-.62-.39-1.47-.9-.85-5.62,6.86-13.47,13.57-22.19,15.77-.67.17-.49,1.07.07,1.19l-1.32-.12,3.24-6.11a.62.62,0,0,0-1.09-.58L391.84,262A.62.62,0,0,0,392.25,262.85Z" style="fill:#e0e0e0"></path><path d="M410.32,230.24l-4.3-4.3,4.3-4.29a.86.86,0,0,0-1.21-1.22l-4.3,4.3-4.3-4.3a.86.86,0,0,0-1.21,1.22l4.3,4.29-4.3,4.3a.86.86,0,0,0,1.21,1.21l4.3-4.29,4.3,4.29A.86.86,0,0,0,410.32,230.24Z" style="fill:#e0e0e0"></path><path d="M422.08,229.64c2.66.09,5.4,1.18,5.42,4.28a5.49,5.49,0,0,1-5.42,5.41c-7,0-6.93-10.45,0-10.83,1.1-.06,1.1-1.77,0-1.71a7.13,7.13,0,1,0,7.11,7.47c.19-4.21-3.33-6.2-7.11-6.33a.86.86,0,0,0,0,1.71Z" style="fill:#e0e0e0"></path><path d="M61.7,329.43q-.78,3.56-1.57,7.09c-.14.66.85,1,1,.36q.59-2.56,1.15-5.15v.12c.92,7.8,5.82,15.38,11.12,21,.47.5,1.29-.17.82-.67-5.19-5.51-10-12.89-10.9-20.52-.07-.58-.85-.53-1-.07l.24-1.1,4.81,3.42a.53.53,0,0,0,.62-.86l-5.46-3.88A.55.55,0,0,0,61.7,329.43Z" style="fill:#ebebeb"></path><path d="M77.48,305.7l-3.67,3.67-3.66-3.67a.74.74,0,0,0-1,1l3.67,3.67-3.67,3.66a.74.74,0,0,0,1,1l3.66-3.67,3.67,3.67a.74.74,0,0,0,1-1l-3.67-3.66,3.67-3.67A.74.74,0,0,0,77.48,305.7Z" style="fill:#ebebeb"></path><path d="M56.47,321.1c.07-2.27,1-4.61,3.64-4.62a4.67,4.67,0,0,1,4.62,4.62c0,6-8.92,5.92-9.24,0-.05-.93-1.51-.94-1.46,0a6.08,6.08,0,0,0,12.16,0A6.12,6.12,0,0,0,60.41,315c-3.6-.17-5.3,2.84-5.4,6.06,0,.94,1.42.94,1.46,0Z" style="fill:#ebebeb"></path></g><g id="freepik--Shadow--inject-3"><ellipse id="freepik--path--inject-3" cx="245.18" cy="412.39" rx="193.89" ry="11.32" style="fill:#f5f5f5"></ellipse></g><g id="freepik--Banner--inject-3"><polygon points="389.13 184.57 111.39 184.57 120.81 151.69 398.56 151.69 389.13 184.57" style="fill:#263238"></polygon><polygon points="387.13 181.64 109.39 181.64 118.81 148.76 396.56 148.76 387.13 181.64" style="fill:#407BFF"></polygon></g><g id="freepik--Text--inject-3"><g style="opacity:0.9"><path d="M179.62,158.73V173h-3.31V161.38h-2.86v-2.65Z" style="fill:#407BFF"></path><path d="M183.32,168.51a4.72,4.72,0,0,1-1.64-.77l.72-1.6a5.16,5.16,0,0,0,1.41.7,5.39,5.39,0,0,0,1.63.26,2.61,2.61,0,0,0,1.34-.27.81.81,0,0,0,.43-.71.69.69,0,0,0-.26-.55,2.11,2.11,0,0,0-.65-.35c-.27-.08-.63-.18-1.09-.29a13.35,13.35,0,0,1-1.72-.5,2.76,2.76,0,0,1-1.15-.8,2.13,2.13,0,0,1-.48-1.47,2.55,2.55,0,0,1,.44-1.45,2.88,2.88,0,0,1,1.31-1,5.37,5.37,0,0,1,2.13-.38,7,7,0,0,1,1.72.21,5.15,5.15,0,0,1,1.47.6l-.66,1.62a5.11,5.11,0,0,0-2.54-.72,2.31,2.31,0,0,0-1.32.29.86.86,0,0,0-.43.76.74.74,0,0,0,.49.7,8.09,8.09,0,0,0,1.51.45,17.6,17.6,0,0,1,1.72.5,2.93,2.93,0,0,1,1.15.79,2.11,2.11,0,0,1,.48,1.46,2.57,2.57,0,0,1-.44,1.44,3.1,3.1,0,0,1-1.32,1,5.51,5.51,0,0,1-2.15.38A7.35,7.35,0,0,1,183.32,168.51Z" style="fill:#407BFF"></path><path d="M192.56,161.19h-2.95v-1.73h8v1.73h-2.94v7.46h-2.12Z" style="fill:#407BFF"></path><path d="M218.27,158.73V173H215v-5.87h-6.49V173h-3.31v-14.3h3.31v5.64H215v-5.64Z" style="fill:#407BFF"></path><path d="M231.08,170h-6.64L223.17,173h-3.39l6.38-14.3h3.27l6.39,14.3h-3.47Zm-1-2.51L227.77,162l-2.27,5.47Z" style="fill:#407BFF"></path><path d="M237.31,158.73h3.31v11.6h7.17V173H237.31Z" style="fill:#407BFF"></path><path d="M253,161.38v3.78h6.62v2.66H253V173h-3.31v-14.3h10.81v2.65Z" style="fill:#407BFF"></path><path d="M269,172.68a20.94,20.94,0,0,1,0-10.51,14.42,14.42,0,0,1,1.89-4.3h3a18.65,18.65,0,0,0-1.88,4.61,21.06,21.06,0,0,0,0,9.9,18.65,18.65,0,0,0,1.88,4.61h-3A14.59,14.59,0,0,1,269,172.68Z" style="fill:#407BFF"></path><path d="M287.57,170h-2.33v3H282v-3h-7.7V167.8l6.74-9.07h3.48l-6.26,8.6h3.85v-2.68h3.12v2.68h2.33Z" style="fill:#407BFF"></path><path d="M289,166h5.78v2.55H289Z" style="fill:#407BFF"></path><path d="M305.79,166a3.85,3.85,0,0,1,1,2.71,4.2,4.2,0,0,1-.65,2.29,4.52,4.52,0,0,1-2,1.69,7.68,7.68,0,0,1-3.28.63,11.42,11.42,0,0,1-3-.39,7.84,7.84,0,0,1-2.49-1.14l1.29-2.53a6.45,6.45,0,0,0,1.89.95,7.48,7.48,0,0,0,2.2.34,3.48,3.48,0,0,0,2-.49,1.52,1.52,0,0,0,.71-1.35c0-1.18-.89-1.76-2.67-1.76h-1.51v-2.19l2.94-3.33h-6.09v-2.65h10v2.14l-3.23,3.68A4.77,4.77,0,0,1,305.79,166Z" style="fill:#407BFF"></path><path d="M308.59,166h5.78v2.55h-5.78Z" style="fill:#407BFF"></path><path d="M325.37,166a3.89,3.89,0,0,1,1,2.71,4.21,4.21,0,0,1-.66,2.29,4.47,4.47,0,0,1-2,1.69,7.68,7.68,0,0,1-3.28.63,11.42,11.42,0,0,1-3-.39,7.68,7.68,0,0,1-2.48-1.14l1.28-2.53a6.45,6.45,0,0,0,1.89.95,7.48,7.48,0,0,0,2.2.34,3.48,3.48,0,0,0,2-.49,1.53,1.53,0,0,0,.72-1.35c0-1.18-.9-1.76-2.68-1.76h-1.51v-2.19l2.94-3.33H315.7v-2.65h10v2.14l-3.23,3.68A4.8,4.8,0,0,1,325.37,166Z" style="fill:#407BFF"></path><path d="M327.31,177a19.49,19.49,0,0,0,1.89-4.61,20.72,20.72,0,0,0,0-9.9,19.49,19.49,0,0,0-1.89-4.61h3a13.86,13.86,0,0,1,1.91,4.28,20.31,20.31,0,0,1,.66,5.28,20.11,20.11,0,0,1-.65,5.26,14.19,14.19,0,0,1-1.92,4.3Z" style="fill:#407BFF"></path></g><g style="opacity:0.75"><path d="M179.62,158.73V173h-3.31V161.38h-2.86v-2.65Z" style="fill:#fff"></path><path d="M183.32,168.51a4.72,4.72,0,0,1-1.64-.77l.72-1.6a5.16,5.16,0,0,0,1.41.7,5.39,5.39,0,0,0,1.63.26,2.61,2.61,0,0,0,1.34-.27.81.81,0,0,0,.43-.71.69.69,0,0,0-.26-.55,2.11,2.11,0,0,0-.65-.35c-.27-.08-.63-.18-1.09-.29a13.35,13.35,0,0,1-1.72-.5,2.76,2.76,0,0,1-1.15-.8,2.13,2.13,0,0,1-.48-1.47,2.55,2.55,0,0,1,.44-1.45,2.88,2.88,0,0,1,1.31-1,5.37,5.37,0,0,1,2.13-.38,7,7,0,0,1,1.72.21,5.15,5.15,0,0,1,1.47.6l-.66,1.62a5.11,5.11,0,0,0-2.54-.72,2.31,2.31,0,0,0-1.32.29.86.86,0,0,0-.43.76.74.74,0,0,0,.49.7,8.09,8.09,0,0,0,1.51.45,17.6,17.6,0,0,1,1.72.5,2.93,2.93,0,0,1,1.15.79,2.11,2.11,0,0,1,.48,1.46,2.57,2.57,0,0,1-.44,1.44,3.1,3.1,0,0,1-1.32,1,5.51,5.51,0,0,1-2.15.38A7.35,7.35,0,0,1,183.32,168.51Z" style="fill:#fff"></path><path d="M192.56,161.19h-2.95v-1.73h8v1.73h-2.94v7.46h-2.12Z" style="fill:#fff"></path><path d="M218.27,158.73V173H215v-5.87h-6.49V173h-3.31v-14.3h3.31v5.64H215v-5.64Z" style="fill:#fff"></path><path d="M231.08,170h-6.64L223.17,173h-3.39l6.38-14.3h3.27l6.39,14.3h-3.47Zm-1-2.51L227.77,162l-2.27,5.47Z" style="fill:#fff"></path><path d="M237.31,158.73h3.31v11.6h7.17V173H237.31Z" style="fill:#fff"></path><path d="M253,161.38v3.78h6.62v2.66H253V173h-3.31v-14.3h10.81v2.65Z" style="fill:#fff"></path><path d="M269,172.68a20.94,20.94,0,0,1,0-10.51,14.42,14.42,0,0,1,1.89-4.3h3a18.65,18.65,0,0,0-1.88,4.61,21.06,21.06,0,0,0,0,9.9,18.65,18.65,0,0,0,1.88,4.61h-3A14.59,14.59,0,0,1,269,172.68Z" style="fill:#fff"></path><path d="M287.57,170h-2.33v3H282v-3h-7.7V167.8l6.74-9.07h3.48l-6.26,8.6h3.85v-2.68h3.12v2.68h2.33Z" style="fill:#fff"></path><path d="M289,166h5.78v2.55H289Z" style="fill:#fff"></path><path d="M305.79,166a3.85,3.85,0,0,1,1,2.71,4.2,4.2,0,0,1-.65,2.29,4.52,4.52,0,0,1-2,1.69,7.68,7.68,0,0,1-3.28.63,11.42,11.42,0,0,1-3-.39,7.84,7.84,0,0,1-2.49-1.14l1.29-2.53a6.45,6.45,0,0,0,1.89.95,7.48,7.48,0,0,0,2.2.34,3.48,3.48,0,0,0,2-.49,1.52,1.52,0,0,0,.71-1.35c0-1.18-.89-1.76-2.67-1.76h-1.51v-2.19l2.94-3.33h-6.09v-2.65h10v2.14l-3.23,3.68A4.77,4.77,0,0,1,305.79,166Z" style="fill:#fff"></path><path d="M308.59,166h5.78v2.55h-5.78Z" style="fill:#fff"></path><path d="M325.37,166a3.89,3.89,0,0,1,1,2.71,4.21,4.21,0,0,1-.66,2.29,4.47,4.47,0,0,1-2,1.69,7.68,7.68,0,0,1-3.28.63,11.42,11.42,0,0,1-3-.39,7.68,7.68,0,0,1-2.48-1.14l1.28-2.53a6.45,6.45,0,0,0,1.89.95,7.48,7.48,0,0,0,2.2.34,3.48,3.48,0,0,0,2-.49,1.53,1.53,0,0,0,.72-1.35c0-1.18-.9-1.76-2.68-1.76h-1.51v-2.19l2.94-3.33H315.7v-2.65h10v2.14l-3.23,3.68A4.8,4.8,0,0,1,325.37,166Z" style="fill:#fff"></path><path d="M327.31,177a19.49,19.49,0,0,0,1.89-4.61,20.72,20.72,0,0,0,0-9.9,19.49,19.49,0,0,0-1.89-4.61h3a13.86,13.86,0,0,1,1.91,4.28,20.31,20.31,0,0,1,.66,5.28,20.11,20.11,0,0,1-.65,5.26,14.19,14.19,0,0,1-1.92,4.3Z" style="fill:#fff"></path></g></g><g id="freepik--Shield--inject-3"><path d="M127.64,172.18a16.75,16.75,0,0,1-33.5,0V145.93h33.5Z" style="fill:#407BFF"></path><path d="M127.64,172.18a16.75,16.75,0,0,1-33.5,0V145.93h33.5Z" style="opacity:0.30000000000000004"></path><path d="M124.64,154.81H97.14v17.37a13.75,13.75,0,0,0,27.5,0Z" style="fill:#fff;opacity:0.6000000000000001"></path><rect x="97.14" y="148.68" width="27.5" height="4.17" rx="1.74" style="fill:#fff;opacity:0.6000000000000001"></rect><path d="M115.44,179.21,114.22,183l.16.12.35-.12.32-.12.46-.2.28-.13.5-.26.22-.12c.23-.15.46-.28.69-.44l.06,0c.2-.16.4-.29.59-.44l.21-.19.4-.35a2.45,2.45,0,0,0,.23-.23c.12-.11.27-.26.35-.35s.15-.17.23-.26l.23-.27-.11-.35Z" style="fill:#407BFF"></path><path d="M106.25,179.16h-3.9l-.1.32.23.29.22.26.35.36.23.22a4.89,4.89,0,0,0,.41.37l.2.17a5.13,5.13,0,0,0,.61.46l0,0a6.07,6.07,0,0,0,.68.44,1.71,1.71,0,0,0,.23.13l.48.26.29.14.45.2.32.12.34.12.18-.14-1.21-3.75Z" style="fill:#407BFF"></path><path d="M102,166.44h-.34l-.18.28c-.07.1-.11.18-.19.31s-.17.32-.22.42l-.16.3-.2.45-.12.29c-.07.18-.13.35-.19.53a2.09,2.09,0,0,1-.08.23q-.12.39-.21.78a.59.59,0,0,0,0,.13c-.05.22-.09.44-.13.67a2.66,2.66,0,0,0,0,.28,4.88,4.88,0,0,0-.06.52c0,.11,0,.21,0,.33v.41l.18.14,3.21-2.32Z" style="fill:#407BFF"></path><polygon points="107.7 171.45 108.93 175.21 112.87 175.21 114.09 171.45 110.9 169.13 107.7 171.45" style="fill:#407BFF"></polygon><path d="M113.69,161.78l-.35-.09-.41-.08-.42-.08a3.16,3.16,0,0,0-.32,0,4,4,0,0,0-.5-.06h-.09a11.21,11.21,0,0,0-1.42,0h-.09c-.17,0-.34,0-.51.06l-.31,0-.42.08-.4.08-.36.09-.34.09,0,.18,3.19,2.32,3.2-2.32-.06-.18Z" style="fill:#407BFF"></path><path d="M122,171.88c0-.12,0-.2,0-.36a4.1,4.1,0,0,0-.06-.49c0-.11,0-.22,0-.33s-.07-.35-.11-.52,0-.2,0-.29c-.06-.26-.13-.51-.21-.76a.19.19,0,0,1,0-.08q-.12-.36-.27-.72c0-.08-.08-.17-.12-.26a5.11,5.11,0,0,0-.22-.48,2.31,2.31,0,0,0-.16-.3l-.23-.43-.19-.3-.2-.3h-.2L118.66,170l3.19,2.32.14-.1Z" style="fill:#407BFF"></path><g style="opacity:0.9"><path d="M121.6,173.24l-3.35-2.44-3.29.85-1.34,4.14a.31.31,0,0,1-.05.1l1.73,2.43h4.41a.45.45,0,0,1,.42.31l0,.05a11,11,0,0,0,1.83-5.37A.43.43,0,0,1,121.6,173.24Z" style="fill:#fff"></path><path d="M108.11,175.58l-1.27-3.91-3.23-.71-3.36,2.45a.45.45,0,0,1-.26.08l-.15,0a11,11,0,0,0,1.77,5.15v0a.44.44,0,0,1,.43-.3h4.13l1.92-2.68A0,0,0,0,1,108.11,175.58Z" style="fill:#fff"></path><path d="M117.73,170l1.4-4.34a.44.44,0,0,1,.29-.29v0a11.15,11.15,0,0,0-4.36-3.16.42.42,0,0,1-.19.35l-3.5,2.55v3.26l3.34,2.44Z" style="fill:#fff"></path><path d="M102.7,165.85l1.39,4.31,3,.66,3.4-2.48v-3.18l-3.56-2.59a.44.44,0,0,1-.18-.35,11.19,11.19,0,0,0-4.49,3.32h0A.45.45,0,0,1,102.7,165.85Z" style="fill:#fff"></path><path d="M114.61,178.88l-2-2.77v0H108.8v0L107,178.59l1.43,4.36a.46.46,0,0,1-.07.41,11.28,11.28,0,0,0,4.94,0,.46.46,0,0,1,0-.38Z" style="fill:#fff"></path></g></g><g id="freepik--Field--inject-3"><rect x="89.42" y="368.74" width="323.2" height="16" style="fill:#407BFF"></rect><polygon points="344.62 218.34 157.42 218.34 89.42 368.74 412.62 368.74 344.62 218.34" style="fill:#407BFF"></polygon><polygon points="344.62 218.34 157.42 218.34 89.42 368.74 412.62 368.74 344.62 218.34" style="fill:#fff;opacity:0.30000000000000004"></polygon><g style="opacity:0.2"><polygon points="135.9 265.94 366.14 265.94 357.1 245.94 144.94 245.94 135.9 265.94" style="fill:#fff"></polygon><polygon points="383.14 303.54 374.1 283.54 127.94 283.54 118.9 303.54 383.14 303.54" style="fill:#fff"></polygon><polygon points="400.14 341.13 391.1 321.13 110.94 321.13 101.9 341.13 400.14 341.13" style="fill:#fff"></polygon></g><path d="M149.71,368.74,170.26,293H331.78l20.55,75.77h1.24l-20.76-76.53-.12-.44h-37c-.75-9.93-20.09-17.62-44.66-17.62s-43.91,7.69-44.66,17.62h-37l-20.88,77ZM251,275.35c23.47,0,42.66,7.31,43.47,16.42H207.55C208.36,282.66,227.55,275.35,251,275.35Z" style="fill:#407BFF"></path><polygon points="204.66 331.19 199.56 368.74 200.77 368.74 205.7 332.39 296.34 332.39 301.27 368.74 302.48 368.74 297.38 331.19 204.66 331.19" style="fill:#407BFF"></polygon><path d="M154.39,225h58.05c.66,7.51,17.36,13.33,38.58,13.33s37.92-5.82,38.58-13.33h58l-.42-.92H289.59c-.19-2-1.56-4-4-5.77H283.9c2.92,1.79,4.54,3.77,4.76,5.77H213.38c.22-2,1.84-4,4.76-5.77h-1.65c-2.48,1.77-3.85,3.74-4,5.77H154.81Zm134.28,0c-.71,6.88-17.32,12.41-37.65,12.41s-36.94-5.53-37.65-12.41Z" style="fill:#407BFF"></path><path d="M154.39,225h58.05c.66,7.51,17.36,13.33,38.58,13.33s37.92-5.82,38.58-13.33h58l-.42-.92H289.59c-.19-2-1.56-4-4-5.77H283.9c2.92,1.79,4.54,3.77,4.76,5.77H213.38c.22-2,1.84-4,4.76-5.77h-1.65c-2.48,1.77-3.85,3.74-4,5.77H154.81Zm134.28,0c-.71,6.88-17.32,12.41-37.65,12.41s-36.94-5.53-37.65-12.41Z" style="fill:#fff;opacity:0.6000000000000001"></path><g style="opacity:0.6000000000000001"><path d="M149.71,368.74,170.26,293H331.78l20.55,75.77h1.24l-20.76-76.53-.12-.44h-37c-.75-9.93-20.09-17.62-44.66-17.62s-43.91,7.69-44.66,17.62h-37l-20.88,77ZM251,275.35c23.47,0,42.66,7.31,43.47,16.42H207.55C208.36,282.66,227.55,275.35,251,275.35Z" style="fill:#fff"></path><polygon points="204.66 331.19 199.56 368.74 200.77 368.74 205.7 332.39 296.34 332.39 301.27 368.74 302.48 368.74 297.38 331.19 204.66 331.19" style="fill:#fff"></polygon></g></g><g id="freepik--T-shirts--inject-3"><path d="M243.77,334.59c-1,.9-1,3.28-1,3.28H239.1c-.06-9.19,2.73-9.74,2.73-9.74l1.12,1.74.82,3.13Z" style="fill:#407BFF"></path><path d="M243.77,334.59c-1,.9-1,3.28-1,3.28H239.1c-.06-9.19,2.73-9.74,2.73-9.74l1.12,1.74.82,3.13Z" style="fill:#fff;opacity:0.9"></path><path d="M242.84,337.15l-3.73-.19c0,.3,0,.59,0,.91h3.69S242.8,337.57,242.84,337.15Z" style="fill:#407BFF"></path><path d="M242.84,337.15l-3.73-.19c0,.3,0,.59,0,.91h3.69S242.8,337.57,242.84,337.15Z" style="fill:#fff;opacity:0.7000000000000001"></path><path d="M258.28,334.59c1,.9,1,3.28,1,3.28H263c.06-9.19-2.72-9.74-2.72-9.74l-2,3.45Z" style="fill:#407BFF"></path><path d="M258.28,334.59c1,.9,1,3.28,1,3.28H263c.06-9.19-2.72-9.74-2.72-9.74l-2,3.45Z" style="fill:#fff;opacity:0.9"></path><path d="M259.21,337.15l3.73-.19c0,.3,0,.59,0,.91h-3.69A6.75,6.75,0,0,0,259.21,337.15Z" style="fill:#407BFF"></path><path d="M259.21,337.15l3.73-.19c0,.3,0,.59,0,.91h-3.69A6.75,6.75,0,0,0,259.21,337.15Z" style="fill:#fff;opacity:0.7000000000000001"></path><path d="M260.29,328.13,251.14,326h-.25l-9.15,2.13s4.23,8,2,23.48c0,0,2.38,1.81,7.1,1.81h.25c4.72,0,7.09-1.81,7.09-1.81C256.06,336.12,260.29,328.13,260.29,328.13Z" style="fill:#407BFF"></path><path d="M260.29,328.13,251.14,326h-.25l-9.15,2.13s4.23,8,2,23.48c0,0,2.38,1.81,7.1,1.81h.25c4.72,0,7.09-1.81,7.09-1.81C256.06,336.12,260.29,328.13,260.29,328.13Z" style="opacity:0.8"></path><path d="M242.31,329.49c.08.2.16.43.25.69a23.7,23.7,0,0,0,6.17-2.37l-.37-.62A23.62,23.62,0,0,1,242.31,329.49Z" style="fill:#407BFF"></path><path d="M253.67,327.19l-.37.62a23.7,23.7,0,0,0,6.17,2.37c.09-.26.17-.49.25-.69A23.38,23.38,0,0,1,253.67,327.19Z" style="fill:#407BFF"></path><g style="opacity:0.2"><path d="M242.31,329.49c.08.2.16.43.25.69a23.7,23.7,0,0,0,6.17-2.37l-.37-.62A23.62,23.62,0,0,1,242.31,329.49Z"></path><path d="M253.67,327.19l-.37.62a23.7,23.7,0,0,0,6.17,2.37c.09-.26.17-.49.25-.69A23.38,23.38,0,0,1,253.67,327.19Z"></path></g><path d="M247.88,325.23h6.3l0,1.38-1.09,1.07-2.12.53s-.32,1-1.68-.38L248,326.4l-.13-.71Z" style="fill:#407BFF"></path><path d="M247.88,325.23h6.3l0,1.38-1.09,1.07-2.12.53s-.32,1-1.68-.38L248,326.4l-.13-.71Z" style="fill:#fff;opacity:0.7000000000000001"></path><path d="M247.88,325.23h6.3l0,1.38-1.09,1.07-2.12.53s-.32,1-1.68-.38L248,326.4l-.13-.71Z" style="opacity:0.4"></path><path d="M251.36,328.9c2.1,0,3.5-2.09,3.5-2.09l-.68-1.58a4.55,4.55,0,0,1-2.82,2.4h-.66a4.57,4.57,0,0,1-2.82-2.4l-.67,1.58a4.8,4.8,0,0,0,3.49,2.09Z" style="fill:#407BFF"></path><path d="M253.05,333.56l-1.72,8.63h-2l1.41-7H249l.32-1.6Z" style="fill:#fff"></path><path d="M261.21,354.32H240.84a1.84,1.84,0,0,0,0,3.67h20.37a1.84,1.84,0,1,0,0-3.67Z" style="fill:#407BFF"></path><path d="M261.21,354.32H240.84a1.84,1.84,0,0,0,0,3.67h20.37a1.84,1.84,0,1,0,0-3.67Z" style="fill:#fff;opacity:0.9"></path><path d="M261.35,362.43c0,1.17-4.62,2.13-10.32,2.13s-10.32-1-10.32-2.13,4.62-2.13,10.32-2.13S261.35,361.25,261.35,362.43Z" style="opacity:0.2"></path><path d="M137.74,303.61c-1,.89-1,3.28-1,3.28h-3.69c-.06-9.2,2.72-9.74,2.72-9.74l1.12,1.73.83,3.14Z" style="fill:#407BFF"></path><path d="M137.74,303.61c-1,.89-1,3.28-1,3.28h-3.69c-.06-9.2,2.72-9.74,2.72-9.74l1.12,1.73.83,3.14Z" style="fill:#fff;opacity:0.9"></path><path d="M136.81,306.16l-3.73-.19c0,.3,0,.59,0,.92h3.69A7,7,0,0,1,136.81,306.16Z" style="fill:#407BFF"></path><path d="M136.81,306.16l-3.73-.19c0,.3,0,.59,0,.92h3.69A7,7,0,0,1,136.81,306.16Z" style="fill:#fff;opacity:0.7000000000000001"></path><path d="M152.25,303.61c.95.89,1,3.28,1,3.28h3.69c.07-9.2-2.72-9.74-2.72-9.74l-1.94,3.45Z" style="fill:#407BFF"></path><path d="M152.25,303.61c.95.89,1,3.28,1,3.28h3.69c.07-9.2-2.72-9.74-2.72-9.74l-1.94,3.45Z" style="fill:#fff;opacity:0.9"></path><path d="M153.17,306.16l3.73-.19c0,.3,0,.59,0,.92h-3.69A7,7,0,0,0,153.17,306.16Z" style="fill:#407BFF"></path><path d="M153.17,306.16l3.73-.19c0,.3,0,.59,0,.92h-3.69A7,7,0,0,0,153.17,306.16Z" style="fill:#fff;opacity:0.7000000000000001"></path><path d="M154.25,297.15,145.1,295h-.25l-9.15,2.14s4.24,8,2.06,23.47c0,0,2.37,1.82,7.09,1.82h.25c4.72,0,7.1-1.82,7.1-1.82C150,305.13,154.25,297.15,154.25,297.15Z" style="fill:#407BFF"></path><path d="M154.25,297.15,145.1,295h-.25l-9.15,2.14s4.24,8,2.06,23.47c0,0,2.37,1.82,7.09,1.82h.25c4.72,0,7.1-1.82,7.1-1.82C150,305.13,154.25,297.15,154.25,297.15Z" style="fill:#fff;opacity:0.8"></path><path d="M136.28,298.5l.24.69a23.47,23.47,0,0,0,6.17-2.36l-.37-.63A23.34,23.34,0,0,1,136.28,298.5Z" style="fill:#407BFF"></path><path d="M147.63,296.2l-.36.63a23.34,23.34,0,0,0,6.17,2.36c.08-.25.16-.49.24-.69A23.38,23.38,0,0,1,147.63,296.2Z" style="fill:#407BFF"></path><g style="opacity:0.2"><path d="M136.28,298.5l.24.69a23.47,23.47,0,0,0,6.17-2.36l-.37-.63A23.34,23.34,0,0,1,136.28,298.5Z"></path><path d="M147.63,296.2l-.36.63a23.34,23.34,0,0,0,6.17,2.36c.08-.25.16-.49.24-.69A23.38,23.38,0,0,1,147.63,296.2Z"></path></g><path d="M141.84,294.24h6.31l0,1.38-1.09,1.08-2.11.52s-.33,1-1.69-.38l-1.36-1.43-.13-.71Z" style="fill:#407BFF"></path><path d="M141.84,294.24h6.31l0,1.38-1.09,1.08-2.11.52s-.33,1-1.69-.38l-1.36-1.43-.13-.71Z" style="fill:#fff;opacity:0.7000000000000001"></path><path d="M141.84,294.24h6.31l0,1.38-1.09,1.08-2.11.52s-.33,1-1.69-.38l-1.36-1.43-.13-.71Z" style="opacity:0.4"></path><path d="M145.33,297.91a4.8,4.8,0,0,0,3.49-2.09l-.67-1.58a4.57,4.57,0,0,1-2.82,2.4h-.67a4.57,4.57,0,0,1-2.82-2.4l-.67,1.58a4.8,4.8,0,0,0,3.49,2.09Z" style="fill:#407BFF"></path><path d="M144.58,302.12l-1.72,8.62h-2l1.41-7h-1.73l.32-1.6Z" style="fill:#407BFF"></path><path d="M149.41,302.12l-1.72,8.62h-2l1.41-7h-1.73l.32-1.6Z" style="fill:#407BFF"></path><path d="M154.77,324.08H134.4a1.84,1.84,0,1,0,0,3.67h20.37a1.84,1.84,0,0,0,0-3.67Z" style="fill:#407BFF"></path><path d="M154.77,324.08H134.4a1.84,1.84,0,1,0,0,3.67h20.37a1.84,1.84,0,0,0,0-3.67Z" style="fill:#fff;opacity:0.9"></path><path d="M154.9,332.19c0,1.17-4.62,2.12-10.32,2.12s-10.32-.95-10.32-2.12,4.62-2.13,10.32-2.13S154.9,331,154.9,332.19Z" style="opacity:0.2"></path><path d="M203.2,306.51c-.95.9-1,3.28-1,3.28h-3.69c-.06-9.19,2.73-9.74,2.73-9.74l1.12,1.74.82,3.13Z" style="fill:#407BFF"></path><path d="M203.2,306.51c-.95.9-1,3.28-1,3.28h-3.69c-.06-9.19,2.73-9.74,2.73-9.74l1.12,1.74.82,3.13Z" style="fill:#fff;opacity:0.9"></path><path d="M202.27,309.06l-3.72-.18c0,.3,0,.59,0,.91h3.69S202.23,309.49,202.27,309.06Z" style="fill:#407BFF"></path><path d="M202.27,309.06l-3.72-.18c0,.3,0,.59,0,.91h3.69S202.23,309.49,202.27,309.06Z" style="fill:#fff;opacity:0.7000000000000001"></path><path d="M217.71,306.51c1,.9,1,3.28,1,3.28h3.69c.06-9.19-2.72-9.74-2.72-9.74l-1.95,3.45Z" style="fill:#407BFF"></path><path d="M217.71,306.51c1,.9,1,3.28,1,3.28h3.69c.06-9.19-2.72-9.74-2.72-9.74l-1.95,3.45Z" style="fill:#fff;opacity:0.9"></path><path d="M218.64,309.06l3.73-.18c0,.3,0,.59,0,.91h-3.69A7,7,0,0,0,218.64,309.06Z" style="fill:#407BFF"></path><path d="M218.64,309.06l3.73-.18c0,.3,0,.59,0,.91h-3.69A7,7,0,0,0,218.64,309.06Z" style="fill:#fff;opacity:0.7000000000000001"></path><path d="M219.72,300.05l-9.15-2.14h-.25l-9.15,2.14s4.23,8,2.06,23.47c0,0,2.37,1.82,7.09,1.82h.25c4.72,0,7.09-1.82,7.09-1.82C215.49,308,219.72,300.05,219.72,300.05Z" style="fill:#407BFF"></path><path d="M219.72,300.05l-9.15-2.14h-.25l-9.15,2.14s4.23,8,2.06,23.47c0,0,2.37,1.82,7.09,1.82h.25c4.72,0,7.09-1.82,7.09-1.82C215.49,308,219.72,300.05,219.72,300.05Z" style="fill:#fff;opacity:0.8"></path><path d="M201.74,301.4c.08.21.16.44.25.69a23.6,23.6,0,0,0,6.17-2.36l-.37-.63A22.88,22.88,0,0,1,201.74,301.4Z" style="fill:#407BFF"></path><path d="M213.1,299.1l-.37.63a23.6,23.6,0,0,0,6.17,2.36c.09-.25.17-.48.25-.69A23,23,0,0,1,213.1,299.1Z" style="fill:#407BFF"></path><g style="opacity:0.2"><path d="M201.74,301.4c.08.21.16.44.25.69a23.6,23.6,0,0,0,6.17-2.36l-.37-.63A22.88,22.88,0,0,1,201.74,301.4Z"></path><path d="M213.1,299.1l-.37.63a23.6,23.6,0,0,0,6.17,2.36c.09-.25.17-.48.25-.69A23,23,0,0,1,213.1,299.1Z"></path></g><path d="M207.31,297.15h6.3l0,1.37-1.09,1.08-2.11.52s-.33,1.05-1.69-.38l-1.36-1.42-.13-.72Z" style="fill:#407BFF"></path><path d="M207.31,297.15h6.3l0,1.37-1.09,1.08-2.11.52s-.33,1.05-1.69-.38l-1.36-1.42-.13-.72Z" style="fill:#fff;opacity:0.7000000000000001"></path><path d="M207.31,297.15h6.3l0,1.37-1.09,1.08-2.11.52s-.33,1.05-1.69-.38l-1.36-1.42-.13-.72Z" style="opacity:0.4"></path><path d="M210.79,300.82c2.1,0,3.5-2.09,3.5-2.09l-.68-1.58a4.59,4.59,0,0,1-2.82,2.4h-.66a4.61,4.61,0,0,1-2.82-2.4l-.67,1.58a4.8,4.8,0,0,0,3.49,2.09Z" style="fill:#407BFF"></path><path d="M210.44,306.55l-.47,1.64h.52a4,4,0,0,1,2.41.61,2.06,2.06,0,0,1,.82,1.75,2.8,2.8,0,0,1-.51,1.67,3.16,3.16,0,0,1-1.41,1.11,5.16,5.16,0,0,1-2.07.39,5.93,5.93,0,0,1-1.78-.26,3.93,3.93,0,0,1-1.39-.74l1-1.46a3.36,3.36,0,0,0,1,.57,4,4,0,0,0,1.29.21,2.42,2.42,0,0,0,1.37-.32,1.06,1.06,0,0,0,.48-.93q0-1-1.68-1h-2.34l1.41-4.85h5.27l-.33,1.6Z" style="fill:#407BFF"></path><path d="M220.63,327H200.26a1.83,1.83,0,1,0,0,3.66h20.37a1.83,1.83,0,1,0,0-3.66Z" style="fill:#407BFF"></path><path d="M220.63,327H200.26a1.83,1.83,0,1,0,0,3.66h20.37a1.83,1.83,0,1,0,0-3.66Z" style="fill:#fff;opacity:0.9"></path><path d="M220.76,335.09c0,1.18-4.62,2.13-10.31,2.13s-10.32-1-10.32-2.13,4.62-2.13,10.32-2.13S220.76,333.92,220.76,335.09Z" style="opacity:0.2"></path><path d="M283.71,307c-1,.9-1,3.28-1,3.28H279c-.06-9.19,2.73-9.74,2.73-9.74l1.12,1.74.82,3.13Z" style="fill:#407BFF"></path><path d="M283.71,307c-1,.9-1,3.28-1,3.28H279c-.06-9.19,2.73-9.74,2.73-9.74l1.12,1.74.82,3.13Z" style="fill:#fff;opacity:0.9"></path><path d="M282.78,309.51l-3.73-.19c0,.3,0,.59,0,.91h3.69S282.74,309.93,282.78,309.51Z" style="fill:#407BFF"></path><path d="M282.78,309.51l-3.73-.19c0,.3,0,.59,0,.91h3.69S282.74,309.93,282.78,309.51Z" style="fill:#fff;opacity:0.7000000000000001"></path><path d="M298.22,307c1,.9,1,3.28,1,3.28h3.69c.06-9.19-2.72-9.74-2.72-9.74l-1.95,3.45Z" style="fill:#407BFF"></path><path d="M298.22,307c1,.9,1,3.28,1,3.28h3.69c.06-9.19-2.72-9.74-2.72-9.74l-1.95,3.45Z" style="fill:#fff;opacity:0.9"></path><path d="M299.15,309.51l3.73-.19c0,.3,0,.59,0,.91H299.2A6.75,6.75,0,0,0,299.15,309.51Z" style="fill:#407BFF"></path><path d="M299.15,309.51l3.73-.19c0,.3,0,.59,0,.91H299.2A6.75,6.75,0,0,0,299.15,309.51Z" style="fill:#fff;opacity:0.7000000000000001"></path><path d="M300.23,300.49l-9.15-2.13h-.25l-9.15,2.13s4.23,8,2.05,23.48c0,0,2.38,1.81,7.1,1.81h.25c4.72,0,7.09-1.81,7.09-1.81C296,308.48,300.23,300.49,300.23,300.49Z" style="fill:#407BFF"></path><path d="M300.23,300.49l-9.15-2.13h-.25l-9.15,2.13s4.23,8,2.05,23.48c0,0,2.38,1.81,7.1,1.81h.25c4.72,0,7.09-1.81,7.09-1.81C296,308.48,300.23,300.49,300.23,300.49Z" style="fill:#fff;opacity:0.8"></path><path d="M282.25,301.85c.08.2.16.43.25.69a23.7,23.7,0,0,0,6.17-2.37l-.37-.62A23.62,23.62,0,0,1,282.25,301.85Z" style="fill:#407BFF"></path><path d="M293.61,299.55l-.37.62a23.7,23.7,0,0,0,6.17,2.37c.09-.26.17-.49.25-.69A23.24,23.24,0,0,1,293.61,299.55Z" style="fill:#407BFF"></path><g style="opacity:0.2"><path d="M282.25,301.85c.08.2.16.43.25.69a23.7,23.7,0,0,0,6.17-2.37l-.37-.62A23.62,23.62,0,0,1,282.25,301.85Z"></path><path d="M293.61,299.55l-.37.62a23.7,23.7,0,0,0,6.17,2.37c.09-.26.17-.49.25-.69A23.24,23.24,0,0,1,293.61,299.55Z"></path></g><path d="M287.82,297.59h6.3l0,1.37-1.1,1.08-2.11.53s-.32,1-1.68-.38l-1.36-1.43-.13-.71Z" style="fill:#407BFF"></path><path d="M287.82,297.59h6.3l0,1.37-1.1,1.08-2.11.53s-.32,1-1.68-.38l-1.36-1.43-.13-.71Z" style="fill:#fff;opacity:0.7000000000000001"></path><path d="M287.82,297.59h6.3l0,1.37-1.1,1.08-2.11.53s-.32,1-1.68-.38l-1.36-1.43-.13-.71Z" style="opacity:0.4"></path><path d="M291.3,301.26a4.8,4.8,0,0,0,3.49-2.09l-.67-1.58a4.57,4.57,0,0,1-2.82,2.4h-.66a4.57,4.57,0,0,1-2.82-2.4l-.67,1.58a4.8,4.8,0,0,0,3.49,2.09Z" style="fill:#407BFF"></path><path d="M290.43,312.54h3.62l-.32,1.62H287.2l.26-1.29,3.93-3.08a5.34,5.34,0,0,0,1-1,1.41,1.41,0,0,0,.28-.83.83.83,0,0,0-.33-.69,1.48,1.48,0,0,0-.94-.26,2.23,2.23,0,0,0-1,.24,2.29,2.29,0,0,0-.83.66l-1.35-1a3.59,3.59,0,0,1,1.46-1.15,4.66,4.66,0,0,1,2-.43,3.91,3.91,0,0,1,1.58.3,2.39,2.39,0,0,1,1.06.82,2,2,0,0,1,.38,1.2,2.74,2.74,0,0,1-.45,1.5,6.34,6.34,0,0,1-1.54,1.55Z" style="fill:#407BFF"></path><path d="M301.14,327.43H280.77a1.84,1.84,0,1,0,0,3.67h20.37a1.84,1.84,0,1,0,0-3.67Z" style="fill:#407BFF"></path><path d="M301.14,327.43H280.77a1.84,1.84,0,1,0,0,3.67h20.37a1.84,1.84,0,1,0,0-3.67Z" style="fill:#fff;opacity:0.9"></path><path d="M301.27,335.53c0,1.18-4.62,2.13-10.32,2.13s-10.32-1-10.32-2.13,4.62-2.12,10.32-2.12S301.27,334.36,301.27,335.53Z" style="opacity:0.2"></path><path d="M350.06,303.49c-1,.9-1,3.28-1,3.28h-3.69c-.06-9.19,2.72-9.74,2.72-9.74l1.12,1.74.83,3.13Z" style="fill:#407BFF"></path><path d="M350.06,303.49c-1,.9-1,3.28-1,3.28h-3.69c-.06-9.19,2.72-9.74,2.72-9.74l1.12,1.74.83,3.13Z" style="fill:#fff;opacity:0.9"></path><path d="M349.13,306.05l-3.73-.19c0,.3,0,.59,0,.91h3.69A6.75,6.75,0,0,1,349.13,306.05Z" style="fill:#407BFF"></path><path d="M349.13,306.05l-3.73-.19c0,.3,0,.59,0,.91h3.69A6.75,6.75,0,0,1,349.13,306.05Z" style="fill:#fff;opacity:0.7000000000000001"></path><path d="M364.57,303.49c.95.9,1,3.28,1,3.28h3.69c.06-9.19-2.73-9.74-2.73-9.74l-1.94,3.45Z" style="fill:#407BFF"></path><path d="M364.57,303.49c.95.9,1,3.28,1,3.28h3.69c.06-9.19-2.73-9.74-2.73-9.74l-1.94,3.45Z" style="fill:#fff;opacity:0.9"></path><path d="M365.5,306.05l3.72-.19c0,.3,0,.59,0,.91h-3.69S365.54,306.47,365.5,306.05Z" style="fill:#407BFF"></path><path d="M365.5,306.05l3.72-.19c0,.3,0,.59,0,.91h-3.69S365.54,306.47,365.5,306.05Z" style="fill:#fff;opacity:0.7000000000000001"></path><path d="M366.58,297l-9.16-2.14h-.24L348,297s4.24,8,2.06,23.48c0,0,2.37,1.81,7.1,1.81h.24c4.72,0,7.1-1.81,7.1-1.81C362.34,305,366.58,297,366.58,297Z" style="fill:#407BFF"></path><path d="M366.58,297l-9.16-2.14h-.24L348,297s4.24,8,2.06,23.48c0,0,2.37,1.81,7.1,1.81h.24c4.72,0,7.1-1.81,7.1-1.81C362.34,305,366.58,297,366.58,297Z" style="fill:#fff;opacity:0.8"></path><path d="M348.6,298.38c.07.21.16.44.24.69a23.47,23.47,0,0,0,6.17-2.36l-.36-.63A23,23,0,0,1,348.6,298.38Z" style="fill:#407BFF"></path><path d="M360,296.08l-.36.63a23.47,23.47,0,0,0,6.17,2.36q.12-.37.24-.69A23,23,0,0,1,360,296.08Z" style="fill:#407BFF"></path><g style="opacity:0.2"><path d="M348.6,298.38c.07.21.16.44.24.69a23.47,23.47,0,0,0,6.17-2.36l-.36-.63A23,23,0,0,1,348.6,298.38Z"></path><path d="M360,296.08l-.36.63a23.47,23.47,0,0,0,6.17,2.36q.12-.37.24-.69A23,23,0,0,1,360,296.08Z"></path></g><path d="M354.16,294.13h6.31l0,1.37-1.09,1.08-2.11.52s-.33,1-1.69-.38l-1.36-1.42-.12-.72Z" style="fill:#407BFF"></path><path d="M354.16,294.13h6.31l0,1.37-1.09,1.08-2.11.52s-.33,1-1.69-.38l-1.36-1.42-.12-.72Z" style="fill:#fff;opacity:0.7000000000000001"></path><path d="M354.16,294.13h6.31l0,1.37-1.09,1.08-2.11.52s-.33,1-1.69-.38l-1.36-1.42-.12-.72Z" style="opacity:0.4"></path><path d="M357.65,297.8a4.8,4.8,0,0,0,3.49-2.09l-.67-1.58a4.61,4.61,0,0,1-2.82,2.4H357a4.61,4.61,0,0,1-2.82-2.4l-.67,1.58A4.8,4.8,0,0,0,357,297.8Z" style="fill:#407BFF"></path><path d="M358.81,305.51a2.49,2.49,0,0,1,1,.86,2.35,2.35,0,0,1,.38,1.34,3,3,0,0,1-.45,1.62,2.86,2.86,0,0,1-1.23,1.07,4.1,4.1,0,0,1-1.77.37,4,4,0,0,1-1.83-.4,2.88,2.88,0,0,1-1.22-1.2,4,4,0,0,1-.44-1.93,6.2,6.2,0,0,1,.55-2.55,4.83,4.83,0,0,1,1.73-2,5,5,0,0,1,2.91-.81,5.94,5.94,0,0,1,1.35.16,3.19,3.19,0,0,1,1.05.42l-.9,1.47a2.83,2.83,0,0,0-1.63-.42,2.69,2.69,0,0,0-1.91.68,3.32,3.32,0,0,0-1,1.74,2.85,2.85,0,0,1,2-.68A3.3,3.3,0,0,1,358.81,305.51Zm-1,3.39a1.3,1.3,0,0,0,.42-1,1.06,1.06,0,0,0-.37-.86,1.49,1.49,0,0,0-1-.31,1.63,1.63,0,0,0-1.12.38,1.24,1.24,0,0,0-.44,1,1.14,1.14,0,0,0,.38.87,1.44,1.44,0,0,0,1,.35A1.52,1.52,0,0,0,357.8,308.9Z" style="fill:#407BFF"></path><path d="M367.5,324H347.13a1.83,1.83,0,1,0,0,3.66H367.5a1.83,1.83,0,1,0,0-3.66Z" style="fill:#407BFF"></path><path d="M367.5,324H347.13a1.83,1.83,0,1,0,0,3.66H367.5a1.83,1.83,0,1,0,0-3.66Z" style="fill:#fff;opacity:0.9"></path><path d="M367.63,332.07c0,1.18-4.62,2.13-10.31,2.13S347,333.25,347,332.07s4.62-2.13,10.32-2.13S367.63,330.9,367.63,332.07Z" style="opacity:0.2"></path><path d="M175.15,254.86c-1,.9-1,3.28-1,3.28h-3.69c-.06-9.19,2.72-9.74,2.72-9.74l1.12,1.74.83,3.13Z" style="fill:#407BFF"></path><path d="M175.15,254.86c-1,.9-1,3.28-1,3.28h-3.69c-.06-9.19,2.72-9.74,2.72-9.74l1.12,1.74.83,3.13Z" style="fill:#fff;opacity:0.9"></path><path d="M174.22,257.41l-3.73-.18c0,.3,0,.59,0,.91h3.69A7,7,0,0,1,174.22,257.41Z" style="fill:#407BFF"></path><path d="M174.22,257.41l-3.73-.18c0,.3,0,.59,0,.91h3.69A7,7,0,0,1,174.22,257.41Z" style="fill:#fff;opacity:0.7000000000000001"></path><path d="M189.66,254.86c1,.9,1,3.28,1,3.28h3.69c.06-9.19-2.73-9.74-2.73-9.74l-1.94,3.45Z" style="fill:#407BFF"></path><path d="M189.66,254.86c1,.9,1,3.28,1,3.28h3.69c.06-9.19-2.73-9.74-2.73-9.74l-1.94,3.45Z" style="fill:#fff;opacity:0.9"></path><path d="M190.59,257.41l3.72-.18c0,.3,0,.59,0,.91h-3.69S190.63,257.84,190.59,257.41Z" style="fill:#407BFF"></path><path d="M190.59,257.41l3.72-.18c0,.3,0,.59,0,.91h-3.69S190.63,257.84,190.59,257.41Z" style="fill:#fff;opacity:0.7000000000000001"></path><path d="M191.67,248.4l-9.16-2.14h-.24l-9.16,2.14s4.24,8,2.06,23.47c0,0,2.37,1.82,7.1,1.82h.24c4.72,0,7.1-1.82,7.1-1.82C187.43,256.39,191.67,248.4,191.67,248.4Z" style="fill:#407BFF"></path><path d="M191.67,248.4l-9.16-2.14h-.24l-9.16,2.14s4.24,8,2.06,23.47c0,0,2.37,1.82,7.1,1.82h.24c4.72,0,7.1-1.82,7.1-1.82C187.43,256.39,191.67,248.4,191.67,248.4Z" style="fill:#fff;opacity:0.8"></path><path d="M173.69,249.75c.07.21.16.44.24.69a23.47,23.47,0,0,0,6.17-2.36l-.36-.63A23,23,0,0,1,173.69,249.75Z" style="fill:#407BFF"></path><path d="M185,247.45l-.36.63a23.47,23.47,0,0,0,6.17,2.36c.08-.25.17-.48.24-.69A23,23,0,0,1,185,247.45Z" style="fill:#407BFF"></path><g style="opacity:0.2"><path d="M173.69,249.75c.07.21.16.44.24.69a23.47,23.47,0,0,0,6.17-2.36l-.36-.63A23,23,0,0,1,173.69,249.75Z"></path><path d="M185,247.45l-.36.63a23.47,23.47,0,0,0,6.17,2.36c.08-.25.17-.48.24-.69A23,23,0,0,1,185,247.45Z"></path></g><path d="M179.25,245.5h6.31l0,1.37L184.5,248l-2.11.52s-.33,1.05-1.69-.38l-1.35-1.42-.13-.72Z" style="fill:#407BFF"></path><path d="M179.25,245.5h6.31l0,1.37L184.5,248l-2.11.52s-.33,1.05-1.69-.38l-1.35-1.42-.13-.72Z" style="fill:#fff;opacity:0.7000000000000001"></path><path d="M179.25,245.5h6.31l0,1.37L184.5,248l-2.11.52s-.33,1.05-1.69-.38l-1.35-1.42-.13-.72Z" style="opacity:0.4"></path><path d="M182.74,249.17a4.8,4.8,0,0,0,3.49-2.09l-.67-1.58a4.61,4.61,0,0,1-2.82,2.4h-.67a4.61,4.61,0,0,1-2.82-2.4l-.67,1.58a4.8,4.8,0,0,0,3.49,2.09Z" style="fill:#407BFF"></path><path d="M186.22,259.58H184.8l-.35,1.81H182.5l.37-1.81h-4.64l.25-1.34,5.08-5.47h2.18L181,258h2.27l.32-1.61h1.86l-.32,1.61h1.41Z" style="fill:#407BFF"></path><path d="M192.59,275.41H172.21a1.83,1.83,0,0,0,0,3.66h20.38a1.83,1.83,0,1,0,0-3.66Z" style="fill:#407BFF"></path><path d="M192.59,275.41H172.21a1.83,1.83,0,0,0,0,3.66h20.38a1.83,1.83,0,1,0,0-3.66Z" style="fill:#fff;opacity:0.9"></path><path d="M192.72,283.51c0,1.18-4.62,2.13-10.32,2.13s-10.32-.95-10.32-2.13,4.62-2.13,10.32-2.13S192.72,282.34,192.72,283.51Z" style="opacity:0.2"></path><path d="M243.78,256.82c-1,.89-1,3.28-1,3.28h-3.69c-.06-9.2,2.72-9.74,2.72-9.74l1.12,1.73.83,3.14Z" style="fill:#407BFF"></path><path d="M243.78,256.82c-1,.89-1,3.28-1,3.28h-3.69c-.06-9.2,2.72-9.74,2.72-9.74l1.12,1.73.83,3.14Z" style="fill:#fff;opacity:0.9"></path><path d="M242.85,259.37l-3.73-.19c0,.3,0,.59,0,.92h3.69A6.85,6.85,0,0,1,242.85,259.37Z" style="fill:#407BFF"></path><path d="M242.85,259.37l-3.73-.19c0,.3,0,.59,0,.92h3.69A6.85,6.85,0,0,1,242.85,259.37Z" style="fill:#fff;opacity:0.7000000000000001"></path><path d="M258.29,256.82c.95.89,1,3.28,1,3.28H263c.07-9.2-2.72-9.74-2.72-9.74l-1.94,3.44Z" style="fill:#407BFF"></path><path d="M258.29,256.82c.95.89,1,3.28,1,3.28H263c.07-9.2-2.72-9.74-2.72-9.74l-1.94,3.44Z" style="fill:#fff;opacity:0.9"></path><path d="M259.21,259.37l3.73-.19c0,.3,0,.59,0,.92h-3.69A6.85,6.85,0,0,0,259.21,259.37Z" style="fill:#407BFF"></path><path d="M259.21,259.37l3.73-.19c0,.3,0,.59,0,.92h-3.69A6.85,6.85,0,0,0,259.21,259.37Z" style="fill:#fff;opacity:0.7000000000000001"></path><path d="M260.29,250.36l-9.15-2.14h-.25l-9.15,2.14s4.24,8,2.06,23.47c0,0,2.37,1.81,7.09,1.81h.25c4.72,0,7.1-1.81,7.1-1.81C256.06,258.34,260.29,250.36,260.29,250.36Z" style="fill:#407BFF"></path><path d="M260.29,250.36l-9.15-2.14h-.25l-9.15,2.14s4.24,8,2.06,23.47c0,0,2.37,1.81,7.09,1.81h.25c4.72,0,7.1-1.81,7.1-1.81C256.06,258.34,260.29,250.36,260.29,250.36Z" style="fill:#fff;opacity:0.8"></path><path d="M242.32,251.71l.24.69a23.57,23.57,0,0,0,6.17-2.37l-.37-.62A23.34,23.34,0,0,1,242.32,251.71Z" style="fill:#407BFF"></path><path d="M253.67,249.41l-.36.62a23.44,23.44,0,0,0,6.17,2.37c.08-.25.16-.49.24-.69A23.38,23.38,0,0,1,253.67,249.41Z" style="fill:#407BFF"></path><g style="opacity:0.2"><path d="M242.32,251.71l.24.69a23.57,23.57,0,0,0,6.17-2.37l-.37-.62A23.34,23.34,0,0,1,242.32,251.71Z"></path><path d="M253.67,249.41l-.36.62a23.44,23.44,0,0,0,6.17,2.37c.08-.25.16-.49.24-.69A23.38,23.38,0,0,1,253.67,249.41Z"></path></g><path d="M247.88,247.45h6.31l0,1.38-1.09,1.07-2.11.53s-.33,1-1.69-.38L248,248.62l-.13-.71Z" style="fill:#407BFF"></path><path d="M247.88,247.45h6.31l0,1.38-1.09,1.07-2.11.53s-.33,1-1.69-.38L248,248.62l-.13-.71Z" style="fill:#fff;opacity:0.7000000000000001"></path><path d="M247.88,247.45h6.31l0,1.38-1.09,1.07-2.11.53s-.33,1-1.69-.38L248,248.62l-.13-.71Z" style="opacity:0.4"></path><path d="M251.37,251.12a4.8,4.8,0,0,0,3.49-2.09l-.67-1.58a4.57,4.57,0,0,1-2.82,2.4h-.67a4.57,4.57,0,0,1-2.82-2.4l-.67,1.58a4.8,4.8,0,0,0,3.49,2.09Z" style="fill:#407BFF"></path><path d="M254.79,254.72l-.26,1.29-4.6,7.33h-2.22l4.42-7h-2.8l-.28,1.4h-1.77l.6-3Z" style="fill:#407BFF"></path><path d="M261.22,277.36H240.84a1.84,1.84,0,0,0,0,3.67h20.38a1.84,1.84,0,0,0,0-3.67Z" style="fill:#407BFF"></path><path d="M261.22,277.36H240.84a1.84,1.84,0,0,0,0,3.67h20.38a1.84,1.84,0,0,0,0-3.67Z" style="fill:#fff;opacity:0.9"></path><path d="M261.35,285.47c0,1.17-4.62,2.12-10.32,2.12s-10.32-.95-10.32-2.12,4.62-2.13,10.32-2.13S261.35,284.29,261.35,285.47Z" style="opacity:0.2"></path><path d="M312.4,254.75c-1,.89-1,3.28-1,3.28h-3.69c-.06-9.2,2.72-9.74,2.72-9.74l1.12,1.73.83,3.14Z" style="fill:#407BFF"></path><path d="M312.4,254.75c-1,.89-1,3.28-1,3.28h-3.69c-.06-9.2,2.72-9.74,2.72-9.74l1.12,1.73.83,3.14Z" style="fill:#fff;opacity:0.9"></path><path d="M311.47,257.3l-3.73-.19c0,.3,0,.59,0,.92h3.69A7,7,0,0,1,311.47,257.3Z" style="fill:#407BFF"></path><path d="M311.47,257.3l-3.73-.19c0,.3,0,.59,0,.92h3.69A7,7,0,0,1,311.47,257.3Z" style="fill:#fff;opacity:0.7000000000000001"></path><path d="M326.91,254.75c.95.89,1,3.28,1,3.28h3.69c.06-9.2-2.73-9.74-2.73-9.74l-1.94,3.45Z" style="fill:#407BFF"></path><path d="M326.91,254.75c.95.89,1,3.28,1,3.28h3.69c.06-9.2-2.73-9.74-2.73-9.74l-1.94,3.45Z" style="fill:#fff;opacity:0.9"></path><path d="M327.84,257.3l3.72-.19c0,.3,0,.59,0,.92h-3.69S327.88,257.73,327.84,257.3Z" style="fill:#407BFF"></path><path d="M327.84,257.3l3.72-.19c0,.3,0,.59,0,.92h-3.69S327.88,257.73,327.84,257.3Z" style="fill:#fff;opacity:0.7000000000000001"></path><path d="M328.92,248.29l-9.16-2.14h-.24l-9.16,2.14s4.24,8,2.06,23.47c0,0,2.37,1.82,7.1,1.82h.24c4.72,0,7.1-1.82,7.1-1.82C324.68,256.27,328.92,248.29,328.92,248.29Z" style="fill:#407BFF"></path><path d="M328.92,248.29l-9.16-2.14h-.24l-9.16,2.14s4.24,8,2.06,23.47c0,0,2.37,1.82,7.1,1.82h.24c4.72,0,7.1-1.82,7.1-1.82C324.68,256.27,328.92,248.29,328.92,248.29Z" style="fill:#fff;opacity:0.8"></path><path d="M310.94,249.64c.07.2.16.44.24.69a23.47,23.47,0,0,0,6.17-2.36l-.36-.63A23.38,23.38,0,0,1,310.94,249.64Z" style="fill:#407BFF"></path><path d="M322.29,247.34l-.36.63a23.47,23.47,0,0,0,6.17,2.36c.08-.25.17-.49.24-.69A23.38,23.38,0,0,1,322.29,247.34Z" style="fill:#407BFF"></path><g style="opacity:0.2"><path d="M310.94,249.64c.07.2.16.44.24.69a23.47,23.47,0,0,0,6.17-2.36l-.36-.63A23.38,23.38,0,0,1,310.94,249.64Z"></path><path d="M322.29,247.34l-.36.63a23.47,23.47,0,0,0,6.17,2.36c.08-.25.17-.49.24-.69A23.38,23.38,0,0,1,322.29,247.34Z"></path></g><path d="M316.5,245.38h6.31l0,1.38-1.09,1.08-2.11.52s-.33,1-1.69-.38l-1.35-1.43-.13-.71Z" style="fill:#407BFF"></path><path d="M316.5,245.38h6.31l0,1.38-1.09,1.08-2.11.52s-.33,1-1.69-.38l-1.35-1.43-.13-.71Z" style="fill:#fff;opacity:0.7000000000000001"></path><path d="M316.5,245.38h6.31l0,1.38-1.09,1.08-2.11.52s-.33,1-1.69-.38l-1.35-1.43-.13-.71Z" style="opacity:0.4"></path><path d="M320,249.05a4.8,4.8,0,0,0,3.49-2.08l-.67-1.59a4.57,4.57,0,0,1-2.82,2.4h-.67a4.57,4.57,0,0,1-2.82-2.4l-.67,1.59a4.8,4.8,0,0,0,3.49,2.08Z" style="fill:#407BFF"></path><path d="M323.06,258.74a2.44,2.44,0,0,1-.48,1.5,3,3,0,0,1-1.32,1,5.2,5.2,0,0,1-2,.34,5.44,5.44,0,0,1-1.85-.29,2.71,2.71,0,0,1-1.22-.85,2,2,0,0,1-.43-1.29,2.35,2.35,0,0,1,.46-1.46,2.82,2.82,0,0,1,1.3-.95,1.74,1.74,0,0,1-.7-1.44,2.25,2.25,0,0,1,.44-1.4,2.75,2.75,0,0,1,1.22-.92,4.71,4.71,0,0,1,1.78-.32,4.53,4.53,0,0,1,1.67.28,2.58,2.58,0,0,1,1.14.78,1.83,1.83,0,0,1,.4,1.18,2.29,2.29,0,0,1-.36,1.29,2.55,2.55,0,0,1-1,.86A2,2,0,0,1,323.06,258.74Zm-2.49,1a1.19,1.19,0,0,0,.47-1,1,1,0,0,0-.41-.82,1.86,1.86,0,0,0-1.12-.3,2,2,0,0,0-1.24.36,1.15,1.15,0,0,0-.46,1,1,1,0,0,0,.42.84,1.87,1.87,0,0,0,1.11.31A1.94,1.94,0,0,0,320.57,259.74Zm-1.34-5.31a1.06,1.06,0,0,0-.39.87.84.84,0,0,0,.34.7,1.47,1.47,0,0,0,.93.26,1.58,1.58,0,0,0,1-.31,1,1,0,0,0,.39-.85.87.87,0,0,0-.35-.72,1.5,1.5,0,0,0-.92-.26A1.58,1.58,0,0,0,319.23,254.43Z" style="fill:#407BFF"></path><path d="M329.84,275.29H309.46a1.84,1.84,0,0,0,0,3.67h20.38a1.84,1.84,0,0,0,0-3.67Z" style="fill:#407BFF"></path><path d="M329.84,275.29H309.46a1.84,1.84,0,0,0,0,3.67h20.38a1.84,1.84,0,0,0,0-3.67Z" style="fill:#fff;opacity:0.9"></path><path d="M330,283.4c0,1.17-4.62,2.12-10.32,2.12s-10.32-.95-10.32-2.12,4.62-2.13,10.32-2.13S330,282.22,330,283.4Z" style="opacity:0.2"></path><path d="M187.17,211.72c-1,.89-1,3.28-1,3.28H182.5c-.06-9.2,2.72-9.74,2.72-9.74l1.12,1.73.83,3.14Z" style="fill:#407BFF"></path><path d="M187.17,211.72c-1,.89-1,3.28-1,3.28H182.5c-.06-9.2,2.72-9.74,2.72-9.74l1.12,1.73.83,3.14Z" style="fill:#fff;opacity:0.9"></path><path d="M186.24,214.27l-3.73-.19c0,.31,0,.6,0,.92h3.69A7,7,0,0,1,186.24,214.27Z" style="fill:#407BFF"></path><path d="M186.24,214.27l-3.73-.19c0,.31,0,.6,0,.92h3.69A7,7,0,0,1,186.24,214.27Z" style="fill:#fff;opacity:0.7000000000000001"></path><path d="M201.68,211.72c1,.89,1,3.28,1,3.28h3.69c.06-9.2-2.73-9.74-2.73-9.74l-1.94,3.45Z" style="fill:#407BFF"></path><path d="M201.68,211.72c1,.89,1,3.28,1,3.28h3.69c.06-9.2-2.73-9.74-2.73-9.74l-1.94,3.45Z" style="fill:#fff;opacity:0.9"></path><path d="M202.61,214.27l3.73-.19c0,.31,0,.6,0,.92h-3.69S202.65,214.7,202.61,214.27Z" style="fill:#407BFF"></path><path d="M202.61,214.27l3.73-.19c0,.31,0,.6,0,.92h-3.69S202.65,214.7,202.61,214.27Z" style="fill:#fff;opacity:0.7000000000000001"></path><path d="M203.69,205.26l-9.16-2.14h-.24l-9.16,2.14s4.24,8,2.06,23.47c0,0,2.38,1.82,7.1,1.82h.24c4.73,0,7.1-1.82,7.1-1.82C199.45,213.24,203.69,205.26,203.69,205.26Z" style="fill:#407BFF"></path><path d="M203.69,205.26l-9.16-2.14h-.24l-9.16,2.14s4.24,8,2.06,23.47c0,0,2.38,1.82,7.1,1.82h.24c4.73,0,7.1-1.82,7.1-1.82C199.45,213.24,203.69,205.26,203.69,205.26Z" style="fill:#fff;opacity:0.8"></path><path d="M185.71,206.61c.07.2.16.44.24.69a23.47,23.47,0,0,0,6.17-2.36l-.36-.63A23,23,0,0,1,185.71,206.61Z" style="fill:#407BFF"></path><path d="M197.06,204.31l-.36.63a23.47,23.47,0,0,0,6.17,2.36c.08-.25.17-.49.24-.69A23,23,0,0,1,197.06,204.31Z" style="fill:#407BFF"></path><g style="opacity:0.2"><path d="M185.71,206.61c.07.2.16.44.24.69a23.47,23.47,0,0,0,6.17-2.36l-.36-.63A23,23,0,0,1,185.71,206.61Z"></path><path d="M197.06,204.31l-.36.63a23.47,23.47,0,0,0,6.17,2.36c.08-.25.17-.49.24-.69A23,23,0,0,1,197.06,204.31Z"></path></g><path d="M191.27,202.35h6.31l0,1.38-1.09,1.08-2.11.52s-.33,1-1.68-.38l-1.36-1.43-.13-.71Z" style="fill:#407BFF"></path><path d="M191.27,202.35h6.31l0,1.38-1.09,1.08-2.11.52s-.33,1-1.68-.38l-1.36-1.43-.13-.71Z" style="fill:#fff;opacity:0.7000000000000001"></path><path d="M191.27,202.35h6.31l0,1.38-1.09,1.08-2.11.52s-.33,1-1.68-.38l-1.36-1.43-.13-.71Z" style="opacity:0.4"></path><path d="M194.76,206a4.8,4.8,0,0,0,3.49-2.08l-.67-1.59a4.57,4.57,0,0,1-2.82,2.4h-.67a4.57,4.57,0,0,1-2.82-2.4l-.67,1.59a4.8,4.8,0,0,0,3.49,2.08Z" style="fill:#407BFF"></path><path d="M192.36,209.77l-1.73,8.63h-2l1.4-7h-1.72l.32-1.6Z" style="fill:#407BFF"></path><path d="M193.73,217.67a3.27,3.27,0,0,1-.84-2.39,7,7,0,0,1,.57-2.85,5.07,5.07,0,0,1,1.6-2.05,3.85,3.85,0,0,1,2.33-.76,3,3,0,0,1,2.28.87,3.35,3.35,0,0,1,.83,2.4,7,7,0,0,1-.57,2.84,4.86,4.86,0,0,1-1.6,2.05,3.76,3.76,0,0,1-2.32.76A3,3,0,0,1,193.73,217.67Zm3.7-1.43a4.08,4.08,0,0,0,.79-1.54,6.23,6.23,0,0,0,.27-1.76,1.92,1.92,0,0,0-.33-1.23,1.19,1.19,0,0,0-1-.4,1.59,1.59,0,0,0-1.24.62,4.11,4.11,0,0,0-.79,1.53,6.24,6.24,0,0,0-.27,1.77,1.81,1.81,0,0,0,.34,1.22,1.16,1.16,0,0,0,.95.41A1.59,1.59,0,0,0,197.43,216.24Z" style="fill:#407BFF"></path><path d="M204.61,232.49H184.24a1.83,1.83,0,1,0,0,3.66h20.37a1.83,1.83,0,0,0,0-3.66Z" style="fill:#407BFF"></path><path d="M204.61,232.49H184.24a1.83,1.83,0,1,0,0,3.66h20.37a1.83,1.83,0,0,0,0-3.66Z" style="fill:#fff;opacity:0.9"></path><ellipse cx="194.42" cy="240.59" rx="10.32" ry="2.13" style="opacity:0.2"></ellipse><path d="M243.76,211.72c-1,.89-1,3.28-1,3.28h-3.69c-.06-9.2,2.72-9.74,2.72-9.74l1.13,1.73.82,3.14Z" style="fill:#407BFF"></path><path d="M243.76,211.72c-1,.89-1,3.28-1,3.28h-3.69c-.06-9.2,2.72-9.74,2.72-9.74l1.13,1.73.82,3.14Z" style="fill:#fff;opacity:0.9"></path><path d="M242.83,214.27l-3.73-.19c0,.31,0,.6,0,.92h3.69A7,7,0,0,1,242.83,214.27Z" style="fill:#407BFF"></path><path d="M242.83,214.27l-3.73-.19c0,.31,0,.6,0,.92h3.69A7,7,0,0,1,242.83,214.27Z" style="fill:#fff;opacity:0.7000000000000001"></path><path d="M258.27,211.72c1,.89,1,3.28,1,3.28h3.69c.06-9.2-2.72-9.74-2.72-9.74l-2,3.45Z" style="fill:#407BFF"></path><path d="M258.27,211.72c1,.89,1,3.28,1,3.28h3.69c.06-9.2-2.72-9.74-2.72-9.74l-2,3.45Z" style="fill:#fff;opacity:0.9"></path><path d="M259.2,214.27l3.73-.19c0,.31,0,.6,0,.92h-3.69S259.24,214.7,259.2,214.27Z" style="fill:#407BFF"></path><path d="M259.2,214.27l3.73-.19c0,.31,0,.6,0,.92h-3.69S259.24,214.7,259.2,214.27Z" style="fill:#fff;opacity:0.7000000000000001"></path><path d="M260.28,205.26l-9.15-2.14h-.25l-9.15,2.14s4.23,8,2.05,23.47c0,0,2.38,1.82,7.1,1.82h.25c4.72,0,7.09-1.82,7.09-1.82C256,213.24,260.28,205.26,260.28,205.26Z" style="fill:#407BFF"></path><path d="M260.28,205.26l-9.15-2.14h-.25l-9.15,2.14s4.23,8,2.05,23.47c0,0,2.38,1.82,7.1,1.82h.25c4.72,0,7.09-1.82,7.09-1.82C256,213.24,260.28,205.26,260.28,205.26Z" style="fill:#fff;opacity:0.8"></path><path d="M242.3,206.61c.08.2.16.44.24.69a23.34,23.34,0,0,0,6.17-2.36l-.36-.63A23,23,0,0,1,242.3,206.61Z" style="fill:#407BFF"></path><path d="M253.66,204.31l-.37.63a23.47,23.47,0,0,0,6.17,2.36l.24-.69A23,23,0,0,1,253.66,204.31Z" style="fill:#407BFF"></path><g style="opacity:0.2"><path d="M242.3,206.61c.08.2.16.44.24.69a23.34,23.34,0,0,0,6.17-2.36l-.36-.63A23,23,0,0,1,242.3,206.61Z"></path><path d="M253.66,204.31l-.37.63a23.47,23.47,0,0,0,6.17,2.36l.24-.69A23,23,0,0,1,253.66,204.31Z"></path></g><path d="M247.87,202.35h6.3l0,1.38-1.1,1.08-2.11.52s-.32,1-1.68-.38L248,203.52l-.13-.71Z" style="fill:#407BFF"></path><path d="M247.87,202.35h6.3l0,1.38-1.1,1.08-2.11.52s-.32,1-1.68-.38L248,203.52l-.13-.71Z" style="fill:#fff;opacity:0.7000000000000001"></path><path d="M247.87,202.35h6.3l0,1.38-1.1,1.08-2.11.52s-.32,1-1.68-.38L248,203.52l-.13-.71Z" style="opacity:0.4"></path><path d="M251.35,206a4.8,4.8,0,0,0,3.49-2.08l-.67-1.59a4.57,4.57,0,0,1-2.82,2.4h-.66a4.55,4.55,0,0,1-2.82-2.4l-.68,1.59a4.83,4.83,0,0,0,3.5,2.08Z" style="fill:#407BFF"></path><path d="M253.16,210a2.94,2.94,0,0,1,1.22,1.2,4,4,0,0,1,.43,1.93,6.12,6.12,0,0,1-.55,2.54,4.8,4.8,0,0,1-1.73,2,4.94,4.94,0,0,1-2.89.8,6,6,0,0,1-1.36-.15,3,3,0,0,1-1.06-.43l.92-1.46a2.79,2.79,0,0,0,1.61.42,2.72,2.72,0,0,0,1.93-.68,3.27,3.27,0,0,0,.95-1.75,2.72,2.72,0,0,1-1.93.69,3.31,3.31,0,0,1-1.42-.3,2.37,2.37,0,0,1-1-.85,2.29,2.29,0,0,1-.38-1.34,2.92,2.92,0,0,1,.45-1.62,3,3,0,0,1,1.23-1.07,4.11,4.11,0,0,1,1.78-.38A3.94,3.94,0,0,1,253.16,210Zm-.81,3.28a1.25,1.25,0,0,0,.43-1,1.13,1.13,0,0,0-.38-.86,1.46,1.46,0,0,0-1-.36,1.52,1.52,0,0,0-1.08.39,1.3,1.3,0,0,0-.42,1,1,1,0,0,0,.37.85,1.47,1.47,0,0,0,1,.32A1.68,1.68,0,0,0,252.35,213.31Z" style="fill:#407BFF"></path><path d="M261.2,232.49H240.83a1.83,1.83,0,1,0,0,3.66H261.2a1.83,1.83,0,1,0,0-3.66Z" style="fill:#407BFF"></path><path d="M261.2,232.49H240.83a1.83,1.83,0,1,0,0,3.66H261.2a1.83,1.83,0,1,0,0-3.66Z" style="fill:#fff;opacity:0.9"></path><ellipse cx="251.01" cy="240.59" rx="10.32" ry="2.13" style="opacity:0.2"></ellipse><path d="M303.68,211.72c-.95.89-1,3.28-1,3.28H299c-.06-9.2,2.73-9.74,2.73-9.74l1.12,1.73.82,3.14Z" style="fill:#407BFF"></path><path d="M303.68,211.72c-.95.89-1,3.28-1,3.28H299c-.06-9.2,2.73-9.74,2.73-9.74l1.12,1.73.82,3.14Z" style="fill:#fff;opacity:0.9"></path><path d="M302.75,214.27l-3.73-.19c0,.31,0,.6,0,.92h3.69S302.71,214.7,302.75,214.27Z" style="fill:#407BFF"></path><path d="M302.75,214.27l-3.73-.19c0,.31,0,.6,0,.92h3.69S302.71,214.7,302.75,214.27Z" style="fill:#fff;opacity:0.7000000000000001"></path><path d="M318.19,211.72c1,.89,1,3.28,1,3.28h3.69c.06-9.2-2.72-9.74-2.72-9.74l-1.95,3.45Z" style="fill:#407BFF"></path><path d="M318.19,211.72c1,.89,1,3.28,1,3.28h3.69c.06-9.2-2.72-9.74-2.72-9.74l-1.95,3.45Z" style="fill:#fff;opacity:0.9"></path><path d="M319.12,214.27l3.73-.19c0,.31,0,.6,0,.92h-3.69A7,7,0,0,0,319.12,214.27Z" style="fill:#407BFF"></path><path d="M319.12,214.27l3.73-.19c0,.31,0,.6,0,.92h-3.69A7,7,0,0,0,319.12,214.27Z" style="fill:#fff;opacity:0.7000000000000001"></path><path d="M320.2,205.26l-9.15-2.14h-.25l-9.15,2.14s4.23,8,2.05,23.47c0,0,2.38,1.82,7.1,1.82h.25c4.72,0,7.09-1.82,7.09-1.82C316,213.24,320.2,205.26,320.2,205.26Z" style="fill:#407BFF"></path><path d="M320.2,205.26l-9.15-2.14h-.25l-9.15,2.14s4.23,8,2.05,23.47c0,0,2.38,1.82,7.1,1.82h.25c4.72,0,7.09-1.82,7.09-1.82C316,213.24,320.2,205.26,320.2,205.26Z" style="fill:#fff;opacity:0.8"></path><path d="M302.22,206.61c.08.2.16.44.25.69a23.6,23.6,0,0,0,6.17-2.36l-.37-.63A22.88,22.88,0,0,1,302.22,206.61Z" style="fill:#407BFF"></path><path d="M313.58,204.31l-.37.63a23.6,23.6,0,0,0,6.17,2.36c.09-.25.17-.49.25-.69A22.88,22.88,0,0,1,313.58,204.31Z" style="fill:#407BFF"></path><g style="opacity:0.2"><path d="M302.22,206.61c.08.2.16.44.25.69a23.6,23.6,0,0,0,6.17-2.36l-.37-.63A22.88,22.88,0,0,1,302.22,206.61Z"></path><path d="M313.58,204.31l-.37.63a23.6,23.6,0,0,0,6.17,2.36c.09-.25.17-.49.25-.69A22.88,22.88,0,0,1,313.58,204.31Z"></path></g><path d="M307.79,202.35h6.3l0,1.38-1.1,1.08-2.11.52s-.32,1-1.68-.38l-1.36-1.43-.13-.71Z" style="fill:#407BFF"></path><path d="M307.79,202.35h6.3l0,1.38-1.1,1.08-2.11.52s-.32,1-1.68-.38l-1.36-1.43-.13-.71Z" style="fill:#fff;opacity:0.7000000000000001"></path><path d="M307.79,202.35h6.3l0,1.38-1.1,1.08-2.11.52s-.32,1-1.68-.38l-1.36-1.43-.13-.71Z" style="opacity:0.4"></path><path d="M311.27,206a4.8,4.8,0,0,0,3.49-2.08l-.67-1.59a4.55,4.55,0,0,1-2.82,2.4h-.66a4.57,4.57,0,0,1-2.82-2.4l-.67,1.59a4.8,4.8,0,0,0,3.49,2.08Z" style="fill:#407BFF"></path><path d="M310.54,209.62l-1.72,8.63h-2l1.41-7H306.5l.32-1.6Z" style="fill:#407BFF"></path><path d="M315.37,209.62l-1.72,8.63h-2l1.41-7h-1.73l.32-1.6Z" style="fill:#407BFF"></path><path d="M321.12,232.49H300.75a1.83,1.83,0,1,0,0,3.66h20.37a1.83,1.83,0,1,0,0-3.66Z" style="fill:#407BFF"></path><path d="M321.12,232.49H300.75a1.83,1.83,0,1,0,0,3.66h20.37a1.83,1.83,0,1,0,0-3.66Z" style="fill:#fff;opacity:0.9"></path><ellipse cx="310.94" cy="240.59" rx="10.32" ry="2.13" style="opacity:0.2"></ellipse></g></svg>
