<svg xmlns="http://www.w3.org/2000/svg" viewBox="0 0 500 500"><g id="freepik--Floor--inject-2"><ellipse id="freepik--floor--inject-2" cx="250" cy="314.53" rx="244.15" ry="138.48" style="fill:#f5f5f5"></ellipse></g><g id="freepik--Shadows--inject-2"><path id="freepik--Shadow--inject-2" d="M247,429.19l230-132.8c2.47-1.42,3.71-3.3,3.71-5.17s-1.24-3.74-3.71-5.17L272.18,167.81c-4.95-2.86-13-2.86-17.92,0l-230,132.8c-2.47,1.42-3.71,3.3-3.71,5.17s1.24,3.74,3.71,5.17l204.8,118.24C234,432.05,242,432.05,247,429.19Z" style="fill:#e0e0e0"></path><ellipse id="freepik--shadow--inject-2" cx="413.91" cy="420.33" rx="40.43" ry="23.34" style="fill:#e0e0e0"></ellipse><ellipse id="freepik--shadow--inject-2" cx="86.09" cy="420.33" rx="40.43" ry="23.34" style="fill:#e0e0e0"></ellipse></g><g id="freepik--Field--inject-2"><g id="freepik--field--inject-2"><path d="M472.4,247.51c0-1.81-1.2-3.62-3.59-5l-198-114.3c-4.78-2.76-12.53-2.76-17.32,0L31.18,256.58c-2.39,1.38-3.58,3.19-3.58,5v18.76c0,1.81,1.19,3.62,3.58,5l198,114.3c4.79,2.76,12.54,2.76,17.32,0L468.81,271.27c2.39-1.38,3.59-3.19,3.59-5Z" style="fill:#37474f"></path><path d="M237.81,137.28,31.18,256.58c-2.39,1.38-3.58,3.19-3.58,5v18.76c0,1.81,1.19,3.62,3.58,5l198,114.3a17.72,17.72,0,0,0,8.66,2.07Z" style="fill:#263238"></path><path d="M91.56,301.44,59.45,282.9l10.32,24.72,32.12,18.55Zm94,54.28-32.11-18.54,10.32,24.72,32.12,18.55ZM124,320.19l-17.87-10.32,10.32,24.72,17.88,10.33Z"></path><path d="M246.47,380.88,468.81,252.51c2.39-1.38,3.59-3.19,3.59-5s-1.2-3.62-3.59-5l-198-114.3c-4.78-2.76-12.53-2.76-17.32,0L31.18,256.58c-2.39,1.38-3.58,3.19-3.58,5s1.19,3.62,3.58,5l198,114.3C233.94,383.64,241.69,383.64,246.47,380.88Z" style="fill:#455a64"></path><path d="M468.81,252.51,246.47,380.88c-4.78,2.76-12.54,2.76-17.32,0l-198-114.3,198,111c4.78,2.76,12.54,2.76,17.32,0Z" style="fill:#fafafa;opacity:0.30000000000000004"></path><path d="M448.77,250.14l-3.72,2.14L242.84,369a9.57,9.57,0,0,1-8.66,0L54.94,265.55l-3.72-2.15c-2.39-1.39-2.39-3.62,0-5L257.15,139.5a9.57,9.57,0,0,1,8.66,0l183,105.64C451.16,246.52,451.16,248.76,448.77,250.14Z" style="fill:#263238"></path><path d="M445.05,252.28,242.84,369a9.57,9.57,0,0,1-8.66,0L54.94,265.55,257.15,148.8a9.51,9.51,0,0,1,8.66,0Z" style="fill:#90CAF9"></path><path d="M445.05,252.28,242.84,369a9.57,9.57,0,0,1-8.66,0L54.94,265.55,257.15,148.8a9.51,9.51,0,0,1,8.66,0Z" style="fill:#fff;opacity:0.30000000000000004"></path><path d="M287.7,161.44,81.16,280.68l26.23,15.14L313.92,176.57Zm52.45,30.28L133.62,311l26.21,15.13L366.38,206.85ZM392.6,222,186.07,341.25l26.21,15.13L418.83,237.13Z" style="fill:#fff;opacity:0.2"></path><g id="freepik--Lines--inject-2"><path d="M229.52,355.53a.69.69,0,0,1-.37-.1L83.57,271.38a.74.74,0,0,1-.38-.65.73.73,0,0,1,.38-.65L270.1,162.39a.72.72,0,0,1,.75,0l145.58,84.05a.75.75,0,0,1,0,1.29L229.9,355.43A.75.75,0,0,1,229.52,355.53ZM85.44,270.73l144.08,83.18,185-106.82L270.47,163.9Z" style="fill:#fff"></path><path d="M292.05,319.43a.75.75,0,0,1-.38-.1c-8.45-4.88-13.1-11.41-13.1-18.4s4.65-13.51,13.1-18.39c17.16-9.91,45.07-9.91,62.23,0a.75.75,0,0,1-.75,1.29c-16.74-9.66-44-9.66-60.73,0-8,4.6-12.35,10.68-12.35,17.1s4.38,12.5,12.35,17.1a.75.75,0,0,1-.37,1.4Z" style="fill:#fff"></path><path d="M214.8,264.48c-2.26,0-4.54-.11-6.81-.31a.76.76,0,0,1-.68-.82.75.75,0,0,1,.81-.68c13.57,1.24,27.45-1.36,37.12-6.94,9.49-5.48,13.92-13.27,11.85-20.84a.75.75,0,0,1,1.45-.4c2.26,8.27-2.43,16.7-12.55,22.54C237.68,261.82,226.39,264.48,214.8,264.48Z" style="fill:#fff"></path><path d="M270.47,169.45a15,15,0,0,1-7.32-1.75.76.76,0,0,1-.28-1,.75.75,0,0,1,1-.27,14.55,14.55,0,0,0,13.14,0,.75.75,0,1,1,.75,1.3A15,15,0,0,1,270.47,169.45Z" style="fill:#fff"></path><path d="M90.89,275.49a.76.76,0,0,1-.65-.38.75.75,0,0,1,.28-1c1.61-.93,2.5-2.12,2.5-3.36s-.89-2.43-2.5-3.36a.75.75,0,1,1,.75-1.3c2.09,1.21,3.25,2.86,3.25,4.66s-1.16,3.45-3.25,4.66A.75.75,0,0,1,90.89,275.49Z" style="fill:#fff"></path><path d="M167.3,287.7a.69.69,0,0,1-.37-.1L111.2,255.43a.76.76,0,0,1-.28-1,.75.75,0,0,1,1-.27l55.35,31.95,129.77-74.92-54.6-31.52a.75.75,0,1,1,.75-1.3l55.72,32.17a.74.74,0,0,1,.38.65.73.73,0,0,1-.38.65L167.68,287.6A.75.75,0,0,1,167.3,287.7Z" style="fill:#fff"></path><path d="M166.41,245.5a.75.75,0,0,1-.38-.1L147.3,234.58a.74.74,0,0,1-.28-1,.75.75,0,0,1,1-.27l18.36,10.59L224,210.65l-17.61-10.17a.75.75,0,1,1,.75-1.3L225.85,210a.73.73,0,0,1,.38.65.76.76,0,0,1-.38.65l-59.07,34.1A.71.71,0,0,1,166.41,245.5Z" style="fill:#fff"></path><ellipse cx="214.45" cy="238.38" rx="2.65" ry="1.53" style="fill:#fff"></ellipse><path d="M163.49,225.55a.75.75,0,0,1-.38-.1l-6-3.44a.75.75,0,0,1,0-1.3l27.44-15.84a.72.72,0,0,1,.75,0l6,3.44a.75.75,0,1,1-.75,1.3L185,206.38l-25.94,15,4.84,2.79a.75.75,0,0,1-.37,1.4Z" style="fill:#fff"></path></g></g></g><g id="freepik--T-shirts--inject-2"><path id="freepik--shadow--inject-2" d="M196.77,216.61c6.16,3.56,6.16,9.32,0,12.87s-16.14,3.56-22.3,0-6.15-9.31,0-12.87S190.61,213.05,196.77,216.61Z" style="opacity:0.2"></path><path id="freepik--shadow--inject-2" d="M191.81,257c6.15,3.55,6.15,9.32,0,12.87s-16.15,3.56-22.3,0-6.16-9.32,0-12.87S185.65,253.4,191.81,257Z" style="opacity:0.2"></path><ellipse id="freepik--shadow--inject-2" cx="166.36" cy="299.57" rx="15.77" ry="9.1" style="opacity:0.2"></ellipse><ellipse id="freepik--shadow--inject-2" cx="319.67" cy="210.9" rx="15.77" ry="9.1" style="opacity:0.2"></ellipse><path id="freepik--shadow--inject-2" d="M261.76,216.61c6.16,3.56,6.16,9.32,0,12.87s-16.14,3.56-22.3,0-6.15-9.31,0-12.87S255.61,213.05,261.76,216.61Z" style="opacity:0.2"></path><path id="freepik--shadow--inject-2" d="M237.66,283.4c6.15,3.55,6.15,9.32,0,12.87s-16.15,3.56-22.3,0-6.16-9.32,0-12.87S231.5,279.84,237.66,283.4Z" style="opacity:0.2"></path><path id="freepik--shadow--inject-2" d="M223.36,319.57c6.16,3.55,6.16,9.32,0,12.87s-16.14,3.56-22.3,0-6.15-9.32,0-12.87S217.21,316,223.36,319.57Z" style="opacity:0.2"></path><path id="freepik--shadow--inject-2" d="M376.67,230.9c6.16,3.55,6.16,9.32,0,12.87s-16.14,3.56-22.3,0-6.16-9.32,0-12.87S370.51,227.34,376.67,230.9Z" style="opacity:0.2"></path><path id="freepik--shadow--inject-2" d="M307.62,243.05c6.15,3.55,6.15,9.32,0,12.87s-16.14,3.56-22.29,0-6.16-9.32,0-12.87S301.46,239.49,307.62,243.05Z" style="opacity:0.2"></path><path id="freepik--shadow--inject-2" d="M281.45,308.68c6.15,3.56,6.15,9.32,0,12.88s-16.15,3.55-22.3,0-6.16-9.32,0-12.88S275.29,305.13,281.45,308.68Z" style="opacity:0.2"></path><ellipse id="freepik--shadow--inject-2" cx="340.25" cy="274.77" rx="15.77" ry="9.1" style="opacity:0.2"></ellipse><g id="freepik--Jersey--inject-2"><path d="M192.85,179c3.17,0,4.85.3,6.83,2.83,1.85,2.36,1.06,6,1.14,9a37.38,37.38,0,0,0,.91,7.08c0,2.57-9.45,2.57-9.45,0Z" style="fill:#ebebeb"></path><path d="M192.38,194.45a4.39,4.39,0,0,0,.8.6,8,8,0,0,0,7.26,0,4.1,4.1,0,0,0,.68-.49c.08.61.17,1.16.25,1.64a3.59,3.59,0,0,1-.93.73,8,8,0,0,1-7.26,0,3.23,3.23,0,0,1-.85-.65Z" style="fill:#90CAF9"></path><path d="M199,194.45a25.55,25.55,0,0,0,.65,5.14c-2.78.72-7.4.18-7.4-1.62l.28-9.49h5.11A12.48,12.48,0,0,1,199,194.45Z" style="opacity:0.2"></path><path d="M172.77,221.57c.37-3.81.5-5,.74-8.7.11-1.76.15-3,.2-3.78a89.57,89.57,0,0,0-.23-9.74c-.21-3.42-1-12,.82-14.65a15.15,15.15,0,0,0,5.13-3.35,11.38,11.38,0,0,1,5.75-3.63c3.22-.75,5.06.41,5.55,1.3h2.12s3.69,1.24,4.72,8.73.13,10-.06,16.74c-.22,7.69,1,12.91,1,17.34h0c0,2-1.09,3.71-3.82,5.09-4.54,2.3-13.43,2.29-18,0-2.74-1.38-3.92-3.35-3.92-5.35Z" style="fill:#fff"></path><path d="M175.15,201.71c2.48,2.27,6,2.33,8.42,2.23,1.11-.05,4.73-.81,4.45-1.2s-2.41-.07-5.29-.12a8.49,8.49,0,0,1-6.38-3.42S172.68,199.44,175.15,201.71Zm18.63-.13a5.26,5.26,0,0,0,4-2c.08-1,.15-1.94.2-2.89a5.37,5.37,0,0,1-2.9,3.67C194.24,200.9,193,201.46,193.78,201.58Z" style="fill:#f5f5f5"></path><path d="M173.71,209.09a89.57,89.57,0,0,0-.23-9.74c-.07-1.09-.2-2.72-.28-4.52h5.26c-.88,1.45.46,11.55.46,11.55C178.92,207.43,177.31,209.19,173.71,209.09Z" style="opacity:0.2"></path><path d="M188.22,199.73a.33.33,0,0,1,0-.25.71.71,0,0,1,.1-.31l1.93-3.4.18-.29a.56.56,0,0,1,.23-.25l1.1-.64c.07,0,.13,0,.17,0a.28.28,0,0,1,.08.22v8.95a.67.67,0,0,1-.08.3.37.37,0,0,1-.17.21l-1.18.68a.12.12,0,0,1-.17,0,.28.28,0,0,1-.07-.22v-6.06l-1.07,1.87a.31.31,0,0,1-.18.18.13.13,0,0,1-.16,0Z" style="fill:#90CAF9"></path><path d="M176.37,183.65c2.63,1.53,4.09,6.19,1.76,12.08-.54,1.64-.52,8.21-.4,9.44,0,2.58-9.45,2.58-9.45,0,0,0,.41-2,.75-5s-.4-6.73.36-9.8a7.51,7.51,0,0,1,4.3-5.37Z" style="fill:#ebebeb"></path><path d="M168.61,203.26c.08-.48.16-1,.24-1.66a4.52,4.52,0,0,0,.58.4,8.07,8.07,0,0,0,7.26,0,3.66,3.66,0,0,0,1-.8c0,.67,0,1.32,0,1.9a3.56,3.56,0,0,1-1,.78,8,8,0,0,1-7.26,0A3.91,3.91,0,0,1,168.61,203.26Z" style="fill:#90CAF9"></path><path d="M171.27,193.54a.21.21,0,0,0,.19.23h0a.21.21,0,0,0,.21-.19c0-.22,0-.45.06-.7.11-1.61.26-3.6,2.3-5s3.06-2,4.18-2.71l1-.59a13.79,13.79,0,0,0,2.84-2.46.21.21,0,0,0,0-.3.22.22,0,0,0-.3,0,13.69,13.69,0,0,1-2.74,2.37l-1,.59c-1.12.67-2.29,1.38-4.2,2.72-2.21,1.56-2.37,3.75-2.48,5.36Zm1.58-.11c0,.24,0,.47-.07.68a.2.2,0,0,0,.18.24h0a.21.21,0,0,0,.21-.18c0-.22.05-.46.07-.7.16-1.6.36-3.6,2.44-5s3.12-2,4.26-2.6c.32-.18.65-.36,1-.56a13.71,13.71,0,0,0,2.91-2.38.22.22,0,0,0,0-.3.21.21,0,0,0-.3,0,14.35,14.35,0,0,1-2.81,2.29c-.33.2-.66.38-1,.56-1.15.65-2.34,1.32-4.29,2.62C173.23,189.63,173,191.83,172.85,193.43ZM190.7,181l-.15.4a6,6,0,0,0,2.22.24c.5,0,1-.06,1.56-.1a25.57,25.57,0,0,1,2.76-.11,7.16,7.16,0,0,1,2.65.52l-.06-.08-.46-.55h0a9.3,9.3,0,0,0-2.12-.3,23.92,23.92,0,0,0-2.8.11c-.52,0-1,.08-1.51.09A5.47,5.47,0,0,1,190.7,181Zm-.26-1.37-.15.4a6.55,6.55,0,0,0,2.53.22l1.25-.08a25.49,25.49,0,0,1,2.75-.11,9.31,9.31,0,0,1,1.13.1,5.19,5.19,0,0,0-.91-.52h-.2a26.21,26.21,0,0,0-2.8.11l-1.21.08A6.4,6.4,0,0,1,190.44,179.61Z" style="fill:#90CAF9"></path><path d="M179.65,182.33a1.27,1.27,0,0,1,.27-1.48,10.57,10.57,0,0,1,5.26-3.13c3.22-.75,5.06.41,5.55,1.3,1,1.33,1,4.52.21,6.06a3.93,3.93,0,0,1-4.56,1.63c-2.32-.71-3.93-2.6-4.83-3.25S179.86,182.71,179.65,182.33Z" style="fill:#90CAF9"></path><path d="M179.92,180.85a10.57,10.57,0,0,1,5.26-3.13,7.08,7.08,0,0,1,3.72,0,6.54,6.54,0,0,1,1.21,2s-8.46,2.75-9.31,2.35a4.53,4.53,0,0,1-1.16-.84A1.25,1.25,0,0,1,179.92,180.85Z" style="opacity:0.30000000000000004"></path><path d="M180.8,182.1a7.28,7.28,0,0,1,1.82,1,10.58,10.58,0,0,0,3.67,2.52,3,3,0,0,0,4.27-2.37c.22-1.64-.06-4.22-1.78-4.73a7.49,7.49,0,0,0-5.67.83C181.73,180.19,179.9,181.7,180.8,182.1Z" style="fill:#263238"></path></g><g id="freepik--jersey--inject-2"><path d="M187.88,219.37c3.17,0,4.86.3,6.83,2.83,1.85,2.36,1.06,6,1.14,9a36.73,36.73,0,0,0,.92,7.08c0,2.58-9.46,2.58-9.46,0Z" style="fill:#ebebeb"></path><path d="M187.42,234.8a3.61,3.61,0,0,0,.79.59,8,8,0,0,0,7.26,0,4.18,4.18,0,0,0,.69-.48c.08.61.16,1.16.25,1.64a3.83,3.83,0,0,1-.94.73,8,8,0,0,1-7.26,0,4.22,4.22,0,0,1-.85-.65Z" style="fill:#90CAF9"></path><path d="M194.06,234.8a25.55,25.55,0,0,0,.65,5.14c-2.78.71-7.4.18-7.4-1.63l.29-9.49h5.1A12.52,12.52,0,0,1,194.06,234.8Z" style="opacity:0.2"></path><path d="M167.81,261.91c.36-3.81.49-5,.73-8.7.11-1.75.16-2.94.2-3.78a84.66,84.66,0,0,0-.23-9.73c-.2-3.42-1-12,.82-14.65a15.12,15.12,0,0,0,5.14-3.35,11.22,11.22,0,0,1,5.75-3.63c3.21-.75,5.05.41,5.54,1.3h2.12s3.69,1.23,4.72,8.73.14,10,0,16.74c-.22,7.69.95,12.91.95,17.33h0c0,2-1.09,3.71-3.82,5.1-4.54,2.3-13.43,2.29-18,0-2.73-1.38-3.91-3.35-3.91-5.36Z" style="fill:#fff"></path><path d="M170.19,242.06c2.47,2.26,6,2.32,8.42,2.22,1.1,0,4.72-.8,4.44-1.2s-2.41-.06-5.28-.11a8.51,8.51,0,0,1-6.39-3.42S167.71,239.79,170.19,242.06Zm18.62-.13a5.31,5.31,0,0,0,4-2c.07-1,.15-1.95.2-2.89a5.41,5.41,0,0,1-2.91,3.67C189.27,241.24,188,241.81,188.81,241.93Z" style="fill:#f5f5f5"></path><path d="M168.74,249.43a86.92,86.92,0,0,0-.23-9.73c-.06-1.09-.19-2.72-.28-4.52h5.26c-.88,1.45.46,11.55.46,11.55C174,247.78,172.35,249.54,168.74,249.43Z" style="opacity:0.2"></path><path d="M188.2,234.11a.14.14,0,0,1,.17,0,.29.29,0,0,1,.07.22v1.47a1,1,0,0,1-.06.32c0,.1-.08.2-.12.27l-1.09,2.32a1.27,1.27,0,0,1,1.14.28,1.94,1.94,0,0,1,.44,1.48,5.32,5.32,0,0,1-.7,2.76,5.24,5.24,0,0,1-2,1.92,3,3,0,0,1-1.15.43,1.34,1.34,0,0,1-.84-.14,1.28,1.28,0,0,1-.53-.57,2.29,2.29,0,0,1-.19-.9.53.53,0,0,1,.06-.24.38.38,0,0,1,.14-.18l1.13-.65c.13-.07.23-.08.29,0l.22.15a.61.61,0,0,0,.32.1.93.93,0,0,0,.55-.18,2.34,2.34,0,0,0,.72-.64,1.48,1.48,0,0,0,.28-.87c0-.32-.1-.5-.28-.54a1.05,1.05,0,0,0-.72.19l-.75.43a.12.12,0,0,1-.17,0,.29.29,0,0,1-.07-.22V240.1a.91.91,0,0,1,.06-.32c0-.1.09-.2.13-.29l1-2-2.35,1.36a.14.14,0,0,1-.17,0,.34.34,0,0,1-.07-.22v-1.47a.92.92,0,0,1,.07-.31.54.54,0,0,1,.17-.21Z" style="fill:#90CAF9"></path><path d="M171.4,224c2.63,1.53,4.09,6.19,1.77,12.07-.55,1.65-.53,8.22-.4,9.45,0,2.57-9.46,2.57-9.46,0,0,0,.41-2,.75-5s-.4-6.73.36-9.8a7.56,7.56,0,0,1,4.3-5.37Z" style="fill:#ebebeb"></path><path d="M163.64,243.61c.08-.48.16-1,.25-1.67a3.59,3.59,0,0,0,.57.4,8,8,0,0,0,7.27,0,3.41,3.41,0,0,0,1-.79c0,.67,0,1.32,0,1.9a3.9,3.9,0,0,1-1,.78,8,8,0,0,1-7.27,0A3.91,3.91,0,0,1,163.64,243.61Z" style="fill:#90CAF9"></path><path d="M166.3,233.89a.22.22,0,0,0,.19.23h0a.21.21,0,0,0,.21-.19c0-.22.05-.46.06-.7.12-1.61.26-3.6,2.3-5s3.06-2,4.19-2.71l1-.59a13.79,13.79,0,0,0,2.84-2.46.21.21,0,0,0,0-.3.23.23,0,0,0-.3,0,13.35,13.35,0,0,1-2.74,2.37l-1,.59c-1.13.68-2.3,1.38-4.21,2.73-2.21,1.55-2.36,3.75-2.48,5.36C166.34,233.44,166.33,233.67,166.3,233.89Zm1.58-.12c0,.25,0,.48-.07.69a.21.21,0,0,0,.18.24h0a.21.21,0,0,0,.21-.18c0-.22.05-.46.08-.7.15-1.61.35-3.6,2.43-5s3.12-2,4.26-2.6l1-.56a13.82,13.82,0,0,0,2.9-2.38.21.21,0,1,0-.31-.28,13.79,13.79,0,0,1-2.8,2.29l-1,.56c-1.15.65-2.33,1.32-4.28,2.62C168.26,230,168,232.17,167.88,233.77Zm17.85-12.44-.15.4a6.07,6.07,0,0,0,2.23.23c.49,0,1-.05,1.55-.09a25.78,25.78,0,0,1,2.76-.11,7,7,0,0,1,2.65.52l-.06-.08c-.15-.2-.3-.38-.45-.55h0a9.13,9.13,0,0,0-2.11-.3,22.08,22.08,0,0,0-2.81.11l-1.51.09A5.49,5.49,0,0,1,185.73,221.33Zm-.26-1.37-.15.39a6.35,6.35,0,0,0,2.53.23l1.25-.08a25.57,25.57,0,0,1,2.76-.11,7.52,7.52,0,0,1,1.12.1,5.11,5.11,0,0,0-.9-.52h-.21c-.92,0-1.87,0-2.8.11l-1.21.08A6.24,6.24,0,0,1,185.47,220Z" style="fill:#90CAF9"></path><path d="M174.68,222.67a1.26,1.26,0,0,1,.28-1.48,10.59,10.59,0,0,1,5.26-3.12c3.21-.75,5.05.41,5.54,1.3,1,1.33,1,4.52.22,6.06a3.94,3.94,0,0,1-4.57,1.63c-2.32-.71-3.93-2.6-4.83-3.25S174.89,223.06,174.68,222.67Z" style="fill:#90CAF9"></path><path d="M175,221.19a10.59,10.59,0,0,1,5.26-3.12,6.94,6.94,0,0,1,3.71,0,6.54,6.54,0,0,1,1.21,2s-8.45,2.75-9.31,2.35a4.58,4.58,0,0,1-1.16-.85A1.54,1.54,0,0,1,175,221.19Z" style="opacity:0.30000000000000004"></path><path d="M175.83,222.45a7,7,0,0,1,1.82,1,10.58,10.58,0,0,0,3.67,2.52,3,3,0,0,0,4.28-2.37c.21-1.64-.07-4.22-1.78-4.73a7.51,7.51,0,0,0-5.68.83C176.76,220.54,174.93,222.05,175.83,222.45Z" style="fill:#263238"></path></g><g id="freepik--jersey--inject-2"><path d="M173.59,255.54c3.17,0,4.86.3,6.83,2.83,1.85,2.37,1.06,6,1.14,9a37.38,37.38,0,0,0,.91,7.08c0,2.57-9.45,2.57-9.45,0Z" style="fill:#ebebeb"></path><path d="M173.12,271a4.39,4.39,0,0,0,.8.6,8,8,0,0,0,7.26,0,4.1,4.1,0,0,0,.68-.49c.08.61.17,1.16.26,1.64a4.11,4.11,0,0,1-.94.74,8.07,8.07,0,0,1-7.26,0,3.48,3.48,0,0,1-.85-.66Z" style="fill:#90CAF9"></path><path d="M179.77,271a25.55,25.55,0,0,0,.65,5.14c-2.78.72-7.4.18-7.4-1.62l.28-9.49h5.11A12.48,12.48,0,0,1,179.77,271Z" style="opacity:0.2"></path><path d="M153.52,298.09c.36-3.81.49-5,.73-8.7.11-1.76.16-2.95.2-3.78a89.57,89.57,0,0,0-.23-9.74c-.21-3.42-1-12,.82-14.65a15,15,0,0,0,5.13-3.35,11.37,11.37,0,0,1,5.76-3.63c3.21-.75,5,.41,5.54,1.3h2.12s3.69,1.24,4.72,8.73.13,10-.06,16.74c-.22,7.69,1,12.91,1,17.34h0c0,2-1.09,3.71-3.82,5.09-4.54,2.3-13.43,2.29-18,0-2.74-1.38-3.91-3.35-3.91-5.35Z" style="fill:#fff"></path><path d="M155.89,278.23c2.48,2.27,6,2.33,8.43,2.23,1.1,0,4.72-.81,4.44-1.2s-2.41-.07-5.29-.12a8.49,8.49,0,0,1-6.38-3.42S153.42,276,155.89,278.23Zm18.63-.13a5.26,5.26,0,0,0,4-2c.08-1,.15-1.94.21-2.89a5.41,5.41,0,0,1-2.91,3.67C175,277.42,173.71,278,174.52,278.1Z" style="fill:#f5f5f5"></path><path d="M154.45,285.61a89.57,89.57,0,0,0-.23-9.74c-.07-1.09-.19-2.72-.28-4.51h5.26c-.88,1.44.46,11.54.46,11.54C159.66,284,158.05,285.71,154.45,285.61Z" style="opacity:0.2"></path><path d="M174.23,273.21a5.52,5.52,0,0,1-.06.81,4.26,4.26,0,0,1-.18.83,7.77,7.77,0,0,1-.34.9c-.14.31-.32.64-.52,1l-1.26,2.2,2.26-1.31a.14.14,0,0,1,.17,0,.28.28,0,0,1,.07.22v1.47a.66.66,0,0,1-.07.3.54.54,0,0,1-.17.21l-4.75,2.75c-.07,0-.13,0-.17,0a.28.28,0,0,1-.08-.22v-1.19a2.1,2.1,0,0,1,.06-.48,1.87,1.87,0,0,1,.2-.49l2.69-4.52a3.34,3.34,0,0,0,.4-.88,3,3,0,0,0,.08-.63c0-.06,0-.15,0-.25a.83.83,0,0,0-.1-.29.44.44,0,0,0-.23-.17.58.58,0,0,0-.4.11,1.23,1.23,0,0,0-.41.37,2,2,0,0,0-.25.44,3.71,3.71,0,0,0-.12.41c0,.13-.05.23-.06.29a.83.83,0,0,1-.14.34,1,1,0,0,1-.22.19l-1.11.64a.12.12,0,0,1-.14,0,.25.25,0,0,1-.06-.19,5.84,5.84,0,0,1,.17-1.25,6,6,0,0,1,.46-1.31,5.9,5.9,0,0,1,.77-1.21,4.06,4.06,0,0,1,1.1-.92,2,2,0,0,1,1-.33,1.08,1.08,0,0,1,.76.28,1.76,1.76,0,0,1,.46.77A3.9,3.9,0,0,1,174.23,273.21Z" style="fill:#90CAF9"></path><path d="M157.11,260.17c2.63,1.53,4.09,6.19,1.76,12.08-.54,1.64-.52,8.21-.4,9.44,0,2.58-9.45,2.58-9.45,0,0,0,.41-2,.75-5s-.4-6.73.36-9.8a7.51,7.51,0,0,1,4.3-5.37Z" style="fill:#ebebeb"></path><path d="M149.35,279.78c.08-.48.16-1,.24-1.66a4.52,4.52,0,0,0,.58.4,8.07,8.07,0,0,0,7.26,0,3.51,3.51,0,0,0,1-.8c0,.67,0,1.32,0,1.9a3.56,3.56,0,0,1-1,.78,8,8,0,0,1-7.26,0A3.6,3.6,0,0,1,149.35,279.78Z" style="fill:#90CAF9"></path><path d="M152,270.06a.21.21,0,0,0,.19.23h0a.21.21,0,0,0,.21-.19c0-.22,0-.45.06-.7.12-1.61.26-3.6,2.3-5s3.06-2,4.18-2.71l1-.59a13.47,13.47,0,0,0,2.84-2.46.21.21,0,0,0,0-.3.22.22,0,0,0-.3,0,13.69,13.69,0,0,1-2.74,2.37l-1,.59c-1.13.68-2.3,1.38-4.21,2.72-2.21,1.56-2.37,3.75-2.48,5.36Q152,269.73,152,270.06Zm1.58-.11c0,.24,0,.47-.07.68a.2.2,0,0,0,.18.24h0a.21.21,0,0,0,.21-.18c0-.22.05-.46.07-.7.16-1.6.36-3.59,2.44-5s3.12-1.95,4.26-2.6l1-.56a13.82,13.82,0,0,0,2.9-2.38.21.21,0,1,0-.31-.28,14,14,0,0,1-2.81,2.29c-.33.2-.66.38-1,.56-1.15.65-2.33,1.32-4.29,2.62C154,266.15,153.75,268.35,153.59,270Zm17.85-12.44-.15.39a6,6,0,0,0,2.22.24c.5,0,1-.06,1.56-.1a25.57,25.57,0,0,1,2.76-.11,7.16,7.16,0,0,1,2.65.52l-.06-.08c-.16-.2-.3-.38-.46-.55h0a9.3,9.3,0,0,0-2.12-.3,26.32,26.32,0,0,0-2.8.11c-.52,0-1,.08-1.51.09A5.7,5.7,0,0,1,171.44,257.51Zm-.26-1.38-.15.4a6.55,6.55,0,0,0,2.53.22l1.25-.08a25.49,25.49,0,0,1,2.75-.11,9.13,9.13,0,0,1,1.13.1,4.85,4.85,0,0,0-.91-.52h-.2a26.21,26.21,0,0,0-2.8.11l-1.21.08A6.4,6.4,0,0,1,171.18,256.13Z" style="fill:#90CAF9"></path><path d="M160.39,258.85a1.26,1.26,0,0,1,.28-1.48,10.48,10.48,0,0,1,5.26-3.13c3.21-.75,5,.41,5.54,1.3,1,1.33,1,4.52.22,6.07a3.94,3.94,0,0,1-4.57,1.62c-2.32-.71-3.93-2.6-4.83-3.25S160.6,259.23,160.39,258.85Z" style="fill:#90CAF9"></path><path d="M160.67,257.37a10.48,10.48,0,0,1,5.26-3.13,7.15,7.15,0,0,1,3.71,0,6.54,6.54,0,0,1,1.21,2s-8.45,2.75-9.31,2.35a4.3,4.3,0,0,1-1.16-.84A1.14,1.14,0,0,1,160.67,257.37Z" style="opacity:0.30000000000000004"></path><path d="M161.54,258.62a7.28,7.28,0,0,1,1.82,1,10.58,10.58,0,0,0,3.67,2.52,3,3,0,0,0,4.27-2.37c.22-1.64-.06-4.22-1.78-4.73a7.49,7.49,0,0,0-5.67.83C162.47,256.71,160.64,258.23,161.54,258.62Z" style="fill:#263238"></path></g><g id="freepik--jersey--inject-2"><path d="M326.9,166.87c3.16,0,4.85.3,6.83,2.83,1.85,2.36,1,6,1.14,9a37.22,37.22,0,0,0,.91,7.08c0,2.58-9.46,2.58-9.46,0Z" style="fill:#ebebeb"></path><path d="M326.43,182.3a4.67,4.67,0,0,0,.79.6,8.09,8.09,0,0,0,7.27,0,4.77,4.77,0,0,0,.68-.49c.08.61.17,1.16.25,1.64a4,4,0,0,1-.93.73,8,8,0,0,1-7.27,0,3.88,3.88,0,0,1-.85-.65Z" style="fill:#90CAF9"></path><path d="M333.07,182.3a24.85,24.85,0,0,0,.66,5.14c-2.78.72-7.41.18-7.41-1.63l.29-9.49h5.1A12.52,12.52,0,0,1,333.07,182.3Z" style="opacity:0.2"></path><path d="M306.82,209.41c.37-3.81.5-4.95.73-8.7.11-1.75.16-2.94.21-3.77a89.57,89.57,0,0,0-.23-9.74c-.21-3.42-1-12,.82-14.65a15.15,15.15,0,0,0,5.13-3.35,11.22,11.22,0,0,1,5.75-3.63c3.22-.75,5,.41,5.55,1.3h2.12s3.69,1.23,4.72,8.73.13,10-.06,16.74c-.22,7.69,1,12.91,1,17.33h0c0,2-1.09,3.7-3.82,5.09-4.55,2.3-13.44,2.29-18,0-2.73-1.38-3.91-3.35-3.91-5.36Z" style="fill:#fff"></path><path d="M309.2,189.56c2.47,2.26,6,2.32,8.42,2.22,1.1,0,4.72-.8,4.44-1.2s-2.4-.06-5.28-.11a8.49,8.49,0,0,1-6.38-3.42S306.73,187.29,309.2,189.56Zm18.62-.13a5.29,5.29,0,0,0,4-2c.08-1,.15-1.95.2-2.89a5.4,5.4,0,0,1-2.9,3.67C328.28,188.74,327,189.31,327.82,189.43Z" style="fill:#f5f5f5"></path><path d="M307.76,196.93a89.45,89.45,0,0,0-.23-9.73c-.07-1.09-.2-2.72-.28-4.52h5.26c-.88,1.45.45,11.55.45,11.55C313,195.28,311.36,197,307.76,196.93Z" style="opacity:0.2"></path><path d="M324.06,190.25l.14.18a.65.65,0,0,0,.18.15.57.57,0,0,0,.27,0,.93.93,0,0,0,.36-.13,1.48,1.48,0,0,0,.35-.28,1.84,1.84,0,0,0,.31-.41,2,2,0,0,0,.21-.49,2.12,2.12,0,0,0,.08-.57.69.69,0,0,0-.24-.63c-.16-.11-.38-.08-.65.08a.72.72,0,0,0-.24.19c-.08.08-.14.16-.21.24l-.17.22a.76.76,0,0,1-.14.13l-1.4.81a.14.14,0,0,1-.18,0,.29.29,0,0,1-.07-.23l.28-5.1a.87.87,0,0,1,.07-.31.43.43,0,0,1,.17-.2l3.85-2.23a.13.13,0,0,1,.17,0,.28.28,0,0,1,.07.22v1.47a.66.66,0,0,1-.07.3.46.46,0,0,1-.17.21l-2.62,1.51-.06,1.27a3.75,3.75,0,0,1,.37-.44,2.6,2.6,0,0,1,.46-.36,2.51,2.51,0,0,1,1-.34,1.2,1.2,0,0,1,.78.19,1.5,1.5,0,0,1,.51.73,4,4,0,0,1,.18,1.3,5.85,5.85,0,0,1-.2,1.58,5.94,5.94,0,0,1-.56,1.4,5.06,5.06,0,0,1-.83,1.14,4.78,4.78,0,0,1-1,.81,2.57,2.57,0,0,1-1.1.39,1.32,1.32,0,0,1-.81-.18,1.36,1.36,0,0,1-.52-.65,2.68,2.68,0,0,1-.19-1,.57.57,0,0,1,.06-.25.41.41,0,0,1,.14-.17l1.15-.66c.09-.05.16-.07.22,0A.21.21,0,0,1,324.06,190.25Z" style="fill:#90CAF9"></path><path d="M310.42,171.5c2.62,1.53,4.09,6.19,1.76,12.07-.55,1.65-.52,8.22-.4,9.45,0,2.58-9.46,2.58-9.46,0,0,0,.41-2,.76-5s-.4-6.73.36-9.8a7.53,7.53,0,0,1,4.29-5.37C309.8,171.8,310.42,171.5,310.42,171.5Z" style="fill:#ebebeb"></path><path d="M302.66,191.11c.07-.48.16-1,.24-1.67a4.11,4.11,0,0,0,.57.4,8,8,0,0,0,7.27,0,3.61,3.61,0,0,0,1-.79c0,.67,0,1.32,0,1.9a3.56,3.56,0,0,1-1,.78,8,8,0,0,1-7.27,0A4.11,4.11,0,0,1,302.66,191.11Z" style="fill:#90CAF9"></path><path d="M305.32,181.39a.21.21,0,0,0,.19.23h0a.21.21,0,0,0,.21-.19c0-.22,0-.46.06-.7.11-1.61.26-3.6,2.3-5s3.06-2,4.18-2.71l1-.59a14.43,14.43,0,0,0,2.84-2.46.22.22,0,0,0,0-.3.22.22,0,0,0-.29,0A14.26,14.26,0,0,1,313,172l-1,.58c-1.13.68-2.29,1.38-4.21,2.73-2.2,1.56-2.36,3.75-2.48,5.36C305.36,180.94,305.34,181.17,305.32,181.39Zm1.58-.12c0,.25,0,.48-.08.69a.22.22,0,0,0,.19.24h0a.21.21,0,0,0,.21-.18c0-.22.06-.46.08-.7.16-1.6.36-3.6,2.43-5s3.12-2,4.26-2.6l1-.56a14.33,14.33,0,0,0,2.91-2.38.21.21,0,1,0-.32-.28,13.79,13.79,0,0,1-2.8,2.29l-1,.56c-1.15.65-2.34,1.32-4.29,2.62C307.27,177.48,307.06,179.67,306.9,181.27Zm17.85-12.44-.16.4a6.07,6.07,0,0,0,2.23.23c.5,0,1-.05,1.56-.09a25.49,25.49,0,0,1,2.75-.11,7.27,7.27,0,0,1,2.66.52.42.42,0,0,1-.06-.08l-.46-.55h0a9.13,9.13,0,0,0-2.11-.3,24.09,24.09,0,0,0-2.81.11l-1.51.09A5.44,5.44,0,0,1,324.75,168.83Zm-.27-1.37-.15.39a6.39,6.39,0,0,0,2.53.23l1.26-.08a25.39,25.39,0,0,1,2.75-.11,7.66,7.66,0,0,1,1.13.1,5.58,5.58,0,0,0-.91-.52h-.2c-.93,0-1.88,0-2.81.11l-1.21.08A6.26,6.26,0,0,1,324.48,167.46Z" style="fill:#90CAF9"></path><path d="M313.7,170.17a1.27,1.27,0,0,1,.27-1.48,10.64,10.64,0,0,1,5.26-3.12c3.22-.75,5,.41,5.55,1.3,1,1.33,1,4.52.21,6.06a3.94,3.94,0,0,1-4.56,1.63c-2.33-.71-3.93-2.6-4.84-3.25S313.91,170.56,313.7,170.17Z" style="fill:#90CAF9"></path><path d="M314,168.69a10.64,10.64,0,0,1,5.26-3.12,7,7,0,0,1,3.72,0,6.51,6.51,0,0,1,1.2,2s-8.45,2.75-9.3,2.35a4.25,4.25,0,0,1-1.16-.85A1.3,1.3,0,0,1,314,168.69Z" style="opacity:0.30000000000000004"></path><path d="M314.85,170a6.93,6.93,0,0,1,1.81,1,10.78,10.78,0,0,0,3.67,2.52,3,3,0,0,0,4.28-2.37c.21-1.64-.06-4.22-1.78-4.73a7.48,7.48,0,0,0-5.67.83C315.77,168,313.94,169.55,314.85,170Z" style="fill:#263238"></path></g><g id="freepik--jersey--inject-2"><path d="M257.84,179c3.17,0,4.86.3,6.83,2.83,1.85,2.36,1.06,6,1.14,9a36.89,36.89,0,0,0,.92,7.08c0,2.57-9.46,2.57-9.46,0Z" style="fill:#ebebeb"></path><path d="M257.37,194.45a4.39,4.39,0,0,0,.8.6,8,8,0,0,0,7.26,0,3.72,3.72,0,0,0,.68-.49c.09.61.17,1.16.26,1.64a3.83,3.83,0,0,1-.94.73,8,8,0,0,1-7.26,0,3.23,3.23,0,0,1-.85-.65Z" style="fill:#90CAF9"></path><path d="M264,194.45a25.55,25.55,0,0,0,.65,5.14c-2.78.72-7.4.18-7.4-1.62l.29-9.49h5.1A12.48,12.48,0,0,1,264,194.45Z" style="opacity:0.2"></path><path d="M237.77,221.57c.36-3.81.49-5,.73-8.7.11-1.76.16-3,.2-3.78a89.57,89.57,0,0,0-.23-9.74c-.21-3.42-1-12,.82-14.65a15.24,15.24,0,0,0,5.14-3.35,11.29,11.29,0,0,1,5.75-3.63c3.21-.75,5,.41,5.54,1.3h2.12s3.69,1.24,4.72,8.73.14,10-.06,16.74c-.21,7.69,1,12.91,1,17.34h0c0,2-1.09,3.71-3.82,5.09-4.54,2.3-13.43,2.29-18,0-2.74-1.38-3.91-3.35-3.91-5.35Z" style="fill:#fff"></path><path d="M240.15,201.71c2.47,2.27,6,2.33,8.42,2.23,1.1-.05,4.72-.81,4.44-1.2s-2.41-.07-5.28-.12a8.49,8.49,0,0,1-6.39-3.42S237.67,199.44,240.15,201.71Zm18.62-.13a5.29,5.29,0,0,0,4-2c.07-1,.14-1.94.2-2.89a5.41,5.41,0,0,1-2.91,3.67C259.23,200.9,258,201.46,258.77,201.58Z" style="fill:#f5f5f5"></path><path d="M238.7,209.09a89.57,89.57,0,0,0-.23-9.74c-.07-1.09-.19-2.72-.28-4.52h5.26c-.88,1.45.46,11.55.46,11.55C243.91,207.43,242.31,209.19,238.7,209.09Z" style="opacity:0.2"></path><path d="M256.62,204.34a.12.12,0,0,1-.17,0,.28.28,0,0,1-.07-.22V202.7l-2.83,1.63a.14.14,0,0,1-.18,0,.32.32,0,0,1-.07-.22v-1.47a1.76,1.76,0,0,1,.12-.66l2.69-6.78a1.09,1.09,0,0,1,.15-.29.68.68,0,0,1,.18-.15l1.36-.79c.07,0,.13,0,.17,0a.28.28,0,0,1,.08.22v5.32l.77-.45a.13.13,0,0,1,.17,0,.3.3,0,0,1,.07.23v1.47a.66.66,0,0,1-.07.3.46.46,0,0,1-.17.21l-.77.45v1.41a.67.67,0,0,1-.08.3.34.34,0,0,1-.17.21Zm-.19-3.89v-2.54l-1.32,3.3Z" style="fill:#90CAF9"></path><path d="M241.36,183.65c2.63,1.53,4.09,6.19,1.76,12.08-.54,1.64-.52,8.21-.39,9.44,0,2.58-9.46,2.58-9.46,0,0,0,.41-2,.75-5s-.4-6.73.36-9.8a7.51,7.51,0,0,1,4.3-5.37Z" style="fill:#ebebeb"></path><path d="M233.6,203.26c.08-.48.16-1,.24-1.66a4.52,4.52,0,0,0,.58.4,8.07,8.07,0,0,0,7.26,0,3.51,3.51,0,0,0,1-.8c0,.67,0,1.32,0,1.9a3.56,3.56,0,0,1-1,.78,8,8,0,0,1-7.26,0A3.91,3.91,0,0,1,233.6,203.26Z" style="fill:#90CAF9"></path><path d="M236.26,193.54a.21.21,0,0,0,.19.23h0a.21.21,0,0,0,.21-.19c0-.22,0-.45.06-.7.12-1.61.26-3.6,2.3-5s3.06-2,4.18-2.71l1-.59a13.79,13.79,0,0,0,2.84-2.46.21.21,0,0,0,0-.3.22.22,0,0,0-.3,0,13.69,13.69,0,0,1-2.74,2.37l-1,.59c-1.13.67-2.3,1.38-4.21,2.72-2.21,1.56-2.37,3.75-2.48,5.36Q236.29,193.21,236.26,193.54Zm1.58-.11c0,.24,0,.47-.07.68a.2.2,0,0,0,.18.24h0a.21.21,0,0,0,.21-.18c0-.22.05-.46.07-.7.16-1.6.36-3.6,2.44-5s3.12-2,4.26-2.6l1-.56a13.82,13.82,0,0,0,2.9-2.38.22.22,0,0,0,0-.3.21.21,0,0,0-.3,0,14,14,0,0,1-2.81,2.29c-.33.2-.66.38-1,.56-1.15.65-2.33,1.32-4.28,2.62C238.22,189.63,238,191.83,237.84,193.43ZM255.69,181l-.15.4a6,6,0,0,0,2.22.24c.5,0,1-.06,1.56-.1a25.57,25.57,0,0,1,2.76-.11,7.16,7.16,0,0,1,2.65.52l-.06-.08c-.16-.2-.3-.38-.46-.55h0a9.3,9.3,0,0,0-2.12-.3,24,24,0,0,0-2.8.11c-.52,0-1,.08-1.51.09A5.47,5.47,0,0,1,255.69,181Zm-.26-1.37-.15.4a6.55,6.55,0,0,0,2.53.22l1.25-.08a25.49,25.49,0,0,1,2.75-.11,9.13,9.13,0,0,1,1.13.1,5.11,5.11,0,0,0-.9-.52h-.21a26.21,26.21,0,0,0-2.8.11l-1.21.08A6.4,6.4,0,0,1,255.43,179.61Z" style="fill:#90CAF9"></path><path d="M244.64,182.33a1.26,1.26,0,0,1,.28-1.48,10.48,10.48,0,0,1,5.26-3.13c3.21-.75,5,.41,5.54,1.3,1,1.33,1,4.52.22,6.06a4,4,0,0,1-4.57,1.63c-2.32-.71-3.93-2.6-4.83-3.25S244.85,182.71,244.64,182.33Z" style="fill:#90CAF9"></path><path d="M244.92,180.85a10.48,10.48,0,0,1,5.26-3.13,7,7,0,0,1,3.71,0,6.54,6.54,0,0,1,1.21,2s-8.45,2.75-9.31,2.35a4.53,4.53,0,0,1-1.16-.84A1.28,1.28,0,0,1,244.92,180.85Z" style="opacity:0.30000000000000004"></path><path d="M245.79,182.1a7.28,7.28,0,0,1,1.82,1,10.58,10.58,0,0,0,3.67,2.52,3,3,0,0,0,4.27-2.37c.22-1.64-.06-4.22-1.77-4.73a7.51,7.51,0,0,0-5.68.83C246.72,180.19,244.89,181.7,245.79,182.1Z" style="fill:#263238"></path></g><g id="freepik--jersey--inject-2"><path d="M233.74,245.81c3.16,0,4.85.3,6.82,2.83,1.85,2.36,1.06,6,1.14,9a36.73,36.73,0,0,0,.92,7.08c0,2.58-9.46,2.58-9.46,0Z" style="fill:#ebebeb"></path><path d="M233.27,261.24a3.61,3.61,0,0,0,.79.59,8,8,0,0,0,7.27,0,4.54,4.54,0,0,0,.68-.48c.08.61.17,1.16.25,1.63a3.74,3.74,0,0,1-.93.74,8,8,0,0,1-7.27,0,4.22,4.22,0,0,1-.85-.65Z" style="fill:#90CAF9"></path><path d="M239.91,261.24a24.67,24.67,0,0,0,.66,5.13c-2.79.72-7.41.18-7.41-1.62l.29-9.49h5.1A12.52,12.52,0,0,1,239.91,261.24Z" style="opacity:0.2"></path><path d="M213.66,288.35c.36-3.81.49-5,.73-8.7.11-1.76.16-2.94.21-3.78a86.8,86.8,0,0,0-.24-9.73c-.2-3.42-1-12,.82-14.65a15.12,15.12,0,0,0,5.14-3.35,11.16,11.16,0,0,1,5.75-3.63c3.22-.75,5.05.41,5.54,1.3h2.13s3.69,1.23,4.72,8.73.13,10-.06,16.73c-.22,7.7,1,12.91,1,17.34h0c0,2-1.1,3.71-3.83,5.1-4.54,2.3-13.43,2.29-18,0-2.73-1.38-3.91-3.35-3.91-5.36Z" style="fill:#fff"></path><path d="M216,268.49c2.47,2.27,6,2.33,8.42,2.23,1.1,0,4.72-.8,4.44-1.2s-2.41-.06-5.28-.11a8.47,8.47,0,0,1-6.38-3.42S213.57,266.23,216,268.49Zm18.62-.12a5.34,5.34,0,0,0,4-2c.07-1,.15-1.95.2-2.89a5.41,5.41,0,0,1-2.91,3.67C235.12,267.68,233.85,268.24,234.66,268.37Z" style="fill:#f5f5f5"></path><path d="M214.59,275.87a84.6,84.6,0,0,0-.23-9.73c-.06-1.1-.19-2.73-.28-4.52h5.26c-.88,1.45.46,11.54.46,11.54C219.8,274.21,218.2,276,214.59,275.87Z" style="opacity:0.2"></path><path d="M230.13,272.18a1,1,0,0,1,0-.19l1.94-8.1-2.68,1.55a.14.14,0,0,1-.17,0,.28.28,0,0,1-.07-.22v-1.47a.66.66,0,0,1,.07-.3.54.54,0,0,1,.17-.21l4.3-2.48c.07,0,.13,0,.17,0a.28.28,0,0,1,.08.22v1.29a3.7,3.7,0,0,1-.15.79l-1.95,8.12a2.47,2.47,0,0,1-.1.29.36.36,0,0,1-.16.2l-1.26.72a.11.11,0,0,1-.16,0A.24.24,0,0,1,230.13,272.18Z" style="fill:#90CAF9"></path><path d="M217.25,250.44c2.63,1.53,4.1,6.18,1.77,12.07-.55,1.64-.53,8.22-.4,9.45,0,2.57-9.46,2.57-9.46,0,0,0,.41-2,.75-5s-.4-6.73.36-9.8a7.56,7.56,0,0,1,4.3-5.37Z" style="fill:#ebebeb"></path><path d="M209.49,270.05c.08-.48.16-1,.25-1.67a3.59,3.59,0,0,0,.57.4,8,8,0,0,0,7.27,0,3.78,3.78,0,0,0,1-.79c0,.67,0,1.32,0,1.89a3.75,3.75,0,0,1-1,.79,8,8,0,0,1-7.27,0A4.19,4.19,0,0,1,209.49,270.05Z" style="fill:#90CAF9"></path><path d="M212.15,260.32a.23.23,0,0,0,.19.24h0a.22.22,0,0,0,.21-.19c0-.22,0-.46,0-.71.12-1.6.26-3.6,2.3-5s3.06-2,4.19-2.71l1-.6a13.56,13.56,0,0,0,2.84-2.45.21.21,0,1,0-.32-.28,13.35,13.35,0,0,1-2.74,2.37l-1,.59c-1.13.68-2.3,1.38-4.21,2.73-2.21,1.55-2.36,3.75-2.48,5.35C212.19,259.88,212.18,260.11,212.15,260.32Zm1.59-.11c0,.24-.05.47-.08.69a.22.22,0,0,0,.18.24h0a.21.21,0,0,0,.21-.18c0-.22,0-.46.08-.71.16-1.6.35-3.59,2.43-5s3.12-2,4.26-2.6l1-.56a13.82,13.82,0,0,0,2.9-2.38.21.21,0,0,0,0-.3.22.22,0,0,0-.3,0,13.33,13.33,0,0,1-2.8,2.3l-1,.56c-1.14.65-2.33,1.32-4.28,2.62C214.11,256.42,213.89,258.61,213.74,260.21Zm17.84-12.44-.15.39a5.85,5.85,0,0,0,2.23.24c.49,0,1-.05,1.56-.09a23.16,23.16,0,0,1,2.75-.11,7,7,0,0,1,2.65.52.24.24,0,0,0-.06-.08c-.15-.2-.3-.39-.45-.56h0a8.57,8.57,0,0,0-2.11-.31,24.11,24.11,0,0,0-2.81.12l-1.51.09A5.7,5.7,0,0,1,231.58,247.77Zm-.26-1.37-.15.39a6.39,6.39,0,0,0,2.53.23l1.25-.08a25.57,25.57,0,0,1,2.76-.11,7.4,7.4,0,0,1,1.12.1,5.11,5.11,0,0,0-.9-.52h-.21a26.32,26.32,0,0,0-2.8.11l-1.21.08A6.24,6.24,0,0,1,231.32,246.4Z" style="fill:#90CAF9"></path><path d="M220.53,249.11a1.27,1.27,0,0,1,.28-1.48,10.52,10.52,0,0,1,5.26-3.12c3.22-.75,5.05.41,5.54,1.3,1,1.33,1,4.52.22,6.06a4,4,0,0,1-4.57,1.63c-2.32-.71-3.93-2.61-4.83-3.25S220.74,249.5,220.53,249.11Z" style="fill:#90CAF9"></path><path d="M220.81,247.63a10.52,10.52,0,0,1,5.26-3.12,7,7,0,0,1,3.72,0,6.58,6.58,0,0,1,1.2,2s-8.45,2.76-9.31,2.35a4.3,4.3,0,0,1-1.16-.84A1.54,1.54,0,0,1,220.81,247.63Z" style="opacity:0.30000000000000004"></path><path d="M221.68,248.88a6.86,6.86,0,0,1,1.82,1.05,10.82,10.82,0,0,0,3.67,2.52,3,3,0,0,0,4.28-2.37c.21-1.64-.07-4.22-1.78-4.73a7.43,7.43,0,0,0-5.67.83C222.61,247,220.78,248.49,221.68,248.88Z" style="fill:#263238"></path></g><g id="freepik--jersey--inject-2"><path d="M219.44,282c3.17,0,4.86.3,6.83,2.83,1.85,2.36,1.06,6,1.14,9a36.92,36.92,0,0,0,.92,7.09c0,2.57-9.46,2.57-9.46,0Z" style="fill:#ebebeb"></path><path d="M219,297.41a4.39,4.39,0,0,0,.8.6,8.07,8.07,0,0,0,7.26,0,4.27,4.27,0,0,0,.68-.49c.09.61.17,1.16.26,1.64a3.83,3.83,0,0,1-.94.73,8,8,0,0,1-7.26,0,3.23,3.23,0,0,1-.85-.65Z" style="fill:#90CAF9"></path><path d="M225.62,297.41a25.55,25.55,0,0,0,.65,5.14c-2.78.72-7.4.18-7.4-1.62l.29-9.5h5.1A12.52,12.52,0,0,1,225.62,297.41Z" style="opacity:0.2"></path><path d="M199.37,324.52c.36-3.8.49-4.95.73-8.7.11-1.75.16-2.94.2-3.77a89.57,89.57,0,0,0-.23-9.74c-.2-3.42-1-12.05.82-14.65a15.24,15.24,0,0,0,5.14-3.35,11.22,11.22,0,0,1,5.75-3.63c3.21-.75,5.05.41,5.54,1.3h2.12s3.69,1.24,4.72,8.73.14,10-.06,16.74c-.21,7.69,1,12.91,1,17.34h0c0,2-1.09,3.7-3.82,5.09-4.54,2.3-13.43,2.29-18,0-2.73-1.38-3.91-3.35-3.91-5.36Z" style="fill:#fff"></path><path d="M201.75,304.67c2.47,2.26,6,2.33,8.42,2.22,1.1,0,4.72-.8,4.44-1.19s-2.41-.07-5.28-.12a8.51,8.51,0,0,1-6.39-3.42S199.27,302.4,201.75,304.67Zm18.62-.13a5.32,5.32,0,0,0,4-2c.07-1,.14-1.95.2-2.89a5.41,5.41,0,0,1-2.91,3.67C220.83,303.86,219.56,304.42,220.37,304.54Z" style="fill:#f5f5f5"></path><path d="M200.3,312.05a89.57,89.57,0,0,0-.23-9.74c-.07-1.09-.19-2.72-.28-4.52h5.26c-.88,1.45.46,11.55.46,11.55C205.51,310.39,203.91,312.15,200.3,312.05Z" style="opacity:0.2"></path><path d="M220.31,302.76a6.09,6.09,0,0,1-.21,1.59,6.63,6.63,0,0,1-.59,1.42,6,6,0,0,1-.85,1.18,4.32,4.32,0,0,1-1,.83,2.5,2.5,0,0,1-1,.36,1.41,1.41,0,0,1-.85-.19,1.57,1.57,0,0,1-.59-.75,3.41,3.41,0,0,1-.22-1.34A4.32,4.32,0,0,1,215,305c0-.26.1-.51.16-.76s.14-.47.22-.69l.22-.63,1.72-4.56c0-.07.07-.14.1-.23a.42.42,0,0,1,.18-.21l1.43-.83c.06,0,.1,0,.13,0a.24.24,0,0,1,.05.18.41.41,0,0,1,0,.12l0,.09L218,300.65a2,2,0,0,1,.89-.16,1.29,1.29,0,0,1,.74.28,1.65,1.65,0,0,1,.49.76A3.63,3.63,0,0,1,220.31,302.76Zm-3.71,2.14a1.3,1.3,0,0,0,.09.49.56.56,0,0,0,.24.26.51.51,0,0,0,.33.05,1,1,0,0,0,.37-.13,1.44,1.44,0,0,0,.37-.3,2,2,0,0,0,.33-.43,2.83,2.83,0,0,0,.23-.53,2,2,0,0,0,.09-.59,1.13,1.13,0,0,0-.09-.49.59.59,0,0,0-.23-.26.58.58,0,0,0-.33-.06,1,1,0,0,0-.37.14,1.62,1.62,0,0,0-.37.29,2,2,0,0,0-.33.44,2.16,2.16,0,0,0-.33,1.12Z" style="fill:#90CAF9"></path><path d="M203,286.61c2.63,1.53,4.09,6.19,1.77,12.07-.55,1.65-.53,8.22-.4,9.45,0,2.58-9.46,2.58-9.46,0,0,0,.41-2,.75-5s-.4-6.73.36-9.8a7.54,7.54,0,0,1,4.3-5.37Z" style="fill:#ebebeb"></path><path d="M195.2,306.22c.08-.48.16-1,.24-1.66a4.5,4.5,0,0,0,.58.39,8,8,0,0,0,7.26,0,3.33,3.33,0,0,0,1-.79c0,.67,0,1.32,0,1.9a3.56,3.56,0,0,1-1,.78,8,8,0,0,1-7.26,0A3.91,3.91,0,0,1,195.2,306.22Z" style="fill:#90CAF9"></path><path d="M197.86,296.5a.21.21,0,0,0,.19.23h0a.21.21,0,0,0,.21-.19c0-.22,0-.46.06-.7.12-1.61.26-3.6,2.3-5s3.06-2,4.18-2.71l1-.59a13.79,13.79,0,0,0,2.84-2.46.21.21,0,0,0,0-.3.22.22,0,0,0-.3,0,14,14,0,0,1-2.74,2.37l-1,.59c-1.13.67-2.3,1.37-4.21,2.72-2.21,1.56-2.37,3.75-2.48,5.36Q197.89,296.17,197.86,296.5Zm1.58-.11c0,.24,0,.47-.07.68a.2.2,0,0,0,.18.24h0a.22.22,0,0,0,.21-.18c0-.22.05-.46.07-.7.16-1.6.36-3.6,2.44-5s3.12-1.95,4.26-2.6l1-.56a13.82,13.82,0,0,0,2.9-2.38.22.22,0,0,0,0-.3.21.21,0,0,0-.3,0,14,14,0,0,1-2.81,2.29c-.33.2-.66.38-1,.56-1.15.65-2.33,1.32-4.28,2.62C199.82,292.59,199.6,294.78,199.44,296.39Zm17.85-12.45-.15.4a6,6,0,0,0,2.22.23c.5,0,1-.05,1.56-.09a25.57,25.57,0,0,1,2.76-.11,7.16,7.16,0,0,1,2.65.52l-.06-.08c-.16-.2-.3-.38-.46-.55h0a9.29,9.29,0,0,0-2.11-.3,24.09,24.09,0,0,0-2.81.11l-1.51.09A5.47,5.47,0,0,1,217.29,283.94Zm-.26-1.37-.15.39a6.35,6.35,0,0,0,2.53.23l1.25-.08a25.57,25.57,0,0,1,2.76-.11,9.14,9.14,0,0,1,1.12.1,5.11,5.11,0,0,0-.9-.52h-.21c-.92,0-1.87.05-2.8.11l-1.21.09A6.4,6.4,0,0,1,217,282.57Z" style="fill:#90CAF9"></path><path d="M206.24,285.28a1.26,1.26,0,0,1,.28-1.48,10.59,10.59,0,0,1,5.26-3.12c3.21-.75,5.05.41,5.54,1.3,1,1.33,1,4.52.22,6.06a4,4,0,0,1-4.57,1.63c-2.32-.71-3.93-2.6-4.83-3.25S206.45,285.67,206.24,285.28Z" style="fill:#90CAF9"></path><path d="M206.52,283.8a10.59,10.59,0,0,1,5.26-3.12,6.94,6.94,0,0,1,3.71,0,6.54,6.54,0,0,1,1.21,2s-8.45,2.75-9.31,2.35a4.58,4.58,0,0,1-1.16-.85A1.54,1.54,0,0,1,206.52,283.8Z" style="opacity:0.30000000000000004"></path><path d="M207.39,285.06a7,7,0,0,1,1.82,1,10.58,10.58,0,0,0,3.67,2.52,3,3,0,0,0,4.27-2.37c.22-1.64-.06-4.22-1.77-4.73a7.51,7.51,0,0,0-5.68.83C208.32,283.15,206.49,284.66,207.39,285.06Z" style="fill:#263238"></path></g><g id="freepik--jersey--inject-2"><path d="M372.75,193.31c3.16,0,4.85.3,6.83,2.83,1.85,2.36,1.05,6,1.14,9a37.22,37.22,0,0,0,.91,7.08c0,2.58-9.46,2.58-9.46,0Z" style="fill:#ebebeb"></path><path d="M372.28,208.74a4.17,4.17,0,0,0,.79.59,8,8,0,0,0,7.27,0,4.08,4.08,0,0,0,.68-.48c.08.61.17,1.16.25,1.63a3.57,3.57,0,0,1-.93.74,8,8,0,0,1-7.27,0,3.88,3.88,0,0,1-.84-.65Z" style="fill:#90CAF9"></path><path d="M378.92,208.74a25.55,25.55,0,0,0,.66,5.14c-2.78.71-7.41.17-7.41-1.63l.29-9.49h5.1A12.4,12.4,0,0,1,378.92,208.74Z" style="opacity:0.2"></path><path d="M352.67,235.85c.37-3.81.5-4.95.73-8.7.11-1.76.16-2.94.21-3.78a89.38,89.38,0,0,0-.23-9.73c-.21-3.42-1-12,.82-14.65a15.15,15.15,0,0,0,5.13-3.35,11.22,11.22,0,0,1,5.75-3.63c3.22-.75,5.06.41,5.55,1.3h2.12s3.69,1.23,4.72,8.73.13,10-.06,16.73c-.22,7.7,1,12.91,1,17.34h0c0,2-1.09,3.71-3.82,5.1-4.55,2.3-13.44,2.29-18,0-2.73-1.38-3.91-3.35-3.91-5.36Z" style="fill:#fff"></path><path d="M355.05,216c2.47,2.26,6,2.32,8.42,2.22,1.1,0,4.72-.8,4.45-1.2s-2.41-.06-5.29-.11a8.49,8.49,0,0,1-6.38-3.42S352.58,213.73,355.05,216Zm18.62-.13a5.33,5.33,0,0,0,4-2c.08-1,.15-2,.2-2.89a5.37,5.37,0,0,1-2.9,3.67C374.13,215.18,372.87,215.74,373.67,215.87Z" style="fill:#f5f5f5"></path><path d="M353.61,223.37a89.38,89.38,0,0,0-.23-9.73c-.07-1.1-.2-2.73-.28-4.52h5.26c-.88,1.45.45,11.54.45,11.54C358.81,221.71,357.21,223.47,353.61,223.37Z" style="opacity:0.2"></path><path d="M368.19,214.17a5.51,5.51,0,0,1,.22-1.57,6.51,6.51,0,0,1,.59-1.43,6.06,6.06,0,0,1,.85-1.17,4.16,4.16,0,0,1,1-.8,2.16,2.16,0,0,1,1-.33,1.36,1.36,0,0,1,.85.19,1.52,1.52,0,0,1,.58.75,3.29,3.29,0,0,1,.23,1.32,4.9,4.9,0,0,1-.06.77,5.93,5.93,0,0,1-.16.73q-.09.35-.21.69c-.08.22-.15.44-.23.65l-1.71,4.63c0,.07-.07.14-.1.23a.46.46,0,0,1-.18.21l-1.43.83c-.06,0-.1,0-.13,0a.3.3,0,0,1-.05-.18.41.41,0,0,1,0-.12l0-.09,1.15-3.16a1.79,1.79,0,0,1-.84.12,1.3,1.3,0,0,1-.7-.3,1.69,1.69,0,0,1-.49-.74A3.43,3.43,0,0,1,368.19,214.17Zm3.61-2.08a1.19,1.19,0,0,0-.08-.46.58.58,0,0,0-.22-.26.53.53,0,0,0-.31-.08.79.79,0,0,0-.36.13,1.44,1.44,0,0,0-.37.3,2.37,2.37,0,0,0-.31.43,2,2,0,0,0-.21.51,1.75,1.75,0,0,0-.08.55,1.05,1.05,0,0,0,.08.46.51.51,0,0,0,.21.26.48.48,0,0,0,.31.07.94.94,0,0,0,.37-.12,1.4,1.4,0,0,0,.36-.3,2.24,2.24,0,0,0,.31-.43,2.91,2.91,0,0,0,.22-.51A2.09,2.09,0,0,0,371.8,212.09Z" style="fill:#90CAF9"></path><path d="M356.27,197.94c2.62,1.53,4.09,6.18,1.76,12.07-.55,1.64-.52,8.22-.4,9.45,0,2.57-9.46,2.57-9.46,0,0,0,.41-2,.76-5s-.4-6.73.36-9.8a7.51,7.51,0,0,1,4.3-5.37C355.65,198.24,356.27,197.94,356.27,197.94Z" style="fill:#ebebeb"></path><path d="M348.51,217.55c.07-.48.16-1,.24-1.67a4.11,4.11,0,0,0,.57.4,8,8,0,0,0,7.27,0,3.84,3.84,0,0,0,1-.79c0,.67,0,1.32,0,1.9a3.76,3.76,0,0,1-1,.78,8,8,0,0,1-7.27,0A4.11,4.11,0,0,1,348.51,217.55Z" style="fill:#90CAF9"></path><path d="M351.17,207.82a.22.22,0,0,0,.19.24h0a.21.21,0,0,0,.21-.19c0-.22,0-.46.06-.71.11-1.6.26-3.6,2.3-5s3.06-2,4.18-2.71l1-.6a13.87,13.87,0,0,0,2.84-2.45.23.23,0,0,0,0-.3.21.21,0,0,0-.3,0,14,14,0,0,1-2.74,2.37l-1,.59c-1.13.68-2.29,1.38-4.21,2.73-2.2,1.55-2.36,3.75-2.48,5.35C351.21,207.38,351.19,207.61,351.17,207.82Zm1.58-.11c0,.24-.05.48-.08.69a.22.22,0,0,0,.19.24h0a.21.21,0,0,0,.21-.18c0-.22.06-.46.08-.71.16-1.6.36-3.59,2.44-5,1.93-1.29,3.11-2,4.25-2.6l1-.56a14.33,14.33,0,0,0,2.91-2.38.21.21,0,0,0,0-.3.22.22,0,0,0-.3,0,13.33,13.33,0,0,1-2.8,2.3l-1,.56c-1.15.65-2.34,1.32-4.29,2.62C353.12,203.92,352.91,206.11,352.75,207.71Zm17.85-12.44-.15.4a6,6,0,0,0,2.22.23c.5,0,1-.05,1.56-.09a25.49,25.49,0,0,1,2.75-.11,7,7,0,0,1,2.66.52l-.06-.08c-.16-.2-.31-.39-.46-.56h0a9.3,9.3,0,0,0-2.12-.3,21.85,21.85,0,0,0-2.8.11l-1.52.09A5.65,5.65,0,0,1,370.6,195.27Zm-.26-1.37-.16.39a6.39,6.39,0,0,0,2.53.23l1.26-.08a25.39,25.39,0,0,1,2.75-.11,7.66,7.66,0,0,1,1.13.1,5.19,5.19,0,0,0-.91-.52h-.2a26.4,26.4,0,0,0-2.81.11l-1.2.08A6.22,6.22,0,0,1,370.34,193.9Z" style="fill:#90CAF9"></path><path d="M359.55,196.61a1.27,1.27,0,0,1,.27-1.48,10.57,10.57,0,0,1,5.26-3.12c3.22-.75,5.06.41,5.55,1.3,1,1.33,1,4.52.21,6.06a3.93,3.93,0,0,1-4.56,1.63c-2.33-.71-3.93-2.6-4.84-3.25S359.76,197,359.55,196.61Z" style="fill:#90CAF9"></path><path d="M359.82,195.13a10.57,10.57,0,0,1,5.26-3.12,7,7,0,0,1,3.72,0,6.58,6.58,0,0,1,1.2,2s-8.45,2.76-9.3,2.35a4,4,0,0,1-1.16-.84A1.3,1.3,0,0,1,359.82,195.13Z" style="opacity:0.30000000000000004"></path><path d="M360.7,196.38a7,7,0,0,1,1.81,1.05,10.87,10.87,0,0,0,3.68,2.52,3,3,0,0,0,4.27-2.37c.22-1.64-.06-4.22-1.78-4.73a7.48,7.48,0,0,0-5.67.83C361.62,194.48,359.79,196,360.7,196.38Z" style="fill:#263238"></path></g><g id="freepik--jersey--inject-2"><path d="M303.69,205.46c3.17,0,4.86.3,6.83,2.83,1.85,2.36,1.06,6,1.14,9a36.73,36.73,0,0,0,.92,7.08c0,2.58-9.46,2.58-9.46,0Z" style="fill:#ebebeb"></path><path d="M303.23,220.89a4,4,0,0,0,.79.6,8.07,8.07,0,0,0,7.26,0A4.9,4.9,0,0,0,312,221c.08.61.16,1.16.25,1.64a3.83,3.83,0,0,1-.94.73,8,8,0,0,1-7.26,0,3.88,3.88,0,0,1-.85-.65Z" style="fill:#90CAF9"></path><path d="M309.87,220.89a25.55,25.55,0,0,0,.65,5.14c-2.78.72-7.4.18-7.4-1.63l.29-9.49h5.1A12.52,12.52,0,0,1,309.87,220.89Z" style="opacity:0.2"></path><path d="M283.62,248c.36-3.81.49-4.95.73-8.7.11-1.75.16-2.94.2-3.77a87.11,87.11,0,0,0-.23-9.74c-.2-3.42-1-12,.82-14.65a15.12,15.12,0,0,0,5.14-3.35,11.22,11.22,0,0,1,5.75-3.63c3.21-.75,5.05.41,5.54,1.3h2.12s3.69,1.24,4.72,8.73.14,10-.06,16.74c-.21,7.69,1,12.91,1,17.34h0c0,2-1.09,3.7-3.82,5.09-4.54,2.3-13.43,2.29-18,0-2.73-1.38-3.91-3.35-3.91-5.36Z" style="fill:#fff"></path><path d="M286,228.15c2.47,2.26,6,2.33,8.42,2.22,1.1,0,4.72-.8,4.44-1.2s-2.41-.06-5.28-.11a8.51,8.51,0,0,1-6.39-3.42S283.52,225.88,286,228.15Zm18.62-.13a5.32,5.32,0,0,0,4-2c.07-1,.14-1.95.2-2.89a5.41,5.41,0,0,1-2.91,3.67C305.08,227.33,303.81,227.9,304.62,228Z" style="fill:#f5f5f5"></path><path d="M284.55,235.52a89.45,89.45,0,0,0-.23-9.73c-.06-1.09-.19-2.72-.28-4.52h5.26c-.88,1.45.46,11.55.46,11.55C289.76,233.87,288.16,235.63,284.55,235.52Z" style="opacity:0.2"></path><path d="M299.43,225.75a4.64,4.64,0,0,1,.21-1.36,5.38,5.38,0,0,1,.55-1.28A5.77,5.77,0,0,1,301,222a4.61,4.61,0,0,1,1-.78,2.41,2.41,0,0,1,1-.34,1.35,1.35,0,0,1,.81.16,1.43,1.43,0,0,1,.55.65,2.77,2.77,0,0,1,.2,1.12,4.45,4.45,0,0,1-.13,1.09A5.63,5.63,0,0,1,304,225a1.5,1.5,0,0,1,.45.63,2.77,2.77,0,0,1,.17,1,4.59,4.59,0,0,1-.21,1.36,6,6,0,0,1-.57,1.29,5.78,5.78,0,0,1-.84,1.11,5,5,0,0,1-1.05.83,2.88,2.88,0,0,1-1,.38,1.4,1.4,0,0,1-.85-.14,1.29,1.29,0,0,1-.56-.63,2.63,2.63,0,0,1-.21-1.12,4.61,4.61,0,0,1,.16-1.23,6.23,6.23,0,0,1,.45-1.15,1.59,1.59,0,0,1-.35-.63A3,3,0,0,1,299.43,225.75Zm1.53,3c0,.27.08.45.25.53s.42,0,.75-.16a2,2,0,0,0,.75-.7,1.56,1.56,0,0,0,.25-.82.53.53,0,0,0-.25-.53c-.16-.08-.41,0-.75.17a2,2,0,0,0-.75.7A1.53,1.53,0,0,0,301,228.77Zm.14-4a.58.58,0,0,0,.23.54c.15.09.36.06.63-.1a1.68,1.68,0,0,0,.64-.63,1.66,1.66,0,0,0,.23-.81.6.6,0,0,0-.23-.54.64.64,0,0,0-.64.1,1.68,1.68,0,0,0-.63.64A1.6,1.6,0,0,0,301.1,224.76Z" style="fill:#90CAF9"></path><path d="M287.21,210.09c2.63,1.53,4.09,6.19,1.77,12.07-.55,1.65-.53,8.22-.4,9.45,0,2.58-9.46,2.58-9.46,0,0,0,.41-2,.75-5s-.4-6.73.36-9.8a7.54,7.54,0,0,1,4.3-5.37Z" style="fill:#ebebeb"></path><path d="M279.45,229.7c.08-.48.16-1,.25-1.67a3.18,3.18,0,0,0,.57.4,8,8,0,0,0,7.27,0,3.41,3.41,0,0,0,1-.79c0,.67,0,1.32,0,1.9a3.9,3.9,0,0,1-1,.78,8,8,0,0,1-7.27,0A3.91,3.91,0,0,1,279.45,229.7Z" style="fill:#90CAF9"></path><path d="M282.11,220a.22.22,0,0,0,.19.23h0a.21.21,0,0,0,.21-.19c0-.22,0-.46.06-.7.12-1.61.26-3.6,2.3-5s3.06-2,4.19-2.71l1-.59a13.79,13.79,0,0,0,2.84-2.46.21.21,0,0,0,0-.3.23.23,0,0,0-.3,0,13.58,13.58,0,0,1-2.74,2.38l-1,.58c-1.13.68-2.3,1.38-4.21,2.73-2.21,1.56-2.37,3.75-2.48,5.36C282.15,219.53,282.14,219.76,282.11,220Zm1.58-.12c0,.25,0,.48-.07.69a.21.21,0,0,0,.18.24h0a.22.22,0,0,0,.21-.18c0-.22,0-.46.08-.7.15-1.6.35-3.6,2.43-5s3.12-2,4.26-2.6l1-.56a13.82,13.82,0,0,0,2.9-2.38.22.22,0,0,0,0-.3.21.21,0,0,0-.3,0,13.79,13.79,0,0,1-2.8,2.29l-1,.56c-1.15.65-2.33,1.32-4.28,2.62C284.07,216.07,283.85,218.26,283.69,219.86Zm17.85-12.44-.15.4a6,6,0,0,0,2.22.23c.5,0,1-.05,1.56-.09a25.67,25.67,0,0,1,2.76-.11,7.16,7.16,0,0,1,2.65.52l-.06-.08a6.37,6.37,0,0,0-.46-.55h0a9.21,9.21,0,0,0-2.11-.3,24.09,24.09,0,0,0-2.81.11l-1.51.09A5.49,5.49,0,0,1,301.54,207.42Zm-.26-1.37-.15.39a6.35,6.35,0,0,0,2.53.23l1.25-.08a25.57,25.57,0,0,1,2.76-.11,7.52,7.52,0,0,1,1.12.1,5.11,5.11,0,0,0-.9-.52h-.21c-.92,0-1.87,0-2.8.11l-1.21.08A6.24,6.24,0,0,1,301.28,206.05Z" style="fill:#90CAF9"></path><path d="M290.49,208.76a1.26,1.26,0,0,1,.28-1.48,10.59,10.59,0,0,1,5.26-3.12c3.21-.75,5.05.41,5.54,1.3,1,1.33,1,4.52.22,6.06a4,4,0,0,1-4.57,1.63c-2.32-.71-3.93-2.6-4.83-3.25S290.7,209.15,290.49,208.76Z" style="fill:#90CAF9"></path><path d="M290.77,207.28a10.59,10.59,0,0,1,5.26-3.12,6.94,6.94,0,0,1,3.71,0,6.54,6.54,0,0,1,1.21,2s-8.45,2.75-9.31,2.35a4.58,4.58,0,0,1-1.16-.85A1.54,1.54,0,0,1,290.77,207.28Z" style="opacity:0.30000000000000004"></path><path d="M291.64,208.54a7,7,0,0,1,1.82,1,10.58,10.58,0,0,0,3.67,2.52,3,3,0,0,0,4.27-2.37c.22-1.64-.06-4.22-1.77-4.73a7.51,7.51,0,0,0-5.68.83C292.57,206.63,290.74,208.14,291.64,208.54Z" style="fill:#263238"></path></g><g id="freepik--jersey--inject-2"><path d="M277.52,271.09c3.17,0,4.86.3,6.83,2.83,1.85,2.37,1.06,6,1.14,9a36.89,36.89,0,0,0,.92,7.08c0,2.57-9.46,2.57-9.46,0Z" style="fill:#ebebeb"></path><path d="M277.06,286.52a3.63,3.63,0,0,0,.79.6,8,8,0,0,0,7.26,0,4.2,4.2,0,0,0,.69-.49c.08.61.16,1.16.25,1.64a4.11,4.11,0,0,1-.94.74,8.07,8.07,0,0,1-7.26,0,3.91,3.91,0,0,1-.85-.66Z" style="fill:#90CAF9"></path><path d="M283.7,286.52a25.55,25.55,0,0,0,.65,5.14c-2.78.72-7.4.18-7.4-1.62l.29-9.49h5.1A12.48,12.48,0,0,1,283.7,286.52Z" style="opacity:0.2"></path><path d="M257.45,313.64c.36-3.81.49-5,.73-8.7.11-1.76.16-2.95.2-3.78a87.11,87.11,0,0,0-.23-9.74c-.2-3.42-1-12,.82-14.64a15.24,15.24,0,0,0,5.14-3.36,11.29,11.29,0,0,1,5.75-3.63c3.21-.75,5.05.41,5.54,1.3h2.12s3.69,1.24,4.72,8.73.14,10-.06,16.74c-.21,7.69,1,12.91,1,17.34h0c0,2-1.09,3.71-3.82,5.09-4.54,2.3-13.43,2.29-18,0-2.73-1.38-3.91-3.35-3.91-5.35Z" style="fill:#fff"></path><path d="M259.83,293.78c2.47,2.27,6,2.33,8.42,2.23,1.1-.05,4.72-.81,4.44-1.2s-2.41-.07-5.28-.12a8.51,8.51,0,0,1-6.39-3.42S257.35,291.51,259.83,293.78Zm18.62-.13a5.29,5.29,0,0,0,4-2c.07-1,.15-1.94.2-2.89a5.41,5.41,0,0,1-2.91,3.67C278.91,293,277.64,293.53,278.45,293.65Z" style="fill:#f5f5f5"></path><path d="M258.38,301.16a89.57,89.57,0,0,0-.23-9.74c-.06-1.09-.19-2.72-.28-4.51h5.26c-.88,1.44.46,11.54.46,11.54C263.59,299.5,262,301.26,258.38,301.16Z" style="opacity:0.2"></path><path d="M269.16,294.69a.38.38,0,0,1,0-.25.63.63,0,0,1,.1-.3l1.93-3.41.18-.29a.64.64,0,0,1,.24-.25l1.1-.63a.12.12,0,0,1,.17,0,.32.32,0,0,1,.07.22v8.95a.82.82,0,0,1-.07.3.42.42,0,0,1-.17.21l-1.18.69c-.07,0-.13,0-.17,0a.28.28,0,0,1-.08-.22v-6.05l-1.07,1.86a.31.31,0,0,1-.18.18.12.12,0,0,1-.16-.05Z" style="fill:#90CAF9"></path><path d="M276.6,287.15a2.18,2.18,0,0,1,1.16-.37,1.2,1.2,0,0,1,.81.35,2,2,0,0,1,.47.93,5.74,5.74,0,0,1,.19,1.32c0,.39,0,.81,0,1.24s0,.84,0,1.23a9.13,9.13,0,0,1-.19,1.54,6.72,6.72,0,0,1-.47,1.48,6.3,6.3,0,0,1-.81,1.28,4.2,4.2,0,0,1-1.16,1,2.28,2.28,0,0,1-1.16.37,1.17,1.17,0,0,1-.81-.35,2.15,2.15,0,0,1-.48-.93,6.48,6.48,0,0,1-.18-1.33c0-.37,0-.77,0-1.2s0-.86,0-1.26a10.25,10.25,0,0,1,.18-1.54,7.32,7.32,0,0,1,.48-1.48,5.53,5.53,0,0,1,.81-1.28A4.2,4.2,0,0,1,276.6,287.15Zm1,5.59c0-.8,0-1.57,0-2.33a3.29,3.29,0,0,0-.07-.59,1,1,0,0,0-.15-.42.4.4,0,0,0-.29-.17.75.75,0,0,0-.45.13,1.71,1.71,0,0,0-.45.39,1.92,1.92,0,0,0-.29.5,2.94,2.94,0,0,0-.16.6,3.74,3.74,0,0,0-.06.68c0,.78,0,1.56,0,2.32a3.67,3.67,0,0,0,.05.61,1,1,0,0,0,.17.41.39.39,0,0,0,.29.17.82.82,0,0,0,.45-.13,1.71,1.71,0,0,0,.45-.39,1.83,1.83,0,0,0,.29-.51,2.2,2.2,0,0,0,.16-.6A3.55,3.55,0,0,0,277.56,292.74Z" style="fill:#90CAF9"></path><path d="M261,275.72c2.63,1.53,4.09,6.19,1.77,12.08-.55,1.64-.53,8.21-.4,9.44,0,2.58-9.46,2.58-9.46,0,0,0,.41-2,.75-5s-.4-6.73.36-9.8a7.58,7.58,0,0,1,4.3-5.37Z" style="fill:#ebebeb"></path><path d="M253.28,295.33c.08-.48.16-1,.25-1.66a3.79,3.79,0,0,0,.57.4,8.09,8.09,0,0,0,7.27,0,3.61,3.61,0,0,0,1-.8c0,.67,0,1.32,0,1.9a3.9,3.9,0,0,1-1,.78,8,8,0,0,1-7.27,0A3.33,3.33,0,0,1,253.28,295.33Z" style="fill:#90CAF9"></path><path d="M255.94,285.61a.21.21,0,0,0,.19.23h0a.21.21,0,0,0,.21-.19c0-.22,0-.45.06-.7.12-1.6.26-3.6,2.3-5s3.06-2,4.19-2.71l1-.59a13.47,13.47,0,0,0,2.84-2.46.2.2,0,0,0,0-.29.21.21,0,0,0-.3,0,13.69,13.69,0,0,1-2.74,2.37l-1,.59c-1.13.68-2.3,1.38-4.21,2.72-2.21,1.56-2.37,3.75-2.48,5.36C256,285.16,256,285.39,255.94,285.61Zm1.58-.11c0,.24,0,.47-.07.68a.21.21,0,0,0,.18.24h0a.21.21,0,0,0,.21-.18c0-.22.05-.45.08-.7.15-1.6.35-3.59,2.43-5s3.12-1.95,4.26-2.6l1-.56a13.49,13.49,0,0,0,2.9-2.38.21.21,0,1,0-.31-.28,13.79,13.79,0,0,1-2.8,2.29l-1,.57c-1.15.64-2.33,1.31-4.28,2.61C257.9,281.7,257.68,283.9,257.52,285.5Zm17.85-12.44-.15.39a6,6,0,0,0,2.22.24c.5,0,1-.06,1.56-.1a25.67,25.67,0,0,1,2.76-.11,7.16,7.16,0,0,1,2.65.52l-.06-.08a6.37,6.37,0,0,0-.46-.55h0a9.21,9.21,0,0,0-2.11-.3,26.5,26.5,0,0,0-2.81.11c-.52,0-1,.08-1.51.09A5.72,5.72,0,0,1,275.37,273.06Zm-.26-1.38-.15.4a6.55,6.55,0,0,0,2.53.22l1.25-.08a25.57,25.57,0,0,1,2.76-.11,9.14,9.14,0,0,1,1.12.1,4.5,4.5,0,0,0-.9-.51h-.21a26.32,26.32,0,0,0-2.8.11l-1.21.08A6.42,6.42,0,0,1,275.11,271.68Z" style="fill:#90CAF9"></path><path d="M264.32,274.4a1.26,1.26,0,0,1,.28-1.48,10.52,10.52,0,0,1,5.26-3.13c3.21-.75,5.05.41,5.54,1.3,1,1.33,1,4.52.22,6.07a4,4,0,0,1-4.57,1.63c-2.32-.71-3.93-2.61-4.83-3.26S264.53,274.78,264.32,274.4Z" style="fill:#90CAF9"></path><path d="M264.6,272.92a10.52,10.52,0,0,1,5.26-3.13,7.15,7.15,0,0,1,3.71,0,6.54,6.54,0,0,1,1.21,2s-8.45,2.75-9.31,2.35a4.3,4.3,0,0,1-1.16-.84A1.4,1.4,0,0,1,264.6,272.92Z" style="opacity:0.30000000000000004"></path><path d="M265.47,274.17a7.28,7.28,0,0,1,1.82,1,10.73,10.73,0,0,0,3.67,2.53,3,3,0,0,0,4.27-2.38c.22-1.64-.06-4.22-1.77-4.73a7.51,7.51,0,0,0-5.68.83C266.4,272.26,264.57,273.78,265.47,274.17Z" style="fill:#263238"></path></g><g id="freepik--jersey--inject-2"><path d="M347.48,230.75c3.17,0,4.86.3,6.83,2.82s1.06,6,1.14,9a37.22,37.22,0,0,0,.91,7.08c0,2.57-9.45,2.57-9.45,0Z" style="fill:#ebebeb"></path><path d="M347,246.17a3.63,3.63,0,0,0,.8.6,8,8,0,0,0,7.26,0,4.1,4.1,0,0,0,.68-.49c.08.61.17,1.17.26,1.64a3.63,3.63,0,0,1-.94.74,8,8,0,0,1-7.26,0A3.72,3.72,0,0,1,347,248Z" style="fill:#90CAF9"></path><path d="M353.66,246.17a25.46,25.46,0,0,0,.65,5.14c-2.78.72-7.4.18-7.4-1.62l.28-9.49h5.11A12.48,12.48,0,0,1,353.66,246.17Z" style="opacity:0.2"></path><path d="M327.41,273.29c.36-3.81.49-5,.73-8.7.11-1.76.16-2.94.2-3.78a89.32,89.32,0,0,0-.23-9.73c-.21-3.43-1-12.05.82-14.65a15.36,15.36,0,0,0,5.14-3.36,11.22,11.22,0,0,1,5.75-3.62c3.21-.76,5.05.41,5.54,1.3h2.12s3.69,1.23,4.72,8.72.13,10-.06,16.74c-.22,7.7,1,12.91,1,17.34h0c0,2-1.09,3.71-3.82,5.09-4.54,2.3-13.43,2.3-18,0-2.74-1.38-3.91-3.35-3.91-5.36Z" style="fill:#fff"></path><path d="M329.78,253.43c2.48,2.27,6,2.33,8.43,2.23,1.1,0,4.72-.81,4.44-1.2s-2.41-.06-5.29-.11a8.49,8.49,0,0,1-6.38-3.43S327.31,251.16,329.78,253.43Zm18.63-.12a5.34,5.34,0,0,0,4-2c.07-1,.14-1.94.2-2.89-.63,2-1.14,2.52-2.91,3.67C348.87,252.62,347.6,253.18,348.41,253.31Z" style="fill:#f5f5f5"></path><path d="M328.34,260.81a89.32,89.32,0,0,0-.23-9.73c-.07-1.1-.19-2.73-.28-4.52h5.26c-.88,1.44.46,11.54.46,11.54C333.55,259.15,331.94,260.91,328.34,260.81Z" style="opacity:0.2"></path><path d="M340,253.87a.41.41,0,0,1,0-.26.67.67,0,0,1,.1-.3l1.93-3.41.18-.29a.72.72,0,0,1,.24-.25l1.1-.63a.12.12,0,0,1,.17,0,.32.32,0,0,1,.07.22v9a.87.87,0,0,1-.07.31.54.54,0,0,1-.17.21l-1.18.68c-.07,0-.13,0-.17,0a.28.28,0,0,1-.08-.22v-6.05L341,254.68a.31.31,0,0,1-.18.18.12.12,0,0,1-.16-.05Z" style="fill:#90CAF9"></path><path d="M344.48,251.25a.33.33,0,0,1,0-.25.71.71,0,0,1,.1-.31l1.93-3.4.18-.3a.59.59,0,0,1,.23-.24l1.1-.64a.13.13,0,0,1,.17,0,.32.32,0,0,1,.08.23v9a.67.67,0,0,1-.08.3.41.41,0,0,1-.17.21l-1.18.68a.12.12,0,0,1-.17,0,.28.28,0,0,1-.07-.22V250.2l-1.07,1.87a.31.31,0,0,1-.18.18.13.13,0,0,1-.16-.05Z" style="fill:#90CAF9"></path><path d="M331,235.37c2.63,1.53,4.09,6.19,1.76,12.08-.54,1.64-.52,8.21-.4,9.45,0,2.57-9.45,2.57-9.45,0,0,0,.41-2,.75-5s-.4-6.73.36-9.8a7.5,7.5,0,0,1,4.3-5.36Z" style="fill:#ebebeb"></path><path d="M323.24,255c.08-.48.16-1,.24-1.67a4.52,4.52,0,0,0,.58.4,8,8,0,0,0,7.26,0,3.68,3.68,0,0,0,1-.79c0,.66,0,1.31,0,1.89a3.78,3.78,0,0,1-1,.79,8.07,8.07,0,0,1-7.26,0A3.91,3.91,0,0,1,323.24,255Z" style="fill:#90CAF9"></path><path d="M325.9,245.26a.21.21,0,0,0,.19.23h0a.21.21,0,0,0,.21-.19c0-.22,0-.45.06-.7.12-1.6.26-3.6,2.3-5s3.06-2,4.18-2.71c.33-.19.65-.38,1-.59a13.89,13.89,0,0,0,2.84-2.45.21.21,0,1,0-.32-.28,13.69,13.69,0,0,1-2.74,2.37l-1,.59c-1.13.68-2.3,1.38-4.21,2.73-2.21,1.55-2.37,3.75-2.48,5.35Q325.93,244.93,325.9,245.26Zm1.58-.11c0,.24,0,.47-.07.69a.2.2,0,0,0,.18.23h0a.22.22,0,0,0,.21-.19c0-.22.05-.45.07-.7.16-1.6.36-3.59,2.44-5s3.12-2,4.26-2.6l1-.57a13.59,13.59,0,0,0,2.9-2.37.22.22,0,0,0,0-.3.21.21,0,0,0-.3,0,14.26,14.26,0,0,1-2.81,2.3l-1,.56c-1.15.65-2.33,1.32-4.29,2.61C327.86,241.36,327.64,243.55,327.48,245.15Zm17.85-12.44-.15.39a5.8,5.8,0,0,0,2.22.24l1.56-.09a21.3,21.3,0,0,1,2.76-.11,7,7,0,0,1,2.65.51l-.06-.08c-.16-.2-.3-.38-.46-.55h0a8.74,8.74,0,0,0-2.12-.31,26.32,26.32,0,0,0-2.8.11c-.52,0-1,.08-1.51.1A5.68,5.68,0,0,1,345.33,232.71Zm-.26-1.38-.15.4a6.55,6.55,0,0,0,2.53.22c.4,0,.82,0,1.25-.08.91-.06,1.86-.14,2.75-.11.42,0,.79.05,1.13.1a4.57,4.57,0,0,0-.91-.51h-.2a26.21,26.21,0,0,0-2.8.11l-1.21.08A6.2,6.2,0,0,1,345.07,231.33Z" style="fill:#90CAF9"></path><path d="M334.28,234.05a1.26,1.26,0,0,1,.28-1.48,10.4,10.4,0,0,1,5.26-3.12c3.21-.76,5.05.41,5.54,1.3,1,1.32,1,4.51.22,6.06a4,4,0,0,1-4.57,1.63c-2.32-.71-3.93-2.61-4.83-3.25S334.49,234.44,334.28,234.05Z" style="fill:#90CAF9"></path><path d="M334.56,232.57a10.4,10.4,0,0,1,5.26-3.12,6.94,6.94,0,0,1,3.71,0,6.5,6.5,0,0,1,1.21,2s-8.45,2.76-9.31,2.35a4.3,4.3,0,0,1-1.16-.84A1.34,1.34,0,0,1,334.56,232.57Z" style="opacity:0.30000000000000004"></path><path d="M335.43,233.82a7,7,0,0,1,1.82,1.05,10.72,10.72,0,0,0,3.67,2.52,3,3,0,0,0,4.27-2.38c.22-1.64-.06-4.22-1.78-4.72a7.49,7.49,0,0,0-5.67.82C336.36,231.91,334.53,233.43,335.43,233.82Z" style="fill:#263238"></path></g></g><g id="freepik--t-shirt-2--inject-2"><g id="freepik--jersey--inject-2"><path d="M396.27,312.16c-7.72,0-11.85.74-16.67,6.91-4.51,5.77-2.58,14.68-2.78,22.05a90.75,90.75,0,0,1-2.23,17.29c0,6.28,23.08,6.28,23.08,0Z" style="fill:#90CAF9"></path><path d="M396.27,312.16c-7.72,0-11.85.74-16.67,6.91-4.51,5.77-2.58,14.68-2.78,22.05a90.75,90.75,0,0,1-2.23,17.29c0,6.28,23.08,6.28,23.08,0Z" style="opacity:0.1"></path><path d="M397.41,349.82a9.46,9.46,0,0,1-1.93,1.46c-4.9,2.83-12.84,2.83-17.74,0a10,10,0,0,1-1.66-1.19c-.2,1.49-.41,2.84-.61,4a9.1,9.1,0,0,0,2.27,1.8c4.9,2.83,12.84,2.83,17.74,0a9.48,9.48,0,0,0,2.07-1.59Z" style="fill:#fff"></path><path d="M381.2,349.82a62.38,62.38,0,0,1-1.6,12.55c6.79,1.75,18.07.43,18.07-4l-.7-23.17H384.52C381.54,341.52,381.37,344.78,381.2,349.82Z" style="opacity:0.2"></path><path d="M445.28,416c-.9-9.3-1.21-12.1-1.79-21.24-.27-4.29-.39-7.18-.5-9.22-.44-8,.17-17.1.57-23.76.5-8.35,2.5-29.41-2-35.76-8.19-3.84-10.52-6.18-12.53-8.18s-6.18-7-14-8.86-12.33,1-13.53,3.17h-5.18s-9,3-11.52,21.31-.33,24.32.14,40.85c.54,18.79-2.34,31.52-2.34,42.33h0c0,4.89,2.67,9.05,9.33,12.43,11.09,5.62,32.79,5.6,43.85,0,6.67-3.37,9.55-8.18,9.55-13.08Z" style="fill:#90CAF9"></path><path d="M436.55,361.42c-2.06,3.36-8.57,8.23-15.58,8.35s-12.22-.68-12.9.28,8.16,2.81,10.84,2.93c5.88.24,14.52.09,20.56-5.44S436.55,361.42,436.55,361.42Zm-45.72,2.8c-4.32-2.8-5.56-4.06-7.09-9,.13,2.31.31,4.61.49,7.06,2.83,3.72,7.94,5.19,9.78,4.91S392.89,365.56,390.83,364.22Z" style="opacity:0.2"></path><path d="M443,385.55c-.44-8,.17-17.1.57-23.76.16-2.67.47-6.65.68-11H431.4c2.15,3.53-1.12,28.18-1.12,28.18C430.28,381.5,434.2,385.8,443,385.55Z" style="opacity:0.2"></path><path d="M394.61,358a1.49,1.49,0,0,1-.11-.74.59.59,0,0,1,.24-.46l4.72-2.86.43-.22a.59.59,0,0,1,.58.06l2.68,1.55a1.11,1.11,0,0,1,.42.51,1.72,1.72,0,0,1,.18.75v21.85a.68.68,0,0,1-.18.53.32.32,0,0,1-.42,0l-2.87-1.67a1.11,1.11,0,0,1-.42-.51,1.65,1.65,0,0,1-.18-.74V361.33l-2.61,1.53a.35.35,0,0,1-.44-.06,1.42,1.42,0,0,1-.4-.59Z" style="fill:#fff"></path><path d="M436.5,323.46c-6.41,3.73-10,15.11-4.3,29.48,1.33,4,1.28,20.05,1,23.05,0,6.29,23.09,6.29,23.09,0,0,0-1-4.86-1.84-12.2s1-16.44-.88-23.93c-1.6-6.44-4.84-10.24-10.49-13.1Z" style="fill:#90CAF9"></path><path d="M436.5,323.46c-6.41,3.73-10,15.11-4.3,29.48,1.33,4,1.28,20.05,1,23.05,0,6.29,23.09,6.29,23.09,0,0,0-1-4.86-1.84-12.2s1-16.44-.88-23.93c-1.6-6.44-4.84-10.24-10.49-13.1Z" style="opacity:0.1"></path><path d="M455.44,371.34c-.19-1.18-.39-2.54-.59-4.07a10.13,10.13,0,0,1-1.4,1c-4.9,2.83-12.84,2.83-17.74,0a9,9,0,0,1-2.38-1.94c0,1.64,0,3.22,0,4.63a9.23,9.23,0,0,0,2.37,1.92c4.9,2.83,12.84,2.83,17.74,0A9.44,9.44,0,0,0,455.44,371.34Z" style="fill:#fff"></path><path d="M448.81,345.91c-.28-3.91-.67-9.28-6.05-13.07-4.67-3.29-7.52-5-10.27-6.66-.79-.47-1.57-.93-2.38-1.43a33.09,33.09,0,0,1-6.69-5.79.52.52,0,0,0-.79.67,33.65,33.65,0,0,0,6.94,6l2.38,1.44c2.74,1.65,5.57,3.35,10.21,6.62,5,3.51,5.34,8.38,5.62,12.3,0,.6.08,1.17.14,1.71a.52.52,0,0,0,.51.47h.06a.51.51,0,0,0,.46-.56C448.89,347.07,448.85,346.5,448.81,345.91Zm-10.12-11.49c-4.76-3.17-7.66-4.8-10.46-6.39l-2.4-1.36a33.66,33.66,0,0,1-6.85-5.61.52.52,0,1,0-.76.7,34.07,34.07,0,0,0,7.09,5.8l2.41,1.37c2.79,1.58,5.66,3.2,10.4,6.35,5.07,3.37,5.55,8.24,5.94,12.15.06.6.12,1.17.19,1.71a.51.51,0,0,0,.51.45h.07a.51.51,0,0,0,.44-.58c-.07-.52-.12-1.09-.18-1.68C444.7,343.42,444.17,338.06,438.69,334.42Zm-42.26-17c-1.17,0-2.42-.13-3.69-.23a63,63,0,0,0-6.85-.27,22.26,22.26,0,0,0-5.16.75h0c-.37.41-.74.86-1.12,1.34l-.14.2a17.32,17.32,0,0,1,6.47-1.26,58.71,58.71,0,0,1,6.73.27c1.31.09,2.59.18,3.8.22a14.53,14.53,0,0,0,5.43-.57l-.37-1A13.65,13.65,0,0,1,396.43,317.46Zm-.1-3.38c-.95-.05-1.94-.13-2.95-.2a68.32,68.32,0,0,0-6.85-.27l-.49,0a11.83,11.83,0,0,0-2.22,1.27,20.33,20.33,0,0,1,2.75-.25,60.87,60.87,0,0,1,6.73.27c1,.07,2.07.15,3.06.19a15.48,15.48,0,0,0,6.17-.55l-.37-1A15.45,15.45,0,0,1,396.33,314.08Z" style="fill:#fff"></path><path d="M428.49,320.23a3.08,3.08,0,0,0-.67-3.61A25.65,25.65,0,0,0,415,309c-7.85-1.84-12.33,1-13.53,3.17-2.41,3.24-2.5,11-.53,14.8,2.17,4.14,7.55,5.08,11.15,4,5.67-1.73,9.59-6.36,11.79-7.94S428,321.17,428.49,320.23Z" style="fill:#fff"></path><path d="M427.82,316.62A25.65,25.65,0,0,0,415,309a17.1,17.1,0,0,0-9.07,0,16.08,16.08,0,0,0-2.94,4.91s20.63,6.73,22.72,5.74a10.54,10.54,0,0,0,2.83-2.05A3.25,3.25,0,0,0,427.82,316.62Z" style="opacity:0.30000000000000004"></path><path d="M425.69,319.67a17.32,17.32,0,0,0-4.44,2.55c-2.45,2.1-4.74,4.68-9,6.16-6,2.1-9.91-1.79-10.43-5.8s.15-10.3,4.34-11.54c5-1.47,10.25-.05,13.84,2C423.43,315,427.89,318.71,425.69,319.67Z" style="fill:#263238"></path></g></g><g id="freepik--t-shirt-1--inject-2"><g id="freepik--jersey--inject-2"><path d="M103.73,312.16c7.72,0,11.85.74,16.67,6.91,4.51,5.77,2.58,14.68,2.78,22.05a90.75,90.75,0,0,0,2.23,17.29c0,6.28-23.08,6.28-23.08,0Z" style="fill:#ebebeb"></path><path d="M102.59,349.82a9.46,9.46,0,0,0,1.93,1.46c4.9,2.83,12.84,2.83,17.74,0a10,10,0,0,0,1.66-1.19c.2,1.49.41,2.84.61,4a9.1,9.1,0,0,1-2.27,1.8c-4.9,2.83-12.84,2.83-17.74,0a9.48,9.48,0,0,1-2.07-1.59Z" style="fill:#90CAF9"></path><path d="M118.8,349.82a62.38,62.38,0,0,0,1.6,12.55c-6.79,1.75-18.07.43-18.07-4l.7-23.17h12.45C118.46,341.52,118.63,344.78,118.8,349.82Z" style="opacity:0.2"></path><path d="M54.72,416c.9-9.3,1.21-12.1,1.79-21.24.27-4.29.39-7.18.5-9.22.44-8-.17-17.1-.57-23.76-.5-8.35-2.5-29.41,2-35.76,8.19-3.84,10.52-6.18,12.53-8.18s6.18-7,14-8.86,12.33,1,13.53,3.17h5.18s9,3,11.52,21.31.33,24.32-.14,40.85c-.54,18.79,2.34,31.52,2.34,42.33h0c0,4.89-2.67,9.05-9.33,12.43-11.09,5.62-32.79,5.6-43.85,0-6.67-3.37-9.55-8.18-9.55-13.08Z" style="fill:#fff"></path><path d="M89.81,309.22h0c4.88,0,7.34,2.1,8,3.34l.24.42h5.5c1,.43,8.62,4.21,10.87,20.6,1.73,12.57,1.22,19.25.59,27.71-.28,3.7-.6,7.89-.74,13a208.29,208.29,0,0,0,1.36,28.24c.53,5.26,1,9.81,1,14.11,0,4.91-2.82,8.63-8.88,11.7-5.17,2.62-13,4.12-21.56,4.12s-16.38-1.5-21.55-4.11c-5.85-3-9.08-7.33-9.1-12.31l.29-3c.68-7,1-10.15,1.49-18.22.19-3,.31-5.25.4-7.08,0-.81.07-1.52.11-2.15A203.28,203.28,0,0,0,57.34,363l-.08-1.25c0-.87-.12-1.88-.2-3-.63-9.27-1.79-26.43,1.94-32.07,8.15-3.85,10.49-6.19,12.56-8.25l.66-.68a25.58,25.58,0,0,1,13-8,20.3,20.3,0,0,1,4.61-.57m0-.82A21.31,21.31,0,0,0,85,309c-7.86,1.84-12,6.85-14,8.86s-4.34,4.34-12.53,8.18c-4.51,6.35-2.51,27.41-2,35.76.4,6.66,1,15.76.57,23.76-.11,2-.23,4.93-.5,9.22-.58,9.14-.89,11.94-1.79,21.24,0,4.9,2.88,9.71,9.55,13.08,5.53,2.79,13.73,4.2,21.92,4.2s16.39-1.4,21.93-4.21c6.66-3.38,9.33-7.54,9.33-12.43h0c0-10.81-2.88-23.54-2.34-42.33.47-16.53,2.66-22.55.14-40.85s-11.52-21.31-11.52-21.31H98.55c-.93-1.68-3.83-3.76-8.74-3.76Z" style="fill:#e0e0e0"></path><path d="M60.53,367.54c6,5.53,14.68,5.68,20.56,5.44,2.68-.12,11.52-2,10.84-2.93s-5.88-.16-12.9-.28-13.52-5-15.58-8.35C63.45,361.42,54.5,362,60.53,367.54Zm45.46-.31c1.84.28,7-1.19,9.78-4.91.18-2.45.36-4.75.49-7.06-1.53,4.9-2.77,6.16-7.09,9C107.11,365.56,104,366.93,106,367.23Z" style="fill:#f5f5f5"></path><path d="M57,385.55c.44-8-.17-17.1-.57-23.76-.16-2.67-.47-6.65-.68-11H68.6c-2.15,3.53,1.12,28.18,1.12,28.18C69.72,381.5,65.8,385.8,57,385.55Z" style="opacity:0.2"></path><path d="M91.13,365.85a.9.9,0,0,1-.11-.62,2,2,0,0,1,.24-.74L96,356.18c.11-.21.26-.44.43-.72a1.63,1.63,0,0,1,.58-.61l2.68-1.55a.31.31,0,0,1,.41,0,.74.74,0,0,1,.18.55v21.85a1.71,1.71,0,0,1-.18.74,1,1,0,0,1-.41.51l-2.88,1.66a.33.33,0,0,1-.42,0,.74.74,0,0,1-.17-.54V363.29l-2.62,4.55a.87.87,0,0,1-.43.44.31.31,0,0,1-.4-.13Z" style="fill:#90CAF9"></path><path d="M63.5,323.46c6.41,3.73,10,15.11,4.3,29.48-1.33,4-1.28,20.05-1,23.05,0,6.29-23.09,6.29-23.09,0,0,0,1-4.86,1.84-12.2s-1-16.44.88-23.93c1.6-6.44,4.84-10.24,10.49-13.1Z" style="fill:#ebebeb"></path><path d="M44.56,371.34c.19-1.18.39-2.54.59-4.07a10.13,10.13,0,0,0,1.4,1c4.9,2.83,12.84,2.83,17.74,0a9,9,0,0,0,2.38-1.94c0,1.64,0,3.22,0,4.63a9.23,9.23,0,0,1-2.37,1.92c-4.9,2.83-12.84,2.83-17.74,0A9.44,9.44,0,0,1,44.56,371.34Z" style="fill:#90CAF9"></path><path d="M51.05,347.6a.51.51,0,0,0,.46.56h.06a.52.52,0,0,0,.51-.47c.06-.54.1-1.11.14-1.71.28-3.92.63-8.79,5.62-12.3,4.64-3.27,7.47-5,10.21-6.62l2.38-1.44a33.65,33.65,0,0,0,6.94-6,.52.52,0,0,0-.79-.67,33.09,33.09,0,0,1-6.69,5.79c-.81.5-1.59,1-2.38,1.43-2.75,1.66-5.6,3.37-10.27,6.66-5.38,3.79-5.77,9.16-6.05,13.07C51.15,346.5,51.11,347.07,51.05,347.6Zm3.86-.28c-.06.59-.11,1.16-.18,1.68a.51.51,0,0,0,.44.58h.07a.51.51,0,0,0,.51-.45c.07-.54.13-1.11.19-1.71.39-3.91.87-8.78,5.94-12.15,4.74-3.15,7.61-4.77,10.4-6.35l2.41-1.37a34.07,34.07,0,0,0,7.09-5.8.52.52,0,1,0-.76-.7,33.66,33.66,0,0,1-6.85,5.61L71.77,328c-2.8,1.59-5.7,3.22-10.46,6.39C55.83,338.06,55.3,343.42,54.91,347.32ZM98.48,317l-.37,1a14.53,14.53,0,0,0,5.43.57c1.21,0,2.49-.13,3.8-.22a58.71,58.71,0,0,1,6.73-.27,17.32,17.32,0,0,1,6.47,1.26l-.14-.2c-.38-.48-.75-.93-1.12-1.34h0a22.26,22.26,0,0,0-5.16-.75,63,63,0,0,0-6.85.27c-1.27.1-2.52.19-3.69.23A13.65,13.65,0,0,1,98.48,317Zm-.64-3.35-.37,1a15.48,15.48,0,0,0,6.17.55c1,0,2-.12,3.06-.19a60.87,60.87,0,0,1,6.73-.27,20.33,20.33,0,0,1,2.75.25,11.83,11.83,0,0,0-2.22-1.27l-.49,0a68.32,68.32,0,0,0-6.85.27c-1,.07-2,.15-3,.2A15.45,15.45,0,0,1,97.84,313.6Z" style="fill:#90CAF9"></path><path d="M71.51,320.23a3.08,3.08,0,0,1,.67-3.61A25.65,25.65,0,0,1,85,309c7.85-1.84,12.33,1,13.53,3.17,2.41,3.24,2.5,11,.53,14.8-2.17,4.14-7.55,5.08-11.15,4-5.67-1.73-9.59-6.36-11.79-7.94S72,321.17,71.51,320.23Z" style="fill:#90CAF9"></path><path d="M72.18,316.62A25.65,25.65,0,0,1,85,309a17.1,17.1,0,0,1,9.07,0A16.08,16.08,0,0,1,97,313.93s-20.63,6.73-22.72,5.74a10.54,10.54,0,0,1-2.83-2.05A3.25,3.25,0,0,1,72.18,316.62Z" style="opacity:0.30000000000000004"></path><path d="M74.31,319.67a17.32,17.32,0,0,1,4.44,2.55c2.45,2.1,4.74,4.68,9,6.16,6,2.1,9.91-1.79,10.43-5.8S98,312.28,93.8,311c-5-1.47-10.25-.05-13.84,2C76.57,315,72.11,318.71,74.31,319.67Z" style="fill:#263238"></path></g></g><g id="freepik--Score--inject-2"><g id="freepik--score--inject-2"><g id="freepik--www--inject-2"><path d="M420.71,110l-3.2-1.84h0L345.89,66.87c-2.29-1.32-4.36-1.45-5.86-.6s-5.17,3-6.68,3.85-2.4,2.73-2.4,5.37v34.83c0,5.3,3.72,11.75,8.31,14.4l3.2,1.84h0l71.62,41.32c2.29,1.32,4.36,1.45,5.86.6s5.17-3,6.68-3.85,2.41-2.73,2.41-5.36V124.44C429,119.14,425.3,112.7,420.71,110Z" style="fill:#e0e0e0"></path><path d="M426.52,116.14l-51,29.48-33-19.05h0l-3.2-1.85c-4.59-2.65-8.32-9.09-8.32-14.4V75.48c0-2.63.92-4.49,2.41-5.36s5.16-3,6.68-3.85,3.57-.73,5.86.59l71.62,41.32h0l3.2,1.85A16.91,16.91,0,0,1,426.52,116.14Z" style="fill:#ebebeb"></path><path d="M414.09,113.86,410.88,112h0L339.26,70.69c-4.59-2.65-8.31-.5-8.31,4.8v34.83c0,5.3,3.72,11.75,8.31,14.4l3.21,1.85h0l71.62,41.32c4.6,2.65,8.32.51,8.32-4.8V128.26C422.41,123,418.69,116.51,414.09,113.86Z" style="fill:#f5f5f5"></path></g><g id="freepik--www--inject-2"><path d="M418,128a12.44,12.44,0,0,0-5.6-9.71L345.76,79.79h0l-6.44-3.71c-2.19-1.27-4-.23-4,2.3v32.18a12.42,12.42,0,0,0,5.61,9.71l66.66,38.52h0L414,162.5c2.2,1.27,4,.23,4-2.3Z" style="fill:#fafafa"></path><path d="M415.8,163.55a4.14,4.14,0,0,1-2-.61L340.69,120.7a13,13,0,0,1-5.86-10.14V78.38a2.92,2.92,0,0,1,4.74-2.73l73.1,42.23A12.94,12.94,0,0,1,418.52,128V160.2a3.26,3.26,0,0,1-1.42,3A2.63,2.63,0,0,1,415.8,163.55ZM337.55,76a1.56,1.56,0,0,0-.8.2,2.33,2.33,0,0,0-.92,2.14v32.18a11.86,11.86,0,0,0,5.36,9.28l73.09,42.23a2,2,0,0,0,3.24-1.87V128a11.84,11.84,0,0,0-5.35-9.27l-73.1-42.24A3.13,3.13,0,0,0,337.55,76Z" style="fill:#90CAF9"></path></g><path d="M366.72,104.53v17.72c0,2.16-.54,3.41-1.63,3.76s-2.53,0-4.33-1c-3.85-2.23-5.78-5.39-5.78-9.51V97.75c0-2.16.55-3.42,1.64-3.76s2.53,0,4.32,1Q366.73,98.35,366.72,104.53Zm-9.71-6V117a4.67,4.67,0,0,0,1,2.86L362,98.46c-.44-.31-.8-.54-1.09-.71Q357,95.48,357,98.53Zm7.68,22.94V103a4.88,4.88,0,0,0-1-2.92L359.6,121.5a12.13,12.13,0,0,0,1.16.75Q364.69,124.52,364.69,121.47Z" style="fill:#455a64"></path><path d="M370.2,115.82l8.24,4.76c.34.2.51.75.51,1.66s-.17,1.27-.51,1.08l-8.24-4.76c-.34-.2-.51-.75-.51-1.66S369.86,115.63,370.2,115.82Z" style="fill:#455a64"></path><path d="M393.73,120.12v17.72c0,2.17-.54,3.42-1.63,3.77s-2.54,0-4.33-1q-5.77-3.33-5.78-9.5V113.34c0-2.16.54-3.41,1.64-3.76s2.53,0,4.32,1Q393.73,114,393.73,120.12Zm-9.71-6v18.51a4.71,4.71,0,0,0,1,2.86L389,114.05c-.44-.3-.8-.54-1.09-.71Q384,111.07,384,114.12Zm7.68,22.94v-18.5a5,5,0,0,0-1-2.93l-4.08,21.46a9.14,9.14,0,0,0,1.16.75Q391.7,140.1,391.7,137.06Z" style="fill:#455a64"></path></g></g><g id="freepik--Banner--inject-2"><g id="freepik--www--inject-2"><path d="M230.24,45.61c0-2.63-.92-4.49-2.4-5.36s-5.16-3-6.68-3.85-3.57-.73-5.86.59L75.36,117.75v54L82,175.6,221.93,94.84c4.59-2.65,8.31-9.09,8.31-14.4Z" style="fill:#90CAF9"></path><path d="M230.24,45.61c0-2.63-.92-4.49-2.4-5.36s-5.16-3-6.68-3.85-3.57-.73-5.86.59L75.36,117.75v54L82,175.6,221.93,94.84c4.59-2.65,8.31-9.09,8.31-14.4Z" style="opacity:0.15"></path><path d="M221.93,40.81c4.59-2.65,8.31-.5,8.31,4.8V80.44c0,5.31-3.72,11.75-8.31,14.4L82,175.6v-54Z" style="fill:#90CAF9"></path><path d="M220.25,90.39a12.41,12.41,0,0,0,5.61-9.7V48.51c0-2.54-1.8-3.57-4-2.31L85.28,125.09v43.26Z" style="fill:#fafafa"></path></g></g><g id="freepik--Text--inject-2"><path d="M105.11,126a4.53,4.53,0,0,1,2-.69,2.46,2.46,0,0,1,1.45.34,2.31,2.31,0,0,1,.88,1.06,3.88,3.88,0,0,1,.33,1.42,1.11,1.11,0,0,1-.13.59.82.82,0,0,1-.33.39l-1.19.69c-.2.11-.34.14-.44.08a.68.68,0,0,1-.26-.31,1.35,1.35,0,0,0-.78-.69,2,2,0,0,0-1.55.4,4.45,4.45,0,0,0-.84.64,4.54,4.54,0,0,0-.7.82,3.94,3.94,0,0,0-.47.94,3.12,3.12,0,0,0-.17,1,1.83,1.83,0,0,0,.16.89.7.7,0,0,0,.55.35,3.19,3.19,0,0,0,1-.08c.42-.08.95-.2,1.57-.35a6.4,6.4,0,0,1,1.77-.22,2,2,0,0,1,1.21.4,2.22,2.22,0,0,1,.7,1.08,5.72,5.72,0,0,1,.23,1.79,8.63,8.63,0,0,1-.34,2.39,10.11,10.11,0,0,1-1,2.3,10.63,10.63,0,0,1-1.56,2,9.46,9.46,0,0,1-2.06,1.61,5.57,5.57,0,0,1-1.83.7,2.7,2.7,0,0,1-1.54-.13,2.31,2.31,0,0,1-1.09-1,4.18,4.18,0,0,1-.46-1.84,1.13,1.13,0,0,1,.13-.59,1.1,1.1,0,0,1,.33-.39l1.2-.68c.19-.12.34-.15.44-.1a.51.51,0,0,1,.26.32,2.65,2.65,0,0,0,.29.52.93.93,0,0,0,.46.34,1.56,1.56,0,0,0,.72,0,3.56,3.56,0,0,0,1.09-.46,6.31,6.31,0,0,0,1-.69A4.54,4.54,0,0,0,107,140a4.74,4.74,0,0,0,.59-1,3.12,3.12,0,0,0,.22-1.14,1.1,1.1,0,0,0-.24-.81,1,1,0,0,0-.73-.21,6,6,0,0,0-1.2.2c-.48.11-1,.23-1.66.35a5.34,5.34,0,0,1-1.49.11,1.74,1.74,0,0,1-1.06-.45,2.4,2.4,0,0,1-.62-1.13,7.18,7.18,0,0,1-.21-1.92,8.45,8.45,0,0,1,.35-2.37,10.15,10.15,0,0,1,.93-2.25,10.51,10.51,0,0,1,1.43-2A7.88,7.88,0,0,1,105.11,126Z" style="fill:#455a64"></path><path d="M117.52,119.09c.19-.11.32-.11.41,0a1.39,1.39,0,0,1,.24.53l4.18,14.2a.79.79,0,0,1,0,.17,1.21,1.21,0,0,1-.14.58.79.79,0,0,1-.32.4l-1.23.71c-.23.13-.39.15-.48.05a.68.68,0,0,1-.18-.32l-.74-2.5L113.89,136l-.74,3.34a2.43,2.43,0,0,1-.18.54,1.15,1.15,0,0,1-.48.5l-1.23.71a.27.27,0,0,1-.33,0,.57.57,0,0,1-.13-.42.65.65,0,0,1,0-.2l4.18-19a3.44,3.44,0,0,1,.24-.81,1,1,0,0,1,.41-.46Zm.94,11-1.88-6.41-1.87,8.58Z" style="fill:#455a64"></path><path d="M129.52,121.54,132.77,111c0-.11.12-.29.23-.55a1.19,1.19,0,0,1,.5-.58l1.16-.67a.27.27,0,0,1,.33,0,.57.57,0,0,1,.13.42v17a1.36,1.36,0,0,1-.13.58.91.91,0,0,1-.33.4l-1.38.8a.26.26,0,0,1-.33,0,.56.56,0,0,1-.13-.42V117.67l-2.22,7.19a6,6,0,0,1-.24.57,1,1,0,0,1-.39.45l-.89.51c-.16.1-.29.1-.39,0a.84.84,0,0,1-.24-.3l-2.22-4.63v10.28a1.33,1.33,0,0,1-.14.57.84.84,0,0,1-.32.4l-1.39.8a.24.24,0,0,1-.32,0,.57.57,0,0,1-.14-.42v-17a1.37,1.37,0,0,1,.14-.58,1,1,0,0,1,.32-.4l1.17-.67c.22-.13.39-.13.5,0l.23.29Z" style="fill:#455a64"></path><path d="M142.82,104.48q2.07-1.19,3.21-.36c.76.56,1.14,1.81,1.14,3.73a10.84,10.84,0,0,1-1.14,5.08,8.18,8.18,0,0,1-3.21,3.38l-2.73,1.57v5.86a1.34,1.34,0,0,1-.14.58.84.84,0,0,1-.32.4l-1.38.8a.25.25,0,0,1-.33,0,.54.54,0,0,1-.14-.42v-17a1.34,1.34,0,0,1,.14-.58.85.85,0,0,1,.33-.4Zm-2.73,10.12,2.65-1.53a4.43,4.43,0,0,0,1.55-1.49,4.51,4.51,0,0,0,.58-2.4c0-1-.2-1.54-.58-1.7a1.87,1.87,0,0,0-1.55.33l-2.65,1.53Z" style="fill:#455a64"></path><path d="M157,111.42a.27.27,0,0,1,.33,0,.58.58,0,0,1,.13.43v1.86a1.36,1.36,0,0,1-.13.58,1,1,0,0,1-.33.4L149.49,119a.23.23,0,0,1-.32,0,.57.57,0,0,1-.14-.42v-17a1.41,1.41,0,0,1,.14-.58.86.86,0,0,1,.32-.39l1.39-.8a.24.24,0,0,1,.32,0,.57.57,0,0,1,.14.42v14.4Z" style="fill:#455a64"></path><path d="M167,105.62a.24.24,0,0,1,.33,0,.57.57,0,0,1,.14.42v1.87a1.41,1.41,0,0,1-.14.58.82.82,0,0,1-.33.39l-7.49,4.33a.25.25,0,0,1-.32,0,.58.58,0,0,1-.14-.43v-17a1.37,1.37,0,0,1,.14-.58.9.9,0,0,1,.32-.4l7.36-4.25a.24.24,0,0,1,.32,0,.57.57,0,0,1,.14.42v1.86a1.34,1.34,0,0,1-.14.58.9.9,0,0,1-.32.4l-5.52,3.18v4.18l5.14-3a.24.24,0,0,1,.33,0,.57.57,0,0,1,.13.42v1.86a1.33,1.33,0,0,1-.13.58.8.8,0,0,1-.33.4l-5.14,3v4.36Z" style="fill:#455a64"></path><path d="M181,82.42a.26.26,0,0,1,.33,0,.54.54,0,0,1,.13.42v1.86a1.33,1.33,0,0,1-.13.58.91.91,0,0,1-.33.4L178,87.48v14.4a1.34,1.34,0,0,1-.14.58.84.84,0,0,1-.32.4l-1.38.8a.27.27,0,0,1-.33,0,.58.58,0,0,1-.13-.43V88.81l-3.08,1.78a.24.24,0,0,1-.32,0,.54.54,0,0,1-.14-.42V88.28a1.37,1.37,0,0,1,.14-.58.9.9,0,0,1,.32-.4Z" style="fill:#455a64"></path><path d="M191.14,91.69a.27.27,0,0,1,.33,0,.58.58,0,0,1,.14.43V94a1.37,1.37,0,0,1-.14.58.9.9,0,0,1-.33.4l-7.49,4.32a.23.23,0,0,1-.32,0,.57.57,0,0,1-.14-.42v-17a1.41,1.41,0,0,1,.14-.58.81.81,0,0,1,.32-.39L191,76.66a.25.25,0,0,1,.32,0,.57.57,0,0,1,.14.42V79a1.41,1.41,0,0,1-.14.58,1,1,0,0,1-.32.4l-5.52,3.18v4.18l5.14-3a.27.27,0,0,1,.33,0,.57.57,0,0,1,.13.42v1.87a1.39,1.39,0,0,1-.13.58.88.88,0,0,1-.33.39l-5.14,3V95Z" style="fill:#455a64"></path><path d="M199.34,71.85c.18-.11.32-.11.41,0a1.25,1.25,0,0,1,.24.53l4.18,14.19a.9.9,0,0,1,0,.18,1.41,1.41,0,0,1-.14.58.82.82,0,0,1-.33.39l-1.22.71q-.34.19-.48.06a.79.79,0,0,1-.19-.33l-.73-2.49-5.4,3.11L195,92.11a3.21,3.21,0,0,1-.19.54,1.05,1.05,0,0,1-.48.5l-1.23.71a.23.23,0,0,1-.32,0,.57.57,0,0,1-.14-.42,1,1,0,0,1,0-.19l4.18-19a4.43,4.43,0,0,1,.24-.81,1,1,0,0,1,.41-.46Zm.94,11-1.88-6.41L196.52,85Z" style="fill:#455a64"></path><path d="M211.34,74.3l3.24-10.54c0-.11.12-.3.23-.56a1.21,1.21,0,0,1,.5-.57l1.17-.68a.24.24,0,0,1,.32,0,.57.57,0,0,1,.14.42v17a1.33,1.33,0,0,1-.14.57.84.84,0,0,1-.32.4l-1.39.8a.24.24,0,0,1-.32,0,.57.57,0,0,1-.14-.42V70.43l-2.22,7.19a3,3,0,0,1-.24.58,1,1,0,0,1-.39.45l-.89.51a.31.31,0,0,1-.39,0,1.28,1.28,0,0,1-.24-.29L208,74.24V84.51a1.36,1.36,0,0,1-.13.58.9.9,0,0,1-.33.4l-1.38.79a.24.24,0,0,1-.33,0,.57.57,0,0,1-.13-.42v-17a1.4,1.4,0,0,1,.13-.59.88.88,0,0,1,.33-.39l1.16-.67c.23-.13.4-.13.5,0s.19.22.23.28Z" style="fill:#455a64"></path></g><g id="freepik--Shield--inject-2"><g id="freepik--Lock--inject-2"><path d="M63.54,100.78a17.46,17.46,0,0,1-2.28-1.53c.25-.61.46-1.19.64-1.74a17.28,17.28,0,0,0,5.7,5.62Z" style="fill:#90CAF9"></path><path d="M63.54,100.78a17.46,17.46,0,0,1-2.28-1.53c.25-.61.46-1.19.64-1.74a17.28,17.28,0,0,0,5.7,5.62Z" style="opacity:0.1"></path><path d="M91.92,106.5c.11,24.32.31,65-27.3,91.53l-.6.57-.81.16a26.43,26.43,0,0,1-5,.51,18.36,18.36,0,0,1-11.73-3.94,19.51,19.51,0,0,0,7.16,1.3,26.35,26.35,0,0,0,5-.51l.81-.16.6-.57c27.61-26.49,27.41-67.21,27.29-91.53,0-1.31,0-2.55,0-3.75h0l4.55-3.59v5.8C91.9,103.63,91.91,105,91.92,106.5Z" style="fill:#90CAF9"></path><path d="M91.92,106.5c.11,24.32.31,65-27.3,91.53l-.6.57-.81.16a26.43,26.43,0,0,1-5,.51,18.36,18.36,0,0,1-11.73-3.94,19.51,19.51,0,0,0,7.16,1.3,26.35,26.35,0,0,0,5-.51l.81-.16.6-.57c27.61-26.49,27.41-67.21,27.29-91.53,0-1.31,0-2.55,0-3.75h0l4.55-3.59v5.8C91.9,103.63,91.91,105,91.92,106.5Z" style="opacity:0.2"></path><path d="M64,198.6h0l.6-.57C92.23,171.54,92,130.82,91.92,106.5c0-1.47,0-2.87,0-4.19v-5.8l-2.38,1.88-2.17,1.71h0l0,.05c0,1.19,0,2.42,0,3.71.12,24.32.32,65-27.29,91.53l-.6.57L64,198.6Z" style="opacity:0.1"></path><path d="M74.21,102.46c-1.62,0-3.85-.65-6.44-2.91a6.69,6.69,0,0,0,1.87.27c3.67,0,7.6-1.58,11.4-4.57l9.11-7.18,4.56,2.64-9.1,7.18C81.81,100.88,77.87,102.46,74.21,102.46Z" style="fill:#90CAF9"></path><path d="M74.21,102.46c-1.62,0-3.85-.65-6.44-2.91a6.69,6.69,0,0,0,1.87.27c3.67,0,7.6-1.58,11.4-4.57l9.11-7.18,4.56,2.64-9.1,7.18C81.81,100.88,77.87,102.46,74.21,102.46Z" style="fill:#fff;opacity:0.6000000000000001"></path><path d="M89.09,102.3l-4.57-2.63c-7.67,6-15.1,6.73-20.43,4.85A11.66,11.66,0,0,1,62.67,103l-4.57-2.64C53.81,110.8,43,126,31.68,130.17c0,18.73-1.32,52.84,13.77,61.57L50,194.38c3.35,1.93,7.5,2.62,12.65,1.62h0C91.06,168.75,89.09,125.19,89.09,102.3Z" style="fill:#263238"></path><path d="M58.86,133.15,62.67,103h0l-4.57-2.64C53.81,110.8,43,126,31.68,130.17l4.57,2.64Z" style="fill:#37474f"></path><path d="M58.17,195.34A14.4,14.4,0,0,1,47.45,191C37.16,180.63,37.28,154.4,37.36,137c0-1.2,0-2.35,0-3.46,11.47-4.66,21.38-19.2,25.63-28.51a16.3,16.3,0,0,0,11.2,4.14h0A24.46,24.46,0,0,0,88,104.53c0,.65,0,1.31,0,2,.11,23.62.3,63.11-25.85,88.45a22.34,22.34,0,0,1-4,.38Z" style="fill:#fafafa"></path><path d="M86.85,106.58c.12,23.37.28,62.34-25.25,87.33a21,21,0,0,1-3.43.3,13.33,13.33,0,0,1-9.92-4c-10-10-9.84-36-9.76-53.15,0-.93,0-1.83,0-2.7,10.94-4.84,20.37-18.17,24.9-27.46a17.87,17.87,0,0,0,10.82,3.47,24.69,24.69,0,0,0,12.63-3.76m2.24-4.28c-5.27,4.16-10.43,5.79-14.87,5.79A14.57,14.57,0,0,1,62.67,103c-4.29,10.41-15.09,25.63-26.42,29.78,0,21.6-1.75,63.65,21.92,63.65a23.54,23.54,0,0,0,4.5-.46h0c28.39-27.25,26.42-70.81,26.42-93.7Z" style="fill:#455a64"></path><path d="M56.57,88.19c-2.77,12.64-17,33.09-26.82,36.7l-3.69,1.36,4.57,2.63,3.69-1.35c9.85-3.61,24-24.06,26.83-36.7Z" style="fill:#90CAF9"></path><path d="M56.57,88.19c-2.77,12.64-17,33.09-26.82,36.7l-3.69,1.36,4.57,2.63,3.69-1.35c9.85-3.61,24-24.06,26.83-36.7Z" style="fill:#fff;opacity:0.6000000000000001"></path><path d="M42.66,195.73c-12.27-12.33-12.14-40.25-12-58.72,0-1.47,0-2.87,0-4.2v-3.93l-4.57-2.63v3.92c0,1.33,0,2.73,0,4.2-.09,18.47-.22,46.4,12,58.73a22.05,22.05,0,0,0,4.53,3.51l4.24,2.45A22,22,0,0,1,42.66,195.73Z" style="fill:#90CAF9"></path><path d="M42.66,195.73c-12.27-12.33-12.14-40.25-12-58.72,0-1.47,0-2.87,0-4.2v-3.93l-4.57-2.63v3.92c0,1.33,0,2.73,0,4.2-.09,18.47-.22,46.4,12,58.73a22.05,22.05,0,0,0,4.53,3.51l4.24,2.45A22,22,0,0,1,42.66,195.73Z" style="fill:#fff;opacity:0.1"></path><path d="M94.73,106.48c0-1.46,0-2.85,0-4.18V90.71l-9.11,7.18c-3.8,3-7.74,4.57-11.4,4.57-2.89,0-7.73-2.07-13.07-11.63-2.77,12.64-17,33.09-26.82,36.7l-3.69,1.35v3.93c0,1.33,0,2.73,0,4.19-.08,18.48-.22,46.41,12,58.73a21.13,21.13,0,0,0,15.51,6.36,29.69,29.69,0,0,0,5.58-.57l1.62-.32,1.2-1.14C95,172.73,94.85,131.26,94.73,106.48ZM64.62,198l-.6.57-.81.16a26.43,26.43,0,0,1-5,.51,18.4,18.4,0,0,1-13.51-5.52C33.21,182.25,33.34,155,33.43,137c0-1.47,0-2.88,0-4.21v-2l1.85-.68C46,126.25,58.79,107,61.91,97.51c2.91,4.79,8.42,7.76,12.3,7.76h0c4.29,0,8.83-1.79,13.13-5.17l4.55-3.59v5.79c0,1.33,0,2.73,0,4.19C92,130.82,92.23,171.53,64.62,198Z" style="fill:#90CAF9"></path><path d="M94.73,106.48c0-1.46,0-2.85,0-4.18V90.71l-9.11,7.18c-3.8,3-7.74,4.57-11.4,4.57-2.89,0-7.73-2.07-13.07-11.63-2.77,12.64-17,33.09-26.82,36.7l-3.69,1.35v3.93c0,1.33,0,2.73,0,4.19-.08,18.48-.22,46.41,12,58.73a21.13,21.13,0,0,0,15.51,6.36,29.69,29.69,0,0,0,5.58-.57l1.62-.32,1.2-1.14C95,172.73,94.85,131.26,94.73,106.48ZM64.62,198l-.6.57-.81.16a26.43,26.43,0,0,1-5,.51,18.4,18.4,0,0,1-13.51-5.52C33.21,182.25,33.34,155,33.43,137c0-1.47,0-2.88,0-4.21v-2l1.85-.68C46,126.25,58.79,107,61.91,97.51c2.91,4.79,8.42,7.76,12.3,7.76h0c4.29,0,8.83-1.79,13.13-5.17l4.55-3.59v5.79c0,1.33,0,2.73,0,4.19C92,130.82,92.23,171.53,64.62,198Z" style="fill:#fff;opacity:0.30000000000000004"></path></g><g id="freepik--soccer-ball--inject-2"><ellipse cx="62.67" cy="150.04" rx="27.39" ry="15.49" transform="translate(-99.93 148.96) rotate(-66.95)" style="fill:#fafafa"></ellipse><path d="M55.59,176.47a9.71,9.71,0,0,1-2.36-.28c-3.69-.88-6.49-3.89-7.9-8.48-3.26-10.7,1.74-27.35,11.15-37.12,5.19-5.39,10.88-7.83,15.64-6.7,3.68.89,6.49,3.9,7.89,8.49h0c3.26,10.7-1.73,27.35-11.14,37.12C64.52,174,59.8,176.47,55.59,176.47Zm14.15-51.85c-3.93,0-8.38,2.34-12.54,6.66C48,140.82,43.12,157,46.29,167.41c1.31,4.3,3.79,7,7.17,7.81,4.4,1.06,9.75-1.29,14.69-6.41,9.18-9.54,14.07-25.75,10.9-36.13h0c-1.31-4.3-3.79-7-7.17-7.81A8.89,8.89,0,0,0,69.74,124.62Z" style="fill:#e0e0e0"></path><path d="M62.79,137.67a45.15,45.15,0,0,0-6.13,9.21A42.46,42.46,0,0,0,59,154.61a27.29,27.29,0,0,0,6.8-3.94s2.29-6.39,2.34-10A7.64,7.64,0,0,0,62.79,137.67Z" style="fill:#455a64"></path><path d="M51.16,148.32l-.81-.58a2.17,2.17,0,0,1,0,.25c0,.06,0,.13-.05.2l.76.54,5.6-1.65.63-.1s0-.11,0-.16a2.25,2.25,0,0,1,.08-.24l-.66.1Z" style="fill:#455a64"></path><path d="M58.53,130.93c-.41.35-.84.74-1.32,1.18a29.31,29.31,0,0,0-6.35,9.29L50.1,143a.55.55,0,0,1,.18.19l.79-1.7a28.64,28.64,0,0,1,6.21-9.07c.61-.57,1.15-1.05,1.64-1.46A.48.48,0,0,1,58.53,130.93Z" style="fill:#455a64"></path><path d="M62.59,130l0,1.07,0,6.65,0,1.44a1.34,1.34,0,0,1,.27-.17l0-1.43,0-6.66,0-1.08A1.67,1.67,0,0,1,62.59,130Z" style="fill:#455a64"></path><path d="M74.56,134.19c-.17.49-.33.85-.39,1-.44.35-3.54,2.83-6,5.28l-.09.09a4.62,4.62,0,0,0-.34.41,1.32,1.32,0,0,1,.09.3,3.37,3.37,0,0,1,.42-.49c2.68-2.62,6-5.27,6.06-5.29l0,0,0-.07s.17-.39.38-1A1.28,1.28,0,0,1,74.56,134.19Z" style="fill:#455a64"></path><path d="M68.89,126.11c1.38,0,3.94.13,5.61,2.21a2.93,2.93,0,0,1,.35.56,2.77,2.77,0,0,1,.22-.37,3.11,3.11,0,0,0-.35-.54C73,125.84,70.4,125.75,69,125.7h-.43a4.4,4.4,0,0,0-.82,0,1.37,1.37,0,0,1,0,.19,1.72,1.72,0,0,1-.07.21,4.11,4.11,0,0,1,.79,0Z" style="fill:#455a64"></path><path d="M66,150.53c0-.15,0-.65,0-1.36a2.16,2.16,0,0,1-.28.45c0,.64,0,1.07,0,1.14v.05l3.83,5.39h0s.72-.14,1.48-.32l0-.09.26-.36c-.61.15-1.23.28-1.67.36Z" style="fill:#455a64"></path><path d="M77.92,139.37c0,.48,0,1-.08,1.53a42.62,42.62,0,0,1-2.34,10c-.19.4-.53,1.06-.91,1.74a.61.61,0,0,1,.27,0c.43-.77.78-1.46.86-1.64a43.84,43.84,0,0,0,2.39-10.27c0-.5.07-1,.08-1.43A.82.82,0,0,1,77.92,139.37Z" style="fill:#455a64"></path><path d="M59.56,153.21c-.2.39-.41.83-.65,1.34-1.69,3.7-3.59,9.67-3.61,9.73v.05c0,.19-.11.83-.18,1.63l.26.08c.05-.69.12-1.32.18-1.76s2-6.09,3.58-9.62c.26-.56.49-1,.7-1.46A.83.83,0,0,1,59.56,153.21Z" style="fill:#455a64"></path><path d="M67.62,163.61c-.45.44-1,.93-1.54,1.46-3.81,3.56-7,3.86-7,3.86h0l0,0s-.39.27-.9.56c0,.11.05.22.07.33.41-.24.73-.45.83-.52.34,0,3.43-.5,7.14-3.94L67.59,164A1.5,1.5,0,0,1,67.62,163.61Z" style="fill:#455a64"></path><path d="M49.79,167a1.12,1.12,0,0,1,.26-.3,6,6,0,0,1-.5-.82,31.42,31.42,0,0,1-2-7.87c-.06-.55-.09-1.1-.11-1.65l-.18.21-.09.08c0,.52.05,1.05.11,1.57a31.87,31.87,0,0,0,2,8A6.45,6.45,0,0,0,49.79,167Z" style="fill:#455a64"></path><path d="M57.24,132.27A11,11,0,0,1,62.77,131a28.61,28.61,0,0,1,5.74-5.12,8.86,8.86,0,0,0-.86-1.56,19.86,19.86,0,0,0-9.42,5.25C57.92,130.33,57.56,131.28,57.24,132.27Z" style="fill:#455a64"></path><path d="M77.6,128.39a7.44,7.44,0,0,0-3-.24,46.22,46.22,0,0,1-.37,7.17A31.84,31.84,0,0,1,78,140.84a42.48,42.48,0,0,0,2.42-3.71,22.86,22.86,0,0,0-.87-4.6A15.26,15.26,0,0,0,77.6,128.39Z" style="fill:#455a64"></path><path d="M55.42,174.58A27.3,27.3,0,0,0,59,169.13a52.92,52.92,0,0,1-3.62-4.84,27.6,27.6,0,0,1-6,1.69,14.18,14.18,0,0,0,.29,6.54A9,9,0,0,0,55.42,174.58Z" style="fill:#455a64"></path><path d="M45.09,156.15a3.84,3.84,0,0,0,2.35,1.92,33.29,33.29,0,0,1,3.65-9.54,63.77,63.77,0,0,1-.13-7.07A30,30,0,0,0,48.42,144,45.77,45.77,0,0,0,45.09,156.15Z" style="fill:#455a64"></path><path d="M75.61,151a41.46,41.46,0,0,1-6,5,85.67,85.67,0,0,1-3.48,9.24s2,1.52,3.84,1a48,48,0,0,0,5.6-8.49A25.2,25.2,0,0,0,75.61,151Z" style="fill:#455a64"></path></g></g></svg>
